<?xml version="1.0" encoding="utf-8"?>
<!-- Generator: Adobe Adobe Illustrator 24.2.0, SVG Export Plug-In . SVG Version: 6.00 Build 0)  -->
<svg version="1.1" xmlns="http://www.w3.org/2000/svg" xmlns:xlink="http://www.w3.org/1999/xlink" x="0px" y="0px" width="200px"
	 height="200px" viewBox="0 0 200 200" style="enable-background:new 0 0 200 200;" xml:space="preserve">
<style type="text/css">
	.st0{fill:#FFFFFF;}
	.st1{fill:#FFFFFF;stroke:#000000;stroke-width:6;stroke-miterlimit:10;}
	.st2{display:none;}
	.st3{fill:#FFFFFF;stroke:#000000;stroke-width:3;stroke-miterlimit:10;}
</style>
<g id="レイヤー_1">
	<g>
		<path class="st1" d="M174.14,138.16l-2.87-32.29l-0.4-4.54l-24.81,0.07c0-3.63,0-23.68,0-43.96c-16.01-3.67-35.96-7.03-46.06-7.03
			c-12.38,0-38.01-1.83-53.99,4.99c-8.43,3.6-14.04,11.56-14.79,20.52c-1.82,21.81-5.37,62.24-5.37,62.24
			c-0.07,0.41-0.11,0.82-0.11,1.24c0,12.71,33.24,23.01,74.25,23.01c41.01,0,74.25-10.3,74.25-23.01
			C174.25,138.99,174.21,138.57,174.14,138.16z"/>
	</g>
	<path class="st1" d="M100.01,43.09v-4c0-0.83,0.67-1.5,1.5-1.5h11.5c0.83,0,1.5,0.67,1.5,1.5v4c0,0.83-0.67,1.5-1.5,1.5h-11.5
		C100.69,44.59,100.01,43.92,100.01,43.09z"/>
	<g>
		<path class="st1" d="M90.96,90.75c15.07,8.5,38,10.98,55.11,11.52V55.96c0-8.4-17.06-15.21-38.11-15.21s-38.11,6.81-38.11,15.21
			v17.29C69.85,73.25,76.93,82.84,90.96,90.75z"/>
		<g>
			<path d="M146.07,103.02c-17.09-1.08-40.04-3.77-55.11-12.27c-14.04-7.92-21.11-17.5-21.11-17.5s0,3.94,0-18.03
				c-18.73,0-32.52,8.15-32.52,18.64c0,1.14-3.33,14.59,32.52,25.73c4.03,1.25,8.54,2.45,13.61,3.58
				c16.65,3.71,41.2,7.41,62.61,5.12c8.35-0.89,17.47-1.24,24.21-3.75C170.28,104.54,159.52,103.88,146.07,103.02z"/>
		</g>
	</g>
	<path class="st1" d="M27.6,119.24c0,36.2,144.79,36.2,144.79,0"/>
	<path class="st3" d="M47.75,137.54v-38.5c0-0.83-0.67-1.5-1.5-1.5h0c-0.83,0-1.5,0.67-1.5,1.5v38.5c0,0.83,0.67,1.5,1.5,1.5h0
		C47.07,139.04,47.75,138.37,47.75,137.54z"/>
	<path class="st3" d="M98.75,144.89v-29.94c0-0.83-0.67-1.5-1.5-1.5h0c-0.83,0-1.5,0.67-1.5,1.5v29.94c0,0.83,0.67,1.5,1.5,1.5h0
		C98.07,146.39,98.75,145.71,98.75,144.89z"/>
	<path class="st3" d="M95.75,89.11V59.17c0-0.83-0.67-1.5-1.5-1.5h0c-0.83,0-1.5,0.67-1.5,1.5v29.94c0,0.83,0.67,1.5,1.5,1.5h0
		C95.07,90.61,95.75,89.94,95.75,89.11z"/>
	<path class="st3" d="M124.25,100.67v-41.5c0-0.83-0.67-1.5-1.5-1.5h0c-0.83,0-1.5,0.67-1.5,1.5v41.5c0,0.83,0.67,1.5,1.5,1.5h0
		C123.57,102.17,124.25,101.5,124.25,100.67z"/>
	<path class="st3" d="M149.75,138.71v-25.27c0-0.83-0.67-1.5-1.5-1.5l0,0c-0.83,0-1.5,0.67-1.5,1.5v25.27c0,0.83,0.67,1.5,1.5,1.5
		l0,0C149.07,140.21,149.75,139.54,149.75,138.71z"/>
	<path class="st1" d="M71.57,55.24c-0.19,2.72,74.31,3.45,74.5,0.73"/>
</g>
<g id="レイヤー_2">
</g>
</svg>
