<svg width="65" height="65" viewBox="0 0 65 65" fill="none" xmlns="http://www.w3.org/2000/svg">
<path d="M44.3605 36.2441C42.7094 41.2257 38.0328 44.5746 32.731 44.5746C25.9825 44.5746 20.4923 40.1889 20.4923 32.498C20.4923 25.3236 25.8743 20.191 32.6268 20.191C39.3793 20.191 42.4249 24.3066 42.8938 25.4269L38.3854 24.0722L37.3916 27.3059L47.4743 30.2495L50.4999 20.6002L47.1577 19.5634L46.232 23.1585C43.7113 18.4391 37.8204 16 32.723 16C22.2275 16 16 23.5955 16 32.498C16 41.9368 23.5019 49 32.723 49C40.862 49 46.9212 43.2954 48.4921 37.9285L48.5843 37.6186L44.4887 35.8588L44.3605 36.2441V36.2441Z" fill="white"/>
<path d="M30.2624 26.2255C29.6693 25.8322 28.8718 26.2533 28.8718 26.9564V38.4053C28.8718 39.1085 29.6693 39.5295 30.2624 39.1402L38.9344 33.4158C39.4634 33.0662 39.4634 32.2995 38.9344 31.9499L30.2624 26.2255V26.2255Z" fill="white"/>
</svg>
