<?xml version="1.0" encoding="utf-8"?>
<!-- Generator: Adobe Adobe Illustrator 24.2.0, SVG Export Plug-In . SVG Version: 6.00 Build 0)  -->
<svg version="1.1" xmlns="http://www.w3.org/2000/svg" xmlns:xlink="http://www.w3.org/1999/xlink" x="0px" y="0px" width="200px"
	 height="200px" viewBox="0 0 200 200" style="enable-background:new 0 0 200 200;" xml:space="preserve">
<style type="text/css">
	.st0{display:none;}
	.st1{fill:#FFFFFF;stroke:#000000;stroke-width:6;stroke-miterlimit:10;}
	.st2{stroke:#000000;stroke-width:6;stroke-miterlimit:10;}
	.st3{stroke:#000000;stroke-width:3;stroke-miterlimit:10;}
</style>
<g id="レイヤー_1" class="st0">
</g>
<g id="レイヤー_2">
	<g>
		<path class="st1" d="M34.31,130.53l5.87-52.93c0.02-0.14,0.14-0.25,0.3-0.25h21.05c0.15,0,0.28,0.11,0.3,0.25l6.41,52.93
			c0.02,0.17-0.12,0.32-0.3,0.32H34.6C34.43,130.85,34.29,130.7,34.31,130.53z"/>
		<path class="st1" d="M79.31,130.57l5.87-46.5c0.02-0.13,0.14-0.22,0.3-0.22h21.05c0.15,0,0.28,0.1,0.3,0.22l6.41,46.5
			c0.02,0.15-0.12,0.28-0.3,0.28H79.61C79.43,130.85,79.29,130.72,79.31,130.57z"/>
		<path class="st1" d="M124.81,130.45l5.87-66.78c0.02-0.18,0.14-0.32,0.3-0.32h21.05c0.15,0,0.28,0.14,0.3,0.32l6.41,66.78
			c0.02,0.21-0.12,0.4-0.3,0.4h-33.33C124.93,130.85,124.79,130.66,124.81,130.45z"/>
		<path class="st1" d="M48.14,52.43c0,0-2.84-7.38-0.35-11.14c4.13-6.25,10.98-8.6,12.36-6.73c1.16,1.58-3.58,3.79-3.42,8.3
			c0.17,4.5-1.7,9.57-1.7,9.57H48.14z"/>
		<path class="st1" d="M18.5,153.71v-22.73c0-0.08,0.06-0.14,0.14-0.14h162.73c0.08,0,0.14,0.06,0.14,0.14v22.73
			c0,0.08-0.06,0.14-0.14,0.14H18.64C18.56,153.85,18.5,153.79,18.5,153.71z"/>
		<path class="st2" d="M45.27,77.12V53.08c0-0.13,0.1-0.23,0.23-0.23h11.54c0.13,0,0.23,0.1,0.23,0.23v24.04
			c0,0.13-0.1,0.23-0.23,0.23H45.5C45.37,77.35,45.27,77.24,45.27,77.12z"/>
		<path class="st2" d="M90.27,83.62V59.58c0-0.13,0.1-0.23,0.23-0.23h11.54c0.13,0,0.23,0.1,0.23,0.23v24.04
			c0,0.13-0.1,0.23-0.23,0.23H90.5C90.38,83.85,90.27,83.74,90.27,83.62z"/>
		<path class="st2" d="M135.77,63.12V39.08c0-0.13,0.1-0.23,0.23-0.23h11.54c0.13,0,0.23,0.1,0.23,0.23v24.04
			c0,0.13-0.1,0.23-0.23,0.23H136C135.88,63.35,135.77,63.24,135.77,63.12z"/>
		<g>
			<path class="st1" d="M164.94,130.85c0.27,0,0.49-0.22,0.49-0.49V91.39c0-0.27-0.22-0.49-0.49-0.49h-35.52
				c-0.27,0-0.49,0.22-0.49,0.49v17.46H97.55V91.13c0-0.13-0.1-0.23-0.23-0.23H61.28c-0.13,0-0.23,0.1-0.23,0.23v39.49
				c0,0.13,0.1,0.23,0.23,0.23H164.94z"/>
		</g>
		<path class="st3" d="M68.29,103.6v-2.52c0-0.28,0.22-0.5,0.5-0.5h21.04c0.28,0,0.5,0.22,0.5,0.5v2.52c0,0.28-0.22,0.5-0.5,0.5
			H68.79C68.51,104.1,68.29,103.87,68.29,103.6z"/>
		<path class="st3" d="M68.29,121.6v-2.52c0-0.28,0.22-0.5,0.5-0.5h21.04c0.28,0,0.5,0.22,0.5,0.5v2.52c0,0.28-0.22,0.5-0.5,0.5
			H68.79C68.51,122.1,68.29,121.87,68.29,121.6z"/>
		<path class="st3" d="M102.22,121.6v-2.52c0-0.28,0.22-0.5,0.5-0.5h21.04c0.28,0,0.5,0.22,0.5,0.5v2.52c0,0.28-0.22,0.5-0.5,0.5
			h-21.04C102.44,122.1,102.22,121.87,102.22,121.6z"/>
		<path class="st3" d="M136.75,121.6v-2.52c0-0.28,0.22-0.5,0.5-0.5h21.04c0.28,0,0.5,0.22,0.5,0.5v2.52c0,0.28-0.22,0.5-0.5,0.5
			h-21.04C136.98,122.1,136.75,121.87,136.75,121.6z"/>
		<path class="st3" d="M136.75,103.6v-2.52c0-0.28,0.22-0.5,0.5-0.5h21.04c0.28,0,0.5,0.22,0.5,0.5v2.52c0,0.28-0.22,0.5-0.5,0.5
			h-21.04C136.98,104.1,136.75,103.87,136.75,103.6z"/>
		<path class="st1" d="M113.34,65.14L106.1,91c-1.26,4.49,2.79,8.66,7.32,7.54l25.7-6.36c4.52-1.12,6.16-6.7,2.95-10.09l-18.46-19.5
			C120.36,59.17,114.61,60.59,113.34,65.14z"/>
	</g>
</g>
</svg>
