<?xml version="1.0" encoding="utf-8"?>
<!-- Generator: Adobe Adobe Illustrator 24.2.0, SVG Export Plug-In . SVG Version: 6.00 Build 0)  -->
<svg version="1.1" xmlns="http://www.w3.org/2000/svg" xmlns:xlink="http://www.w3.org/1999/xlink" x="0px" y="0px" width="200px"
	 height="200px" viewBox="0 0 200 200" style="enable-background:new 0 0 200 200;" xml:space="preserve">
<style type="text/css">
	.st0{fill:none;}
	.st1{fill:#FFFFFF;}
</style>
<g id="レイヤー_2">
	<g>
		<g>
			<path class="st1" d="M163.41,11.75L24.5,12.34L24,187.66l139.41,0.59c6.95,0,12.59-5.64,12.59-12.59V24.34
				C176,17.39,170.36,11.75,163.41,11.75z M98.38,129.01c-2.21,0-4-1.46-4-3.25s1.79-3.25,4-3.25c2.21,0,4,1.46,4,3.25
				S100.59,129.01,98.38,129.01z M134.74,91.61c-3.45,12-12.27,5.98-13.84,7.78c-3,3.44,1.24,5.88-1.86,8.07
				c-3.91,2.76-9.13-0.27-12.15,0.49c-7.72,1.93-7.89,3.66-8.95,10.79c-4.84-5.52-6.34-12.71-0.22-17.34
				c3.6-2.72,16.99-7.01,14.11-18.04c-2.67-10.22-5.79-9.87-13.82-11.93c-3.62-0.93-11.38,2.14-11.66,9.02
				c-0.24,5.78,3.16,6.91,5.65,6.91c4.25,0,5.06-4.29,2.71-5.77c-1.84-1.16,4.93-1.35,4.93,5.42c0,2.74-2.6,8.1-9.16,8.1
				c-8.81,0-16.78-6.42-16.78-15.36c0-1.69,0.47-3.63,1.12-5.7c0.72-2.32-3.02-3.31,0.32-6.65c3.11-3.11,4.06-0.33,7.55-2.04
				c3.27-1.6,0.58-9.78,4.84-11.05c5.73-1.71,4.74,2.69,8.67,2.69c8.02,0,4.07-6.5,12.56-5.12c9.94,1.62,1.89,4.4,6.86,9.37
				c3.16,3.16,11.38-3.19,14.7,4.58c4.1,9.6-3.86,9.29-3.86,14.41C126.43,82.29,137.69,81.34,134.74,91.61z"/>
		</g>
	</g>
	
		<ellipse transform="matrix(0.3472 -0.9378 0.9378 0.3472 -1.8449 180.6493)" class="st1" cx="128.83" cy="91.65" rx="4.25" ry="2.5"/>
	
		<ellipse transform="matrix(0.7886 -0.6149 0.6149 0.7886 -40.0919 92.9578)" class="st1" cx="115.15" cy="104.79" rx="1.87" ry="1.25"/>
	<ellipse class="st1" cx="107.8" cy="55.39" rx="1.88" ry="0.62"/>
	<ellipse transform="matrix(0.9496 -0.3135 0.3135 0.9496 -15.0802 42.9335)" class="st1" cx="125.97" cy="68.36" rx="2" ry="2.5"/>
</g>
<g id="レイヤー_1">
</g>
</svg>
