<?xml version="1.0" encoding="utf-8"?>
<!-- Generator: Adobe Adobe Illustrator 24.2.0, SVG Export Plug-In . SVG Version: 6.00 Build 0)  -->
<svg version="1.1" xmlns="http://www.w3.org/2000/svg" xmlns:xlink="http://www.w3.org/1999/xlink" x="0px" y="0px" width="200px"
	 height="200px" viewBox="0 0 200 200" style="enable-background:new 0 0 200 200;" xml:space="preserve">
<style type="text/css">
	.st0{clip-path:url(#SVGID_2_);fill:#FFFFFF;stroke:#000000;stroke-width:6;stroke-miterlimit:10;}
	.st1{clip-path:url(#SVGID_4_);fill:#FFFFFF;stroke:#000000;stroke-width:6;stroke-miterlimit:10;}
	.st2{stroke:#000000;stroke-width:3;stroke-miterlimit:10;}
	.st3{clip-path:url(#SVGID_6_);stroke:#000000;stroke-width:3;stroke-miterlimit:10;}
	.st4{clip-path:url(#SVGID_8_);stroke:#000000;stroke-width:3;stroke-miterlimit:10;}
	.st5{fill:#FFFFFF;stroke:#000000;stroke-width:6;stroke-miterlimit:10;}
	.st6{clip-path:url(#SVGID_10_);fill:#FFFFFF;stroke:#000000;stroke-width:6;stroke-miterlimit:10;}
	.st7{clip-path:url(#SVGID_12_);fill:#FFFFFF;stroke:#000000;stroke-width:6;stroke-miterlimit:10;}
	.st8{clip-path:url(#SVGID_14_);stroke:#000000;stroke-width:3;stroke-miterlimit:10;}
	.st9{clip-path:url(#SVGID_16_);stroke:#000000;stroke-width:3;stroke-miterlimit:10;}
</style>
<g id="レイヤー_2">
	<path class="st5" d="M101.28,172.2c-26.13,1.08-56.31-3.97-72.57-36.85c-1.14-2.3-2.32-3.14-0.7-22.12
		C29.78,92.41,50.63,58.4,50.63,58.4c8.22-11.52,49.57-18.01,49.57-18.01"/>
	<path class="st5" d="M102.59,145.99c-20.99,0.87-45.23-3.19-58.29-29.6c-0.91-1.84-1.86-2.52-0.57-17.77
		C45.15,81.9,61.9,54.59,61.9,54.59c6.6-9.25,24.26-14.06,39.82-14.47"/>
	<path class="st5" d="M98.72,172.2c26.13,1.08,56.31-3.97,72.57-36.85c1.14-2.3,2.32-3.14,0.7-22.12
		c-1.77-20.82-22.62-54.82-22.62-54.82c-8.22-11.52-30.2-17.51-49.57-18.01"/>
	<path class="st5" d="M97.41,145.99c20.99,0.87,45.23-3.19,58.29-29.6c0.91-1.84,1.86-2.52,0.57-17.77
		c-1.42-16.72-18.17-44.03-18.17-44.03c-6.6-9.25-24.26-14.06-39.82-14.47"/>
	<path class="st2" d="M96.46,128.83c0-7.05,1.28-49.75,3.17-49.75s3.92,42.57,3.92,49.5c0,7.99-2.03,7-3.92,7
		S96.46,135.88,96.46,128.83z"/>
	<path class="st2" d="M60,113.28c2.57-6.57,19.34-45.85,21.1-45.17c1.76,0.69-11.88,41.06-14.41,47.52
		c-2.91,7.44-4.44,5.78-6.2,5.09C58.73,120.04,57.43,119.85,60,113.28z"/>
	<path class="st2" d="M139.86,113.28c-2.57-6.57-19.34-45.85-21.1-45.17c-1.76,0.69,11.88,41.06,14.41,47.52
		c2.91,7.44,4.44,5.78,6.2,5.09C141.13,120.04,142.44,119.85,139.86,113.28z"/>
</g>
<g id="レイヤー_1">
</g>
</svg>
