<svg width="512" height="512" viewBox="0 0 512 512" fill="none" xmlns="http://www.w3.org/2000/svg">
<g clip-path="url(#clip0_1_2)">
<path fill-rule="evenodd" clip-rule="evenodd" d="M511.996 254.511C512.29 305.141 497.563 354.722 469.682 396.985C441.798 439.247 402.009 472.29 355.343 491.938C308.679 511.586 257.237 516.956 207.522 507.368C157.806 497.778 112.05 473.663 76.0404 438.073C40.0296 402.478 15.3824 357.007 5.21484 307.407C-4.95258 257.807 -0.183538 206.305 18.9187 159.416C38.021 112.526 70.5981 72.3534 112.533 43.9787C154.466 15.6033 203.872 0.300626 254.503 0.00438295C288.121 -0.192333 321.448 6.23457 352.585 18.9184C383.717 31.6022 412.05 50.294 435.961 73.9274C459.871 97.5609 478.892 125.672 491.938 156.657C504.985 187.641 511.8 220.892 511.996 254.511Z" fill="url(#paint0_radial_1_2)"/>
<path fill-rule="evenodd" clip-rule="evenodd" d="M372.998 255.362C373.126 278.511 366.38 301.177 353.623 320.492C340.861 339.806 322.659 354.901 301.316 363.868C279.972 372.834 256.449 375.268 233.724 370.859C210.998 366.451 190.09 355.403 173.646 339.109C157.203 322.813 145.962 302.008 141.348 279.323C136.734 256.638 138.952 233.093 147.723 211.67C156.494 190.247 171.423 171.907 190.621 158.971C209.82 146.036 232.424 139.086 255.572 139.001C286.567 138.888 316.338 151.077 338.354 172.893C360.371 194.709 372.832 224.369 372.998 255.362Z" fill="url(#paint1_radial_1_2)"/>
<path d="M329.361 172.904C360.719 169.065 372.026 137.066 360.719 126.826C327.132 99.6245 291.472 75.0886 254.064 53.4407C224.627 38.5081 205.642 37.8681 186.23 53.4407C149.541 82.4539 89.1738 161.811 79.574 195.944C69.9756 230.075 106.665 232.849 125.01 222.397C139.544 214.333 154.577 207.208 170.019 201.063C171.299 209.596 173.006 218.13 174.712 226.236C170.862 228.332 167.156 230.683 163.619 233.275C142.289 248.208 113.918 300.047 136.956 303.46C156.623 301.62 176.057 297.833 194.977 292.154C197.749 298.981 200.31 305.381 203.082 311.567C187.51 326.075 169.593 358.074 184.31 362.125C198.297 362.371 212.261 360.937 225.907 357.859C238.492 381.753 229.319 380.473 219.081 403.723C208.842 426.978 235.932 431.672 252.997 429.537C278.322 426.645 303.23 420.847 327.231 412.258C366.907 399.244 364.987 375.779 346.854 370.873C328.722 365.964 282.861 361.699 268.996 349.54C282.861 346.764 294.594 344.419 300.139 342.925C318.911 338.233 321.472 327.355 292.674 308.581C280.767 300.846 267.141 296.157 252.997 294.928C252.997 289.168 250.864 283.194 249.797 276.795C268.142 271.675 283.501 267.195 290.966 264.635C315.711 256.529 318.27 243.302 276.888 224.102C265.537 219.123 253.547 215.749 241.266 214.077C239.985 202.343 239.132 191.251 238.492 181.651C266.436 179.091 303.979 176.104 329.361 172.904Z" fill="url(#paint2_linear_1_2)"/>
<path fill-rule="evenodd" clip-rule="evenodd" d="M385.999 157.79C386.042 164.712 384.001 171.491 380.136 177.27C376.27 183.048 370.753 187.567 364.283 190.254C357.813 192.941 350.679 193.678 343.784 192.368C336.888 191.058 330.543 187.762 325.549 182.897C320.554 178.032 317.136 171.816 315.724 165.035C314.313 158.254 314.973 151.213 317.621 144.801C320.268 138.39 324.785 132.897 330.6 129.017C336.413 125.136 343.265 123.043 350.287 123.001C354.948 122.973 359.571 123.851 363.889 125.583C368.206 127.317 372.136 129.873 375.449 133.102C378.766 136.333 381.406 140.176 383.216 144.411C385.025 148.647 385.972 153.193 385.999 157.79Z" fill="white"/>
<path d="M231.817 125.691C238.522 106.135 229.264 85.4936 211.139 79.5883C193.015 73.6843 172.888 84.7514 166.183 104.309C159.478 123.865 168.736 144.506 186.859 150.412C204.984 156.316 225.112 145.249 231.817 125.691Z" fill="url(#paint3_radial_1_2)"/>
</g>
<defs>
<radialGradient id="paint0_radial_1_2" cx="0" cy="0" r="1" gradientUnits="userSpaceOnUse" gradientTransform="translate(255.711 255.94) rotate(-0.289999) scale(256 255.999)">
<stop offset="0.56" stop-color="#FFED09"/>
<stop offset="0.8" stop-color="#E9F50F"/>
<stop offset="1" stop-color="#D5FD14"/>
</radialGradient>
<radialGradient id="paint1_radial_1_2" cx="0" cy="0" r="1" gradientUnits="userSpaceOnUse" gradientTransform="translate(255.928 255.937) rotate(-0.289998) scale(116.787 116.786)">
<stop stop-color="#E39E00"/>
<stop offset="0.38" stop-color="#EFB200"/>
<stop offset="1" stop-color="#FFCE00"/>
</radialGradient>
<linearGradient id="paint2_linear_1_2" x1="77.2716" y1="237.317" x2="365.025" y2="235.861" gradientUnits="userSpaceOnUse">
<stop stop-color="#3B4D52"/>
<stop offset="0.4" stop-color="#353746"/>
<stop offset="1" stop-color="#2A1030"/>
</linearGradient>
<radialGradient id="paint3_radial_1_2" cx="0" cy="0" r="1" gradientUnits="userSpaceOnUse" gradientTransform="translate(86678.5 162835) rotate(18.0455) scale(128.368 113.617)">
<stop offset="0.56" stop-color="#FFED09"/>
<stop offset="0.8" stop-color="#E9F50F"/>
<stop offset="1" stop-color="#D5FD14"/>
</radialGradient>
<clipPath id="clip0_1_2">
<rect width="512" height="512" fill="white"/>
</clipPath>
</defs>
</svg>
