<svg width="512" height="512" viewBox="0 0 512 512" fill="none" xmlns="http://www.w3.org/2000/svg">
<path fill-rule="evenodd" clip-rule="evenodd" d="M442.447 255.142C442.661 291.973 431.948 328.04 411.666 358.784C391.382 389.527 362.438 413.564 328.491 427.857C294.546 442.15 257.125 446.056 220.96 439.081C184.795 432.105 151.51 414.563 125.315 388.673C99.1192 362.78 81.1898 329.702 73.7935 293.621C66.3973 257.54 69.8665 220.075 83.7623 185.966C97.6581 151.856 121.356 122.633 151.861 101.992C182.365 81.3505 218.305 70.2187 255.136 70.0032C279.591 69.8601 303.835 74.5353 326.485 83.7621C349.132 92.9888 369.742 106.586 387.136 123.778C404.529 140.97 418.366 161.419 427.856 183.959C437.347 206.498 442.305 230.686 442.447 255.142V255.142Z" fill="url(#paint0_radial_1_9)"/>
<path fill-rule="evenodd" clip-rule="evenodd" d="M341.264 255.764C341.357 272.621 336.445 289.126 327.155 303.191C317.862 317.255 304.608 328.247 289.066 334.777C273.524 341.306 256.395 343.078 239.847 339.868C223.298 336.658 208.073 328.613 196.099 316.748C184.125 304.881 175.94 289.731 172.58 273.212C169.22 256.693 170.835 239.548 177.222 223.948C183.609 208.348 194.48 194.993 208.46 185.573C222.44 176.154 238.9 171.093 255.756 171.031C278.326 170.949 300.005 179.825 316.037 195.711C332.069 211.597 341.143 233.195 341.264 255.764V255.764Z" fill="url(#paint1_radial_1_9)"/>
<path d="M309.291 195.55C332.104 192.757 340.33 169.479 332.104 162.03C307.669 142.242 281.726 124.393 254.511 108.645C233.095 97.7821 219.283 97.3165 205.161 108.645C178.469 129.751 134.551 187.48 127.567 212.311C120.584 237.14 147.276 239.158 160.622 231.554C171.196 225.688 182.133 220.505 193.367 216.035C194.298 222.242 195.54 228.45 196.781 234.347C193.98 235.872 191.284 237.582 188.711 239.468C173.193 250.331 152.553 288.042 169.313 290.525C183.621 289.186 197.76 286.431 211.524 282.3C213.541 287.266 215.404 291.922 217.421 296.422C206.092 306.976 193.057 330.254 203.764 333.201C213.94 333.38 224.099 332.337 234.026 330.098C243.182 347.48 236.509 346.549 229.06 363.462C221.611 380.379 241.32 383.794 253.735 382.241C272.159 380.137 290.28 375.919 307.741 369.671C336.606 360.204 335.209 343.134 322.017 339.565C308.826 335.994 275.461 332.891 265.374 324.046C275.461 322.027 283.997 320.321 288.031 319.234C301.688 315.821 303.551 307.907 282.6 294.25C273.938 288.623 264.025 285.212 253.735 284.318C253.735 280.128 252.183 275.782 251.407 271.127C264.753 267.402 275.927 264.143 281.358 262.281C299.36 256.384 301.222 246.762 271.116 232.795C262.858 229.173 254.135 226.718 245.2 225.502C244.268 216.966 243.648 208.897 243.182 201.913C263.512 200.051 290.825 197.878 309.291 195.55V195.55Z" fill="url(#paint2_linear_1_9)"/>
<path fill-rule="evenodd" clip-rule="evenodd" d="M350.109 184.998C350.14 190.093 348.659 195.083 345.854 199.336C343.049 203.589 339.045 206.915 334.35 208.893C329.655 210.871 324.478 211.413 319.475 210.449C314.471 209.485 309.866 207.059 306.242 203.478C302.618 199.897 300.137 195.322 299.113 190.331C298.089 185.34 298.568 180.157 300.489 175.438C302.41 170.719 305.688 166.676 309.908 163.82C314.126 160.964 319.098 159.423 324.194 159.392C327.576 159.372 330.931 160.018 334.064 161.293C337.197 162.569 340.049 164.45 342.453 166.827C344.86 169.205 346.776 172.034 348.089 175.151C349.402 178.269 350.089 181.615 350.109 184.998Z" fill="white"/>
<path d="M238.262 161.25C243.043 146.944 236.441 131.844 223.516 127.524C210.591 123.205 196.238 131.301 191.456 145.608C186.675 159.914 193.277 175.014 206.201 179.334C219.126 183.653 233.48 175.557 238.262 161.25Z" fill="url(#paint3_radial_1_9)"/>
<defs>
<radialGradient id="paint0_radial_1_9" cx="0" cy="0" r="1" gradientUnits="userSpaceOnUse" gradientTransform="translate(256.015 256.182) rotate(-0.29) scale(186.225 186.225)">
<stop offset="0.56" stop-color="#FFED09"/>
<stop offset="0.8" stop-color="#E9F50F"/>
<stop offset="1" stop-color="#D5FD14"/>
</radialGradient>
<radialGradient id="paint1_radial_1_9" cx="0" cy="0" r="1" gradientUnits="userSpaceOnUse" gradientTransform="translate(256.015 256.183) rotate(-0.29) scale(85.0427 85.0427)">
<stop stop-color="#E39E00"/>
<stop offset="0.38" stop-color="#EFB200"/>
<stop offset="1" stop-color="#FFCE00"/>
</radialGradient>
<linearGradient id="paint2_linear_1_9" x1="125.892" y1="242.408" x2="335.237" y2="241.349" gradientUnits="userSpaceOnUse">
<stop stop-color="#3B4D52"/>
<stop offset="0.4" stop-color="#353746"/>
<stop offset="1" stop-color="#2A1030"/>
</linearGradient>
<radialGradient id="paint3_radial_1_9" cx="0" cy="0" r="1" gradientUnits="userSpaceOnUse" gradientTransform="translate(61886 119189) rotate(18.48) scale(91.7724 82.9074)">
<stop offset="0.56" stop-color="#FFED09"/>
<stop offset="0.8" stop-color="#E9F50F"/>
<stop offset="1" stop-color="#D5FD14"/>
</radialGradient>
</defs>
</svg>
