<svg width="152" height="139" viewBox="0 0 152 139" fill="none" xmlns="http://www.w3.org/2000/svg">
<path d="M77.28 135.2C51.15 136.28 20.97 131.23 4.71001 98.35C3.57001 96.05 2.39001 95.21 4.01001 76.23C5.78001 55.41 26.63 21.4 26.63 21.4C34.85 9.88 76.2 3.39 76.2 3.39" fill="#C0C0C0"/>
<path d="M77.28 135.2C51.15 136.28 20.97 131.23 4.71001 98.35C3.57001 96.05 2.39001 95.21 4.01001 76.23C5.78001 55.41 26.63 21.4 26.63 21.4C34.85 9.88 76.2 3.39 76.2 3.39" stroke="black" stroke-width="6" stroke-miterlimit="10"/>
<path d="M78.59 108.99C57.6 109.86 33.36 105.8 20.3 79.39C19.39 77.55 18.44 76.87 19.73 61.62C21.15 44.9 37.9 17.59 37.9 17.59C44.5 8.34 62.16 3.53 77.72 3.12" fill="#C0C0C0"/>
<path d="M78.59 108.99C57.6 109.86 33.36 105.8 20.3 79.39C19.39 77.55 18.44 76.87 19.73 61.62C21.15 44.9 37.9 17.59 37.9 17.59C44.5 8.34 62.16 3.53 77.72 3.12" stroke="black" stroke-width="6" stroke-miterlimit="10"/>
<path d="M74.72 135.2C100.85 136.28 131.03 131.23 147.29 98.35C148.43 96.05 149.61 95.21 147.99 76.23C146.22 55.41 125.37 21.41 125.37 21.41C117.15 9.88999 95.17 3.89999 75.8 3.39999" fill="#C0C0C0"/>
<path d="M74.72 135.2C100.85 136.28 131.03 131.23 147.29 98.35C148.43 96.05 149.61 95.21 147.99 76.23C146.22 55.41 125.37 21.41 125.37 21.41C117.15 9.88999 95.17 3.89999 75.8 3.39999" stroke="black" stroke-width="6" stroke-miterlimit="10"/>
<path d="M73.41 108.99C94.4 109.86 118.64 105.8 131.7 79.39C132.61 77.55 133.56 76.87 132.27 61.62C130.85 44.9 114.1 17.59 114.1 17.59C107.5 8.34 89.84 3.53 74.28 3.12" fill="#C0C0C0"/>
<path d="M73.41 108.99C94.4 109.86 118.64 105.8 131.7 79.39C132.61 77.55 133.56 76.87 132.27 61.62C130.85 44.9 114.1 17.59 114.1 17.59C107.5 8.34 89.84 3.53 74.28 3.12" stroke="black" stroke-width="6" stroke-miterlimit="10"/>
<path d="M72.46 91.83C72.46 84.78 73.74 42.08 75.63 42.08C77.52 42.08 79.55 84.65 79.55 91.58C79.55 99.57 77.52 98.58 75.63 98.58C73.74 98.58 72.46 98.88 72.46 91.83Z" fill="black" stroke="black" stroke-width="3" stroke-miterlimit="10"/>
<path d="M36 76.28C38.57 69.71 55.34 30.43 57.1 31.11C58.86 31.8 45.22 72.17 42.69 78.63C39.78 86.07 38.25 84.41 36.49 83.72C34.73 83.04 33.43 82.85 36 76.28Z" fill="black" stroke="black" stroke-width="3" stroke-miterlimit="10"/>
<path d="M115.86 76.28C113.29 69.71 96.52 30.43 94.76 31.11C93 31.8 106.64 72.17 109.17 78.63C112.08 86.07 113.61 84.41 115.37 83.72C117.13 83.04 118.44 82.85 115.86 76.28Z" fill="black" stroke="black" stroke-width="3" stroke-miterlimit="10"/>
</svg>
