<svg width="32" height="32" viewBox="0 0 32 32" fill="none" xmlns="http://www.w3.org/2000/svg">
<path d="M22.2886 26.3468C22.2886 24.0401 21.006 22.0297 19.1094 20.9816C20.4462 20.5605 21.6645 19.8748 22.7054 18.9859C22.8459 20.9131 23.4847 23.1267 25.7415 22.7643C29.6334 22.1374 28.489 15.8883 28.489 15.8883L31.6953 14.7276C32.3809 13.7946 31.6953 13.1604 31.6953 13.1604L25.8524 8.25315C24.5675 4.05602 20.641 1.00001 15.9919 1.00001C11.3379 1.00001 7.40403 4.06582 6.12645 8.27274L0.30583 13.1628C0.30583 13.1628 -0.382287 13.7971 0.30583 14.73L3.51211 15.8907C3.51211 15.8907 2.3677 22.1399 6.25963 22.7668C8.51142 23.1292 9.15269 20.9253 9.29327 19.0031C10.3686 19.9164 11.6339 20.6143 13.0224 21.0282C11.1702 22.0885 9.92219 24.0719 9.92219 26.3493V29.534C9.92219 30.1391 10.4127 30.6296 11.0179 30.6296H21.1904C21.7955 30.6296 22.2861 30.1391 22.2861 29.534V26.3468H22.2886ZM13.9325 15.7756C13.9325 16.2776 13.5231 16.6841 13.0175 16.6841C12.5119 16.6841 12.1024 16.2776 12.1024 15.7756V8.50292C12.1024 8.00093 12.5119 7.59444 13.0175 7.59444C13.5231 7.59444 13.9325 8.00093 13.9325 8.50292V15.7756ZM18.2832 15.7756V8.50292C18.2832 8.00093 18.6926 7.59444 19.1982 7.59444C19.7038 7.59444 20.1132 8.00093 20.1132 8.50292V15.7781C20.1132 16.2801 19.7038 16.6866 19.1982 16.6866C18.6926 16.6866 18.2832 16.2776 18.2832 15.7756V15.7756Z" fill="white"/>
</svg>
