<svg width="32" height="12" viewBox="0 0 32 12" fill="none" xmlns="http://www.w3.org/2000/svg">
<g clip-path="url(#clip0_2_22)">
<path d="M5.30773 9.43017C5.43497 11.0333 7.53006 12.1869 9.99837 11.9748C12.4667 11.7628 14.3667 10.3378 14.2395 8.73468C14.1122 7.13155 12.0171 5.97797 9.54882 6.19003C7.08051 6.40208 5.21443 7.82704 5.30773 9.43017ZM7.43676 9.26895C7.38587 8.64127 8.39525 8.05607 9.69302 7.95428C10.9908 7.8525 12.068 8.29358 12.1189 8.92126C12.1698 9.54894 11.1604 10.1341 9.86265 10.2274C8.56488 10.3207 7.5131 9.89663 7.46221 9.26895H7.43676Z" fill="white"/>
<path d="M1.07327 5.76082L5.70221 4.65805L4.62893 0.152903L0 1.25567L1.07327 5.76082Z" fill="white"/>
<path d="M6.91856 9.77196L7.5869 9.61273L5.29683 1.23978e-05L4.62848 0.159235L6.91856 9.77196Z" fill="white"/>
<path d="M25.8345 8.62442C26.2247 8.36148 26.53 8.62441 27.3613 8.08155C27.5304 7.95779 27.6767 7.80567 27.7939 7.63197C27.8519 7.75104 27.9326 7.85764 28.0314 7.94581C28.2095 8.09001 29.1765 8.36142 28.6845 9.52348C28.4582 9.5235 28.235 9.47149 28.032 9.37148C27.8291 9.27147 27.6518 9.12619 27.514 8.94675C27.5649 9.00613 28.1841 9.79496 27.7684 10.4226C27.7684 10.4226 27.2171 10.6517 26.5555 9.68469C27.2171 10.6517 26.81 11.0842 26.81 11.0842C26.1059 11.2623 25.5631 10.3802 25.5207 10.3124C25.6475 10.5091 25.7266 10.7326 25.7516 10.9653C25.7767 11.198 25.7469 11.4333 25.6649 11.6525C24.401 11.6525 24.4943 10.694 24.418 10.482C24.373 10.3541 24.3039 10.236 24.2144 10.1342C24.4202 10.0929 24.616 10.0123 24.7912 9.89675C25.6055 9.28603 25.4443 8.88737 25.8345 8.62442Z" fill="#848484"/>
<path d="M21.9751 3.0008C22.5604 2.59366 28.0483 3.849 28.4385 4.89231C28.5233 5.13829 28.2774 5.49449 27.9974 5.79137C27.925 5.56911 27.8222 5.3579 27.6921 5.16369C27.545 4.90243 27.3417 4.67706 27.0969 4.50382C26.8522 4.33058 26.5721 4.21385 26.2768 4.16192C25.9814 4.11 25.6783 4.12418 25.3891 4.20355C25.1 4.28292 24.832 4.42541 24.6046 4.62082C24.0193 5.10431 24.0363 5.46911 23.7564 5.64723C23.4765 5.82536 23.1711 5.64721 22.5095 6.04587C22.2466 6.18716 22.0183 6.38497 21.841 6.62509C21.6638 6.8652 21.542 7.14163 21.4844 7.43447C21.4268 7.72732 21.4348 8.02936 21.508 8.31872C21.5811 8.60809 21.7175 8.87759 21.9073 9.10792C22.0414 9.30383 22.2044 9.47827 22.3908 9.62532C22.0091 9.778 21.5849 9.88825 21.3898 9.71861C20.5755 8.9637 21.4238 3.40795 21.9751 3.0008Z" fill="#848484"/>
<path d="M13.8831 4.73953C13.7535 4.60515 13.6812 4.42578 13.6812 4.23911C13.6812 4.05244 13.7535 3.87307 13.8831 3.73869C13.9368 3.66156 14.0058 3.59623 14.0858 3.54683C14.1658 3.49743 14.255 3.46498 14.3481 3.45147C14.4411 3.43795 14.5359 3.44365 14.6266 3.46824C14.7174 3.49284 14.8021 3.53581 14.8755 3.59446C15.0315 3.7278 15.1293 3.91669 15.1483 4.12097C15.1673 4.32525 15.106 4.52888 14.9773 4.68869C14.8304 4.82514 14.6399 4.9051 14.4395 4.91441C14.2392 4.92373 14.0421 4.86176 13.8831 4.73953Z" fill="#FF4B1F"/>
<path d="M17.5983 4.01857C17.5832 4.10498 17.6022 4.1939 17.6512 4.26665C17.7002 4.3394 17.7755 4.39029 17.8613 4.40871C17.9059 4.42432 17.9535 4.42962 18.0005 4.42424C18.0475 4.41887 18.0927 4.40304 18.1326 4.37775C18.1726 4.35247 18.2064 4.31841 18.2313 4.27825C18.2563 4.23809 18.2719 4.19285 18.2769 4.14582C18.2769 3.94225 18.1751 3.66228 17.9461 3.66228C17.8545 3.66845 17.7683 3.70827 17.7042 3.774C17.64 3.83973 17.6023 3.92679 17.5983 4.01857Z" fill="#FF4B1F"/>
<path d="M14.0528 9.8713C14.1518 9.96372 14.2821 10.0151 14.4175 10.0151C14.553 10.0151 14.6833 9.96372 14.7823 9.8713C14.8356 9.8217 14.877 9.76063 14.9034 9.69279C14.9298 9.62495 14.9405 9.55208 14.9348 9.4795C14.9291 9.40692 14.9071 9.33653 14.8704 9.27366C14.8337 9.21078 14.7833 9.15704 14.7229 9.11638C14.4685 8.9128 14.0019 8.87883 13.8323 9.17571C13.7879 9.2998 13.7854 9.43504 13.8252 9.56067C13.8651 9.68631 13.945 9.79547 14.0528 9.8713Z" fill="#FF4B1F"/>
<path d="M20.7368 8.40385C19.7274 7.93733 19.4644 7.21632 19.7443 6.57167C20.2024 5.52837 20.0582 4.34929 18.9725 4.3917C18.5144 4.3917 18.2685 4.85829 18.4551 5.41811C18.718 6.22392 17.6662 6.00332 17.6068 5.2484C17.6162 4.97813 17.5193 4.71497 17.337 4.51522C17.1547 4.31547 16.9014 4.195 16.6314 4.17964C16.2073 4.12875 15.7832 4.5105 15.9444 5.18907C16.0292 5.50291 16.4787 5.69804 16.1394 5.96947C15.8001 6.2409 15.5372 5.47743 14.8247 5.46895C14.7185 5.46465 14.6127 5.48506 14.5157 5.52859C14.4186 5.57212 14.333 5.63761 14.2656 5.71983C14.1982 5.80205 14.1508 5.89884 14.1271 6.0025C14.1034 6.10616 14.1041 6.21382 14.1292 6.31717C14.3073 6.80065 14.7229 6.8431 15.1216 6.88551C15.5202 6.92792 15.6305 7.61502 15.0792 7.46234C14.5278 7.30966 13.8662 7.13993 13.9341 8.0136C13.9341 8.35288 14.4006 8.58196 15.147 8.39536C15.41 8.33598 15.5796 8.29352 15.7662 8.55647C15.9528 8.81942 15.7662 8.95513 15.4609 9.40469C15.3894 9.48714 15.3404 9.58659 15.3185 9.69346C15.2965 9.80034 15.3025 9.91104 15.3357 10.015C15.3689 10.1189 15.4283 10.2125 15.5082 10.2869C15.588 10.3612 15.6856 10.4138 15.7917 10.4395C15.9123 10.4919 16.0435 10.5155 16.1749 10.5084C16.3062 10.5014 16.4341 10.4639 16.5485 10.3989C16.6629 10.3339 16.7605 10.2432 16.8338 10.1339C16.9071 10.0247 16.9539 9.89993 16.9707 9.76946C17.0979 9.31991 17.4118 8.98056 17.6323 9.27743C17.8528 9.57431 17.2167 9.98998 17.293 10.3886C17.3354 10.4987 17.4044 10.5965 17.4938 10.6733C17.5833 10.7501 17.6904 10.8035 17.8055 10.8287C17.9207 10.8539 18.0403 10.8501 18.1537 10.8177C18.267 10.7853 18.3706 10.7254 18.4551 10.6432C19.1336 10.1512 18.6756 9.61681 19.0912 8.94672C19.5069 8.27663 20.2533 8.70922 20.5671 8.73466C20.881 8.76011 21.0082 8.53108 20.7368 8.40385Z" fill="#FF4B1F"/>
<path d="M26.9054 5.54836C26.7023 5.21684 26.3767 4.97871 25.9993 4.88559C25.6218 4.79246 25.2228 4.85184 24.8889 5.05087C24.6635 5.20647 24.4883 5.42421 24.3844 5.6776C24.2805 5.93097 24.2525 6.20907 24.3038 6.47808C24.0765 6.32682 23.8104 6.24434 23.5374 6.24052C23.2644 6.23669 22.9961 6.31167 22.7646 6.45648C22.4583 6.68959 22.2516 7.03005 22.1861 7.40936C22.1206 7.78868 22.2012 8.17872 22.4116 8.50105C22.622 8.82338 22.9467 9.0541 23.3203 9.14677C23.6939 9.23944 24.0887 9.18718 24.4254 9.00055C24.6507 8.84495 24.8261 8.62723 24.9299 8.37385C25.0338 8.12047 25.0618 7.84234 25.0105 7.57334C25.2379 7.72697 25.5051 7.81107 25.7795 7.81535C26.0539 7.81962 26.3236 7.74387 26.5556 7.59739C26.8734 7.37182 27.0888 7.02939 27.1544 6.64523C27.2199 6.26107 27.1304 5.86657 26.9054 5.54836ZM24.2361 6.93365C24.3367 7.06938 24.3941 7.23219 24.401 7.40098C24.4079 7.56976 24.3638 7.73672 24.2746 7.88017C24.1854 8.02363 24.0552 8.13696 23.9008 8.20546C23.7463 8.27395 23.5749 8.29444 23.4087 8.26427C23.2425 8.23411 23.0892 8.15468 22.9687 8.03628C22.8482 7.91789 22.766 7.76602 22.733 7.60037C22.6999 7.43471 22.7173 7.26292 22.7831 7.10732C22.8488 6.95172 22.9599 6.81949 23.1017 6.72777C23.2796 6.605 23.4988 6.55774 23.7115 6.59634C23.9241 6.63493 24.1127 6.75622 24.2361 6.93365ZM25.9248 6.7784C25.7901 6.85715 25.6353 6.89468 25.4796 6.88632C25.3238 6.87797 25.174 6.82412 25.0485 6.73142C24.9231 6.63872 24.8276 6.51125 24.7739 6.36481C24.7202 6.21837 24.7106 6.0594 24.7464 5.90757C24.7821 5.75575 24.8617 5.61776 24.9751 5.51068C25.0885 5.4036 25.2308 5.33213 25.3844 5.30515C25.5381 5.27818 25.6962 5.29687 25.8393 5.3589C25.9824 5.42094 26.1042 5.5236 26.1896 5.65417C26.2954 5.8413 26.3238 6.0624 26.2687 6.27019C26.2136 6.47799 26.1094 6.66825 25.9248 6.7784Z" fill="#848484"/>
</g>
<defs>
<clipPath id="clip0_2_22">
<rect width="32" height="12" fill="white"/>
</clipPath>
</defs>
</svg>
