<?xml version="1.0" encoding="UTF-8" standalone="no"?>
<svg
   version="1.1"
   width="31pt"
   height="28pt"
   viewBox="0 0 31 28"
   id="svg6"
   sodipodi:docname="TabBarMe.svg"
   inkscape:version="1.2 (dc2aeda, 2022-05-15)"
   inkscape:export-filename="TabBarMe.svg"
   inkscape:export-xdpi="5.8064513"
   inkscape:export-ydpi="5.8064513"
   xmlns:inkscape="http://www.inkscape.org/namespaces/inkscape"
   xmlns:sodipodi="http://sodipodi.sourceforge.net/DTD/sodipodi-0.dtd"
   xmlns="http://www.w3.org/2000/svg"
   xmlns:svg="http://www.w3.org/2000/svg">
  <defs
     id="defs10" />
  <sodipodi:namedview
     id="namedview8"
     pagecolor="#505050"
     bordercolor="#ffffff"
     borderopacity="1"
     inkscape:showpageshadow="0"
     inkscape:pageopacity="0"
     inkscape:pagecheckerboard="1"
     inkscape:deskcolor="#505050"
     inkscape:document-units="pt"
     showgrid="false"
     inkscape:zoom="1.0607143"
     inkscape:cx="408.21549"
     inkscape:cy="373.33333"
     inkscape:window-width="1390"
     inkscape:window-height="1052"
     inkscape:window-x="0"
     inkscape:window-y="0"
     inkscape:window-maximized="0"
     inkscape:current-layer="g4" />
  <g
     enable-background="new"
     id="g4">
    <path
       transform="matrix(1,0,0,-1,2,26.5)"
       d="m 18.80597,3.613636 c 0,1.946281 -1.082123,3.642561 -2.68241,4.526859 1.127901,0.355372 2.155903,0.933886 3.034085,1.683886 0.118615,-1.626034 0.657608,-3.493801 2.56172,-3.188017 3.283813,0.528925 2.31822,5.801653 2.31822,5.801653 l 2.705297,0.979338 c 0.578518,0.78719 0,1.322314 0,1.322314 l -4.929884,4.140497 C 20.728798,22.421488 17.415856,25 13.493177,25 9.566337,25 6.247147,22.413224 5.169191,18.863636 L 0.258044,14.737603 c 0,0 -0.580599,-0.535124 0,-1.322314 L 2.963339,12.43595 c 0,0 -0.965592,-5.272729 2.318221,-5.801654 C 7.18151,6.328512 7.72258,8.188017 7.841197,9.809917 8.748511,9.039256 9.816062,8.450413 10.987663,8.101238 9.424834,7.20661 8.371848,5.533058 8.371848,3.61157 V 0.924465 C 8.371848,0.413897 8.785746,0 9.296314,0 h 8.583106 c 0.510566,0 0.924465,0.413898 0.924465,0.924465 v 2.689171 z m -7.050419,8.919421 c 0,-0.423553 -0.34545,-0.766529 -0.772054,-0.766529 -0.426605,0 -0.772055,0.342976 -0.772055,0.766529 v 6.136366 c 0,0.423553 0.34545,0.766529 0.772055,0.766529 0.426604,0 0.772054,-0.342976 0.772054,-0.766529 z m 3.670868,0 v 6.136366 c 0,0.423553 0.34545,0.766529 0.772054,0.766529 0.426606,0 0.772055,-0.342976 0.772055,-0.766529 v -6.138431 c 0,-0.423554 -0.345449,-0.766529 -0.772055,-0.766529 -0.426604,0 -0.772054,0.345041 -0.772054,0.768594 z"
       fill="#959595"
       id="path2"
       style="fill:#ffffff;fill-opacity:1" />
  </g>
</svg>
