<svg width="32" height="32" viewBox="0 0 32 32" fill="none" xmlns="http://www.w3.org/2000/svg">
<path d="M25.8953 3L32 9.1331L25.8953 15.3514L25.8953 12.9947L1.51267e-06 12.0293L1.56107e-06 10.9219L3.83319 10.9219L3.83319 9.87134L1.60699e-06 9.87134L1.65912e-06 8.67879L3.83319 8.67879L3.83319 7.65661L1.7038e-06 7.65661L1.75469e-06 6.49246L25.8953 5.69743L25.8953 3Z" fill="white"/>
<path d="M6.1047 29.3514L7.31364e-08 23.2183L6.1047 17L6.1047 19.3567L32 20.3221L32 21.4295L28.1668 21.4295L28.1668 22.48L32 22.48L32 23.6726L28.1668 23.6726L28.1668 24.6948L32 24.6948L32 25.8589L6.1047 26.654L6.1047 29.3514Z" fill="white"/>
</svg>
