<svg width="1024" height="279" viewBox="0 0 1024 279" fill="none" xmlns="http://www.w3.org/2000/svg">
<g clip-path="url(#clip0_1_38)">
<path fill-rule="evenodd" clip-rule="evenodd" d="M174.664 35.6323C192.333 48.3719 231.041 100.141 244.409 134.885C253.36 157.006 245.572 166.618 237.435 171.251C226.856 174.905 215.35 174.905 204.77 171.251C220.464 189.318 207.909 227.884 203.375 235.643C201.512 239.154 198.444 241.881 194.732 243.327C191.019 244.772 186.909 244.84 183.149 243.519C177.163 238.693 172.753 232.203 170.479 224.873C171.515 229.241 171.615 233.779 170.774 238.188C169.933 242.598 168.169 246.782 165.597 250.468C163.295 252.704 160.209 253.954 156.995 253.954C153.781 253.954 150.694 252.704 148.393 250.468C143.426 242.187 140.666 232.778 140.372 223.135C140.14 232.772 137.417 242.186 132.468 250.468C130.166 252.704 127.08 253.954 123.866 253.954C120.652 253.954 117.565 252.704 115.264 250.468C112.692 246.782 110.927 242.598 110.086 238.188C109.245 233.779 109.346 229.241 110.381 224.873C108.107 232.203 103.697 238.693 97.711 243.519C93.9817 244.994 89.829 245.001 86.0948 243.538C82.3605 242.076 79.3242 239.254 77.6011 235.643C72.9514 225.799 60.3972 188.855 76.0899 171.251C65.4722 174.913 53.927 174.913 43.3093 171.251C34.4749 166.618 27.3842 157.006 35.7536 134.885C48.7729 99.7932 87.4816 48.3719 105.5 35.6323C114.922 26.9805 127.268 22.1777 140.081 22.1777C152.896 22.1777 165.241 26.9805 174.664 35.6323V35.6323ZM155.367 87.2879C161.67 85.2817 168.347 84.7271 174.896 85.6664C180.856 86.7831 186.517 89.1302 191.512 92.5563C196.508 95.9823 200.729 100.412 203.904 105.56C207.078 110.708 209.137 116.462 209.947 122.45C210.757 128.438 210.3 134.529 208.607 140.331C207.682 145.49 205.745 150.417 202.905 154.828C200.067 159.24 196.382 163.05 192.063 166.041C187.744 169.031 182.875 171.144 177.735 172.257C172.595 173.37 167.285 173.462 162.11 172.527C153.286 171.988 144.844 168.752 137.932 163.262C131.062 168.75 122.657 171.987 113.869 172.527C108.692 173.478 103.377 173.397 98.2312 172.291C93.0855 171.184 88.2105 169.074 83.8877 166.081C79.5649 163.088 75.8798 159.271 73.0452 154.851C70.2105 150.432 68.2823 145.497 67.3719 140.331C64.4006 131.204 64.6078 121.344 67.9601 112.348C71.3124 103.352 77.6134 95.7471 85.8434 90.7629C94.0735 85.7788 103.751 83.7076 113.31 84.8846C122.868 86.0615 131.748 90.4174 138.512 97.2474C143.302 92.6995 149.065 89.2942 155.367 87.2879V87.2879Z" fill="#EAFF3E"/>
<path fill-rule="evenodd" clip-rule="evenodd" d="M174.78 96.8987C170.872 96.0465 166.834 95.9694 162.896 96.6725C158.958 97.3753 155.198 98.8438 151.83 100.995C148.462 103.146 145.552 105.936 143.267 109.208C140.982 112.48 139.367 116.168 138.512 120.062C137.658 116.168 136.043 112.48 133.757 109.208C131.472 105.936 128.563 103.146 125.194 100.995C121.827 98.8438 118.067 97.3753 114.129 96.6725C110.19 95.9694 106.153 96.0465 102.245 96.8987C97.8525 97.6311 93.6593 99.2591 89.9287 101.682C86.198 104.104 83.0103 107.268 80.5653 110.977C78.1204 114.685 76.4712 118.857 75.721 123.23C74.9708 127.605 75.1359 132.084 76.206 136.392C76.7315 140.36 78.0707 144.177 80.1404 147.609C82.21 151.04 84.9658 154.009 88.2365 156.335C91.5072 158.659 95.2229 160.289 99.1524 161.121C103.082 161.954 107.142 161.972 111.079 161.176C117.46 160.628 123.506 158.098 128.367 153.942C133.226 149.786 136.653 144.214 138.163 138.013C139.697 144.223 143.145 149.798 148.025 153.953C152.904 158.108 158.968 160.634 165.364 161.176C169.303 161.99 173.368 161.985 177.305 161.159C181.241 160.334 184.964 158.706 188.238 156.379C191.513 154.051 194.27 151.074 196.335 147.635C198.4 144.195 199.728 140.367 200.237 136.392C201.311 132.126 201.497 127.687 200.783 123.346C200.068 119.007 198.47 114.859 196.084 111.158C193.699 107.458 190.578 104.283 186.913 101.831C183.25 99.3787 179.12 97.6998 174.78 96.8987V96.8987ZM104.685 109.987C106.922 109.557 109.225 109.59 111.449 110.084C113.673 110.578 115.771 111.522 117.612 112.858C119.455 114.193 121.001 115.892 122.157 117.849C123.313 119.806 124.053 121.978 124.33 124.231C124.944 126.689 124.992 129.255 124.47 131.735C123.947 134.214 122.868 136.545 121.314 138.55C119.759 140.555 117.77 142.184 115.494 143.314C113.218 144.445 110.715 145.048 108.172 145.078C105.893 145.049 103.643 144.563 101.556 143.65C99.4698 142.736 97.5891 141.413 96.0266 139.759C94.4643 138.105 93.2525 136.155 92.4633 134.024C91.6742 131.893 91.3238 129.627 91.4334 127.359C90.9637 123.318 92.0808 119.254 94.5508 116.016C97.0209 112.778 100.652 110.617 104.685 109.987ZM166.601 110.955C168.72 110.493 170.913 110.478 173.038 110.909C176.876 111.485 180.34 113.52 182.703 116.587C185.065 119.654 186.143 123.514 185.708 127.356C185.802 129.508 185.461 131.657 184.706 133.676C183.95 135.694 182.796 137.541 181.31 139.107C179.825 140.673 178.04 141.926 176.06 142.792C174.08 143.658 171.946 144.12 169.783 144.149C167.375 144.132 165.002 143.571 162.842 142.508C160.683 141.445 158.794 139.908 157.317 138.013C155.84 136.118 154.813 133.913 154.315 131.566C153.817 129.219 153.86 126.789 154.439 124.461C154.671 122.312 155.35 120.235 156.434 118.363C157.518 116.49 158.981 114.865 160.733 113.589C162.483 112.314 164.483 111.416 166.601 110.955V110.955Z" fill="#EAFF3E"/>
</g>
<defs>
<clipPath id="clip0_1_38">
<rect width="1024" height="278.84" fill="white"/>
</clipPath>
</defs>
</svg>
