<svg width="1024" height="1024" viewBox="0 0 1024 1024" fill="none" xmlns="http://www.w3.org/2000/svg">
<path fill-rule="evenodd" clip-rule="evenodd" d="M663.892 59.4432C741.667 115.727 912.052 344.445 970.896 497.947C1010.3 595.677 976.011 638.144 940.196 658.612C893.629 674.755 842.982 674.755 796.414 658.612C865.493 738.435 810.23 908.82 790.274 943.1C782.074 958.611 768.57 970.658 752.227 977.048C735.884 983.433 717.792 983.732 701.244 977.895C674.894 956.576 655.483 927.9 645.472 895.517C650.031 914.817 650.474 934.863 646.771 954.343C643.068 973.828 635.302 992.313 623.981 1008.6C613.851 1018.47 600.265 1024 586.117 1024C571.97 1024 558.383 1018.47 548.254 1008.6C526.394 972.009 514.241 930.443 512.951 887.841C511.927 930.415 499.942 972.005 478.155 1008.6C468.026 1018.47 454.439 1024 440.292 1024C426.144 1024 412.558 1018.47 402.428 1008.6C391.107 992.313 383.341 973.828 379.638 954.343C375.935 934.863 376.378 914.817 380.936 895.517C370.926 927.9 351.515 956.576 325.165 977.895C308.749 984.412 290.472 984.445 274.033 977.981C257.596 971.522 244.231 959.054 236.646 943.1C216.179 899.609 160.919 736.387 229.994 658.612C183.258 674.791 132.439 674.791 85.7021 658.612C46.8151 638.144 15.6036 595.677 52.4439 497.947C109.751 342.91 280.138 115.727 359.449 59.4432C400.925 21.2191 455.267 0 511.668 0C568.074 0 622.416 21.2191 663.892 59.4432ZM578.953 287.66C606.696 278.797 636.089 276.346 664.916 280.496C691.151 285.43 716.067 295.799 738.054 310.936C760.046 326.072 778.625 345.641 792.601 368.386C806.572 391.132 815.637 416.551 819.2 443.007C822.768 469.463 820.757 496.374 813.302 522.007C809.231 544.801 800.703 566.567 788.206 586.056C775.713 605.549 759.493 622.379 740.479 635.593C721.47 648.806 700.035 658.141 677.413 663.056C654.787 667.976 631.415 668.381 608.633 664.248C569.791 661.868 532.632 647.573 502.207 623.317C471.97 647.565 434.971 661.864 396.288 664.248C373.502 668.451 350.106 668.094 327.455 663.208C304.804 658.317 283.345 648.995 264.318 635.773C245.29 622.547 229.069 605.684 216.592 586.158C204.115 566.632 195.627 544.829 191.62 522.007C178.541 481.681 179.453 438.12 194.209 398.377C208.965 358.633 236.7 325.033 272.927 303.013C309.154 280.993 351.752 271.842 393.827 277.042C435.901 282.242 474.989 301.486 504.763 331.663C525.845 311.569 551.211 296.524 578.953 287.66Z" fill="white"/>
<path fill-rule="evenodd" clip-rule="evenodd" d="M664.408 330.122C647.205 326.356 629.428 326.015 612.094 329.12C594.764 332.225 578.212 338.714 563.385 348.217C548.561 357.72 535.753 370.049 525.693 384.503C515.637 398.957 508.523 415.252 504.763 432.456C501.006 415.252 493.892 398.957 483.836 384.503C473.776 370.049 460.968 357.72 446.145 348.217C431.317 338.714 414.769 332.225 397.435 329.12C380.101 326.015 362.324 326.356 345.121 330.122C325.788 333.356 307.331 340.549 290.91 351.253C274.49 361.957 260.459 375.937 249.696 392.32C238.935 408.703 231.675 427.135 228.373 446.456C225.071 465.781 225.798 485.573 230.508 504.603C232.821 522.133 238.716 539.001 247.826 554.16C256.936 569.319 269.066 582.439 283.464 592.712C297.861 602.98 314.217 610.181 331.514 613.859C348.811 617.538 366.678 617.619 384.008 614.101C412.095 611.68 438.715 600.502 460.104 582.14C481.497 563.778 496.579 539.161 503.231 511.767C509.977 539.202 525.161 563.831 546.636 582.189C568.115 600.547 594.809 611.709 622.961 614.101C640.299 617.697 658.191 617.677 675.521 614.027C692.847 610.382 709.231 603.189 723.649 592.908C738.062 582.623 750.195 569.471 759.284 554.275C768.373 539.079 774.222 522.166 776.462 504.603C781.189 485.757 782.008 466.141 778.863 446.968C775.721 427.794 768.68 409.468 758.182 393.12C747.684 376.771 733.946 362.747 717.816 351.912C701.686 341.077 683.512 333.662 664.408 330.122ZM355.865 387.942C365.712 386.044 375.845 386.191 385.634 388.373C395.424 390.556 404.66 394.726 412.766 400.628C420.876 406.53 427.684 414.036 432.771 422.679C437.858 431.325 441.115 440.922 442.335 450.875C445.039 461.738 445.248 473.072 442.95 484.028C440.648 494.981 435.901 505.278 429.06 514.138C422.216 522.998 413.459 530.194 403.44 535.187C393.425 540.185 382.407 542.847 371.212 542.978C361.181 542.851 351.277 540.705 342.09 536.67C332.907 532.632 324.629 526.787 317.751 519.479C310.874 512.172 305.541 503.558 302.068 494.141C298.59 484.729 297.05 474.714 297.534 464.695C295.465 446.845 300.38 428.888 311.255 414.581C322.126 400.276 338.113 390.73 355.865 387.942ZM628.404 392.221C637.731 390.183 647.381 390.114 656.736 392.021C673.628 394.562 688.878 403.553 699.277 417.104C709.677 430.653 714.42 447.709 712.508 464.683C712.921 474.19 711.418 483.684 708.096 492.605C704.77 501.522 699.687 509.682 693.15 516.6C686.613 523.518 678.752 529.056 670.04 532.881C661.324 536.707 651.928 538.747 642.409 538.874C631.808 538.8 621.363 536.322 611.857 531.624C602.354 526.93 594.039 520.139 587.535 511.767C581.034 503.394 576.516 493.654 574.321 483.283C572.129 472.912 572.318 462.176 574.87 451.891C575.89 442.397 578.88 433.222 583.647 424.952C588.419 416.678 594.862 409.496 602.571 403.861C610.276 398.225 619.078 394.26 628.404 392.221Z" fill="white"/>
</svg>
