<svg width="1024" height="279" viewBox="0 0 1024 279" fill="none" xmlns="http://www.w3.org/2000/svg">
<g clip-path="url(#clip0_1_38)">
<path fill-rule="evenodd" clip-rule="evenodd" d="M419.84 30.9962C437.509 43.7355 476.217 95.5036 489.585 130.247C498.535 152.368 490.747 161.98 482.61 166.612C472.031 170.266 460.525 170.266 449.946 166.612C465.639 184.68 453.085 223.245 448.551 231.003C446.688 234.514 443.621 237.241 439.908 238.687C436.195 240.133 432.085 240.2 428.326 238.879C422.34 234.054 417.93 227.563 415.656 220.233C416.691 224.602 416.792 229.139 415.951 233.548C415.109 237.958 413.345 242.142 410.773 245.829C408.472 248.064 405.385 249.314 402.171 249.314C398.957 249.314 395.871 248.064 393.57 245.829C388.603 237.547 385.843 228.139 385.55 218.496C385.317 228.132 382.594 237.546 377.645 245.829C375.344 248.064 372.257 249.314 369.043 249.314C365.829 249.314 362.742 248.064 360.441 245.829C357.869 242.142 356.105 237.958 355.264 233.548C354.423 229.139 354.523 224.602 355.559 220.233C353.285 227.563 348.875 234.054 342.889 238.879C339.16 240.354 335.007 240.361 331.273 238.899C327.539 237.437 324.502 234.614 322.779 231.003C318.13 221.16 305.576 184.216 321.268 166.612C310.651 170.274 299.106 170.274 288.488 166.612C279.654 161.98 272.563 152.368 280.933 130.247C293.952 95.156 332.66 43.7355 350.677 30.9962C360.1 22.3445 372.445 17.5418 385.258 17.5418C398.072 17.5418 410.418 22.3445 419.84 30.9962V30.9962ZM400.544 82.6509C406.846 80.6448 413.524 80.0902 420.073 81.0294C426.033 82.1461 431.693 84.4931 436.688 87.9192C441.684 91.3452 445.905 95.7743 449.08 100.922C452.254 106.071 454.313 111.824 455.123 117.812C455.933 123.8 455.476 129.891 453.783 135.693C452.858 140.852 450.92 145.779 448.081 150.19C445.243 154.602 441.558 158.411 437.239 161.402C432.92 164.393 428.051 166.506 422.912 167.618C417.772 168.732 412.462 168.823 407.286 167.888C398.462 167.349 390.021 164.114 383.109 158.624C376.24 164.112 367.834 167.348 359.046 167.888C353.87 168.839 348.555 168.759 343.409 167.653C338.263 166.546 333.389 164.436 329.066 161.443C324.743 158.449 321.058 154.633 318.223 150.213C315.389 145.794 313.461 140.859 312.55 135.693C309.579 126.566 309.786 116.706 313.138 107.711C316.491 98.7151 322.792 91.11 331.021 86.1258C339.251 81.1418 348.929 79.0707 358.487 80.2476C368.045 81.4245 376.925 85.7803 383.689 92.6102C388.479 88.0624 394.242 84.6571 400.544 82.6509V82.6509Z" fill="#ADADAD"/>
<path fill-rule="evenodd" clip-rule="evenodd" d="M419.956 92.2616C416.048 91.4094 412.011 91.3323 408.073 92.0354C404.135 92.7381 400.375 94.2066 397.007 96.3575C393.639 98.5083 390.729 101.299 388.444 104.571C386.159 107.842 384.544 111.53 383.689 115.424C382.835 111.53 381.22 107.842 378.934 104.571C376.649 101.299 373.74 98.5083 370.372 96.3575C367.004 94.2066 363.244 92.7381 359.306 92.0354C355.368 91.3323 351.331 91.4094 347.422 92.2616C343.03 92.994 338.837 94.6219 335.107 97.0444C331.376 99.4669 328.188 102.631 325.743 106.339C323.299 110.048 321.649 114.22 320.899 118.593C320.149 122.967 320.314 127.447 321.384 131.754C321.91 135.722 323.249 139.539 325.318 142.971C327.388 146.402 330.144 149.371 333.414 151.696C336.685 154.021 340.401 155.65 344.33 156.483C348.26 157.315 352.32 157.334 356.257 156.538C362.637 155.99 368.684 153.46 373.544 149.304C378.403 145.147 381.83 139.576 383.34 133.375C384.874 139.585 388.322 145.159 393.202 149.315C398.081 153.47 404.145 155.996 410.541 156.538C414.479 157.352 418.545 157.347 422.481 156.521C426.417 155.696 430.14 154.068 433.415 151.741C436.689 149.413 439.446 146.436 441.511 142.997C443.576 139.557 444.904 135.729 445.413 131.754C446.487 127.488 446.673 123.048 445.959 118.709C445.244 114.369 443.646 110.221 441.26 106.52C438.875 102.82 435.754 99.6459 432.09 97.1937C428.426 94.7415 424.296 93.0626 419.956 92.2616V92.2616ZM349.863 105.349C352.1 104.919 354.402 104.953 356.626 105.447C358.85 105.941 360.948 106.885 362.79 108.221C364.632 109.556 366.179 111.255 367.335 113.211C368.49 115.168 369.23 117.34 369.507 119.593C370.121 122.052 370.169 124.617 369.647 127.097C369.124 129.576 368.045 131.907 366.492 133.912C364.937 135.917 362.947 137.546 360.671 138.676C358.396 139.807 355.893 140.41 353.35 140.44C351.071 140.411 348.821 139.925 346.734 139.012C344.648 138.098 342.767 136.775 341.204 135.121C339.642 133.467 338.43 131.517 337.641 129.386C336.852 127.256 336.502 124.989 336.611 122.721C336.142 118.681 337.259 114.617 339.729 111.378C342.199 108.141 345.83 105.98 349.863 105.349ZM411.778 106.317C413.897 105.855 416.089 105.841 418.215 106.272C422.052 106.847 425.516 108.882 427.879 111.949C430.242 115.016 431.319 118.876 430.884 122.718C430.978 124.87 430.637 127.019 429.882 129.038C429.127 131.057 427.972 132.903 426.487 134.469C425.002 136.035 423.216 137.288 421.237 138.154C419.257 139.02 417.122 139.482 414.96 139.511C412.551 139.494 410.179 138.933 408.019 137.87C405.86 136.807 403.971 135.27 402.493 133.375C401.017 131.48 399.99 129.276 399.492 126.928C398.994 124.581 399.036 122.151 399.616 119.823C399.848 117.674 400.527 115.597 401.61 113.726C402.694 111.853 404.158 110.228 405.909 108.952C407.66 107.676 409.659 106.779 411.778 106.317V106.317Z" fill="#ADADAD"/>
<path fill-rule="evenodd" clip-rule="evenodd" d="M916.403 31.9609C934.071 44.6872 972.779 96.4023 986.147 131.11C995.098 153.208 987.309 162.81 979.173 167.438C968.594 171.088 957.088 171.088 946.509 167.438C962.202 185.487 949.647 224.013 945.114 231.764C943.251 235.271 940.183 237.995 936.47 239.439C932.758 240.883 928.647 240.951 924.888 239.631C918.902 234.811 914.492 228.327 912.218 221.005C913.254 225.368 913.354 229.901 912.513 234.306C911.672 238.711 909.908 242.891 907.336 246.573C905.034 248.806 901.948 250.056 898.734 250.056C895.52 250.056 892.433 248.806 890.132 246.573C885.166 238.3 882.405 228.902 882.112 219.269C881.879 228.895 879.157 238.299 874.207 246.573C871.906 248.806 868.82 250.056 865.606 250.056C862.392 250.056 859.305 248.806 857.004 246.573C854.432 242.891 852.668 238.711 851.826 234.306C850.985 229.901 851.086 225.368 852.121 221.005C849.847 228.327 845.437 234.811 839.451 239.631C835.722 241.105 831.57 241.112 827.835 239.651C824.101 238.19 821.065 235.371 819.342 231.764C814.692 221.93 802.138 185.024 817.831 167.438C807.213 171.097 795.668 171.097 785.051 167.438C776.216 162.81 769.126 153.208 777.495 131.11C790.514 96.055 829.222 44.6872 847.24 31.9609C856.662 23.318 869.008 18.5203 881.821 18.5203C894.635 18.5203 906.98 23.318 916.403 31.9609V31.9609ZM897.106 83.5627C903.409 81.5587 910.086 81.0047 916.635 81.9429C922.595 83.0585 928.256 85.4031 933.251 88.8256C938.247 92.2481 942.468 96.6728 945.642 101.816C948.816 106.958 950.876 112.706 951.685 118.688C952.496 124.67 952.039 130.755 950.345 136.551C949.42 141.705 947.483 146.626 944.644 151.033C941.806 155.44 938.121 159.246 933.802 162.233C929.483 165.221 924.614 167.332 919.474 168.443C914.334 169.555 909.025 169.647 903.849 168.713C895.025 168.175 886.583 164.942 879.671 159.458C872.802 164.941 864.397 168.174 855.609 168.713C850.432 169.663 845.117 169.582 839.972 168.477C834.826 167.372 829.951 165.264 825.628 162.274C821.306 159.284 817.621 155.471 814.786 151.056C811.951 146.641 810.023 141.711 809.113 136.551C806.142 127.433 806.349 117.583 809.701 108.597C813.053 99.6105 819.354 92.0131 827.584 87.0341C835.814 82.0552 845.491 79.9862 855.05 81.1619C864.608 82.3376 873.488 86.6889 880.252 93.5118C885.041 88.9687 890.804 85.5669 897.106 83.5627V83.5627Z" fill="#ADADAD"/>
<path fill-rule="evenodd" clip-rule="evenodd" d="M916.519 93.1636C912.611 92.3123 908.573 92.2352 904.635 92.9376C900.697 93.6396 896.937 95.1066 893.57 97.2553C890.201 99.4039 887.291 102.192 885.007 105.46C882.722 108.728 881.106 112.412 880.252 116.302C879.398 112.412 877.782 108.728 875.497 105.46C873.212 102.192 870.303 99.4039 866.934 97.2553C863.567 95.1066 859.807 93.6396 855.869 92.9376C851.931 92.2352 847.893 92.3123 843.985 93.1636C839.593 93.8952 835.4 95.5215 831.669 97.9415C827.938 100.362 824.751 103.522 822.306 107.227C819.861 110.932 818.212 115.099 817.462 119.468C816.712 123.837 816.877 128.313 817.947 132.615C818.472 136.579 819.811 140.393 821.881 143.821C823.951 147.248 826.706 150.215 829.977 152.538C833.248 154.859 836.963 156.488 840.893 157.319C844.822 158.151 848.882 158.169 852.819 157.374C859.2 156.827 865.246 154.299 870.106 150.147C874.966 145.995 878.393 140.429 879.903 134.235C881.436 140.438 884.885 146.007 889.765 150.158C894.643 154.309 900.708 156.833 907.103 157.374C911.042 158.187 915.107 158.182 919.043 157.357C922.98 156.533 926.703 154.907 929.977 152.582C933.252 150.257 936.009 147.283 938.074 143.847C940.138 140.411 941.466 136.587 941.975 132.615C943.05 128.354 943.235 123.919 942.521 119.584C941.807 115.248 940.208 111.105 937.822 107.408C935.437 103.711 932.316 100.54 928.652 98.0906C924.989 95.641 920.859 93.9638 916.519 93.1636V93.1636ZM846.426 106.238C848.663 105.808 850.965 105.842 853.189 106.335C855.413 106.829 857.511 107.772 859.352 109.106C861.195 110.44 862.741 112.137 863.897 114.092C865.053 116.047 865.793 118.217 866.07 120.467C866.684 122.923 866.731 125.486 866.209 127.963C865.686 130.44 864.608 132.768 863.054 134.771C861.499 136.775 859.51 138.402 857.234 139.531C854.959 140.661 852.455 141.263 849.912 141.292C847.633 141.264 845.383 140.778 843.296 139.866C841.21 138.953 839.329 137.631 837.767 135.979C836.205 134.327 834.993 132.379 834.204 130.25C833.415 128.122 833.064 125.857 833.174 123.592C832.704 119.556 833.821 115.496 836.291 112.261C838.761 109.027 842.393 106.868 846.426 106.238ZM908.341 107.205C910.459 106.744 912.652 106.729 914.777 107.159C918.614 107.735 922.079 109.767 924.441 112.831C926.804 115.895 927.882 119.751 927.447 123.589C927.541 125.739 927.199 127.886 926.445 129.903C925.689 131.919 924.534 133.764 923.049 135.328C921.564 136.892 919.779 138.144 917.799 139.009C915.819 139.874 913.685 140.336 911.522 140.364C909.114 140.348 906.741 139.787 904.581 138.725C902.423 137.664 900.534 136.128 899.056 134.235C897.579 132.342 896.553 130.14 896.054 127.795C895.556 125.45 895.599 123.022 896.179 120.697C896.41 118.55 897.09 116.475 898.173 114.606C899.257 112.735 900.721 111.111 902.472 109.837C904.222 108.563 906.222 107.666 908.341 107.205V107.205Z" fill="#ADADAD"/>
<path fill-rule="evenodd" clip-rule="evenodd" d="M174.664 35.6323C192.333 48.3719 231.041 100.141 244.409 134.885C253.36 157.006 245.572 166.618 237.435 171.251C226.856 174.905 215.35 174.905 204.77 171.251C220.464 189.318 207.909 227.884 203.375 235.643C201.512 239.154 198.444 241.881 194.732 243.327C191.019 244.772 186.909 244.84 183.149 243.519C177.163 238.693 172.753 232.203 170.479 224.873C171.515 229.241 171.615 233.779 170.774 238.188C169.933 242.598 168.169 246.782 165.597 250.468C163.295 252.704 160.209 253.954 156.995 253.954C153.781 253.954 150.694 252.704 148.393 250.468C143.426 242.187 140.666 232.778 140.372 223.135C140.14 232.772 137.417 242.186 132.468 250.468C130.166 252.704 127.08 253.954 123.866 253.954C120.652 253.954 117.565 252.704 115.264 250.468C112.692 246.782 110.927 242.598 110.086 238.188C109.245 233.779 109.346 229.241 110.381 224.873C108.107 232.203 103.697 238.693 97.711 243.519C93.9817 244.994 89.829 245.001 86.0948 243.538C82.3605 242.076 79.3242 239.254 77.6011 235.643C72.9514 225.799 60.3972 188.855 76.0899 171.251C65.4722 174.913 53.927 174.913 43.3093 171.251C34.4749 166.618 27.3842 157.006 35.7536 134.885C48.7729 99.7932 87.4816 48.3719 105.5 35.6323C114.922 26.9805 127.268 22.1777 140.081 22.1777C152.896 22.1777 165.241 26.9805 174.664 35.6323V35.6323ZM155.367 87.2879C161.67 85.2817 168.347 84.7271 174.896 85.6664C180.856 86.7831 186.517 89.1302 191.512 92.5563C196.508 95.9823 200.729 100.412 203.904 105.56C207.078 110.708 209.137 116.462 209.947 122.45C210.757 128.438 210.3 134.529 208.607 140.331C207.682 145.49 205.745 150.417 202.905 154.828C200.067 159.24 196.382 163.05 192.063 166.041C187.744 169.031 182.875 171.144 177.735 172.257C172.595 173.37 167.285 173.462 162.11 172.527C153.286 171.988 144.844 168.752 137.932 163.262C131.062 168.75 122.657 171.987 113.869 172.527C108.692 173.478 103.377 173.397 98.2312 172.291C93.0855 171.184 88.2105 169.074 83.8877 166.081C79.5649 163.088 75.8798 159.271 73.0452 154.851C70.2105 150.432 68.2823 145.497 67.3719 140.331C64.4006 131.204 64.6078 121.344 67.9601 112.348C71.3124 103.352 77.6134 95.7471 85.8434 90.7629C94.0735 85.7788 103.751 83.7076 113.31 84.8846C122.868 86.0615 131.748 90.4174 138.512 97.2474C143.302 92.6995 149.065 89.2942 155.367 87.2879V87.2879Z" fill="#EAFF3E"/>
<path fill-rule="evenodd" clip-rule="evenodd" d="M174.78 96.8987C170.872 96.0465 166.834 95.9694 162.896 96.6725C158.958 97.3753 155.198 98.8438 151.83 100.995C148.462 103.146 145.552 105.936 143.267 109.208C140.982 112.48 139.367 116.168 138.512 120.062C137.658 116.168 136.043 112.48 133.757 109.208C131.472 105.936 128.563 103.146 125.194 100.995C121.827 98.8438 118.067 97.3753 114.129 96.6725C110.19 95.9694 106.153 96.0465 102.245 96.8987C97.8525 97.6311 93.6593 99.2591 89.9287 101.682C86.198 104.104 83.0103 107.268 80.5653 110.977C78.1204 114.685 76.4712 118.857 75.721 123.23C74.9708 127.605 75.1359 132.084 76.206 136.392C76.7315 140.36 78.0707 144.177 80.1404 147.609C82.21 151.04 84.9658 154.009 88.2365 156.335C91.5072 158.659 95.2229 160.289 99.1524 161.121C103.082 161.954 107.142 161.972 111.079 161.176C117.46 160.628 123.506 158.098 128.367 153.942C133.226 149.786 136.653 144.214 138.163 138.013C139.697 144.223 143.145 149.798 148.025 153.953C152.904 158.108 158.968 160.634 165.364 161.176C169.303 161.99 173.368 161.985 177.305 161.159C181.241 160.334 184.964 158.706 188.238 156.379C191.513 154.051 194.27 151.074 196.335 147.635C198.4 144.195 199.728 140.367 200.237 136.392C201.311 132.126 201.497 127.687 200.783 123.346C200.068 119.007 198.47 114.859 196.084 111.158C193.699 107.458 190.578 104.283 186.913 101.831C183.25 99.3787 179.12 97.6998 174.78 96.8987V96.8987ZM104.685 109.987C106.922 109.557 109.225 109.59 111.449 110.084C113.673 110.578 115.771 111.522 117.612 112.858C119.455 114.193 121.001 115.892 122.157 117.849C123.313 119.806 124.053 121.978 124.33 124.231C124.944 126.689 124.992 129.255 124.47 131.735C123.947 134.214 122.868 136.545 121.314 138.55C119.759 140.555 117.77 142.184 115.494 143.314C113.218 144.445 110.715 145.048 108.172 145.078C105.893 145.049 103.643 144.563 101.556 143.65C99.4698 142.736 97.5891 141.413 96.0266 139.759C94.4643 138.105 93.2525 136.155 92.4633 134.024C91.6742 131.893 91.3238 129.627 91.4334 127.359C90.9637 123.318 92.0808 119.254 94.5508 116.016C97.0209 112.778 100.652 110.617 104.685 109.987ZM166.601 110.955C168.72 110.493 170.913 110.478 173.038 110.909C176.876 111.485 180.34 113.52 182.703 116.587C185.065 119.654 186.143 123.514 185.708 127.356C185.802 129.508 185.461 131.657 184.706 133.676C183.95 135.694 182.796 137.541 181.31 139.107C179.825 140.673 178.04 141.926 176.06 142.792C174.08 143.658 171.946 144.12 169.783 144.149C167.375 144.132 165.002 143.571 162.842 142.508C160.683 141.445 158.794 139.908 157.317 138.013C155.84 136.118 154.813 133.913 154.315 131.566C153.817 129.219 153.86 126.789 154.439 124.461C154.671 122.312 155.35 120.235 156.434 118.363C157.518 116.49 158.981 114.865 160.733 113.589C162.483 112.314 164.483 111.416 166.601 110.955V110.955Z" fill="#EAFF3E"/>
<path fill-rule="evenodd" clip-rule="evenodd" d="M668.121 30.9962C685.79 43.7355 724.498 95.5036 737.866 130.247C746.817 152.368 739.028 161.98 730.892 166.612C720.312 170.266 708.807 170.266 698.228 166.612C713.921 184.68 701.366 223.245 696.833 231.003C694.97 234.514 691.902 237.241 688.189 238.687C684.476 240.133 680.366 240.2 676.607 238.879C670.621 234.054 666.211 227.563 663.937 220.233C664.973 224.602 665.073 229.139 664.232 233.548C663.391 237.958 661.626 242.142 659.054 245.829C656.753 248.064 653.667 249.314 650.453 249.314C647.239 249.314 644.152 248.064 641.851 245.829C636.885 237.547 634.124 228.139 633.831 218.496C633.598 228.132 630.875 237.546 625.926 245.829C623.625 248.064 620.538 249.314 617.324 249.314C614.11 249.314 611.024 248.064 608.723 245.829C606.151 242.142 604.386 237.958 603.545 233.548C602.704 229.139 602.804 224.602 603.84 220.233C601.566 227.563 597.156 234.054 591.17 238.879C587.441 240.354 583.288 240.361 579.554 238.899C575.82 237.437 572.784 234.614 571.061 231.003C566.411 221.16 553.857 184.216 569.549 166.612C558.932 170.274 547.387 170.274 536.769 166.612C527.935 161.98 520.845 152.368 529.214 130.247C542.233 95.156 580.941 43.7355 598.959 30.9962C608.381 22.3445 620.726 17.5418 633.54 17.5418C646.354 17.5418 658.699 22.3445 668.121 30.9962V30.9962ZM648.825 82.6509C655.128 80.6448 661.805 80.0902 668.354 81.0294C674.314 82.1461 679.974 84.4931 684.969 87.9192C689.965 91.3452 694.186 95.7743 697.361 100.922C700.535 106.071 702.594 111.824 703.404 117.812C704.214 123.8 703.758 129.891 702.064 135.693C701.139 140.852 699.202 145.779 696.363 150.19C693.525 154.602 689.84 158.411 685.52 161.402C681.202 164.393 676.332 166.506 671.193 167.618C666.053 168.732 660.743 168.823 655.568 167.888C646.744 167.349 638.302 164.114 631.39 158.624C624.521 164.112 616.116 167.348 607.328 167.888C602.151 168.839 596.836 168.759 591.69 167.653C586.545 166.546 581.67 164.436 577.347 161.443C573.024 158.449 569.339 154.633 566.505 150.213C563.67 145.794 561.742 140.859 560.832 135.693C557.86 126.566 558.068 116.706 561.42 107.711C564.772 98.7151 571.073 91.11 579.303 86.1258C587.533 81.1418 597.21 79.0707 606.768 80.2476C616.327 81.4245 625.207 85.7803 631.971 92.6102C636.76 88.0624 642.523 84.6571 648.825 82.6509V82.6509Z" fill="#ADADAD"/>
<path fill-rule="evenodd" clip-rule="evenodd" d="M668.238 92.2616C664.33 91.4094 660.292 91.3323 656.354 92.0354C652.416 92.7381 648.656 94.2066 645.288 96.3575C641.92 98.5083 639.01 101.299 636.726 104.571C634.44 107.842 632.825 111.53 631.971 115.424C631.116 111.53 629.501 107.842 627.216 104.571C624.93 101.299 622.022 98.5083 618.653 96.3575C615.286 94.2066 611.525 92.7381 607.587 92.0354C603.649 91.3323 599.612 91.4094 595.704 92.2616C591.312 92.994 587.118 94.6219 583.388 97.0444C579.657 99.4669 576.47 102.631 574.025 106.339C571.58 110.048 569.931 114.22 569.18 118.593C568.43 122.967 568.595 127.447 569.666 131.754C570.191 135.722 571.53 139.539 573.6 142.971C575.669 146.402 578.425 149.371 581.696 151.696C584.966 154.021 588.682 155.65 592.612 156.483C596.541 157.315 600.601 157.334 604.538 156.538C610.919 155.99 616.965 153.46 621.825 149.304C626.684 145.147 630.112 139.576 631.622 133.375C633.155 139.585 636.604 145.159 641.483 149.315C646.362 153.47 652.426 155.996 658.822 156.538C662.761 157.352 666.826 157.347 670.762 156.521C674.698 155.696 678.421 154.068 681.696 151.741C684.97 149.413 687.728 146.436 689.792 142.997C691.857 139.557 693.185 135.729 693.694 131.754C694.769 127.488 694.954 123.048 694.24 118.709C693.526 114.369 691.927 110.221 689.541 106.52C687.156 102.82 684.035 99.6459 680.371 97.1937C676.707 94.7415 672.578 93.0626 668.238 92.2616V92.2616ZM598.144 105.349C600.381 104.919 602.683 104.953 604.907 105.447C607.131 105.941 609.23 106.885 611.071 108.221C612.914 109.556 614.46 111.255 615.616 113.211C616.772 115.168 617.511 117.34 617.789 119.593C618.403 122.052 618.45 124.617 617.928 127.097C617.405 129.576 616.327 131.907 614.773 133.912C613.218 135.917 611.228 137.546 608.952 138.676C606.677 139.807 604.174 140.41 601.631 140.44C599.352 140.411 597.102 139.925 595.015 139.012C592.929 138.098 591.048 136.775 589.486 135.121C587.923 133.467 586.712 131.517 585.922 129.386C585.133 127.256 584.783 124.989 584.893 122.721C584.423 118.681 585.54 114.617 588.01 111.378C590.48 108.141 594.112 105.98 598.144 105.349ZM660.059 106.317C662.178 105.855 664.371 105.841 666.496 106.272C670.333 106.847 673.798 108.882 676.16 111.949C678.523 115.016 679.6 118.876 679.166 122.718C679.26 124.87 678.918 127.019 678.164 129.038C677.408 131.057 676.253 132.903 674.768 134.469C673.283 136.035 671.497 137.288 669.518 138.154C667.538 139.02 665.403 139.482 663.241 139.511C660.833 139.494 658.46 138.933 656.3 137.87C654.141 136.807 652.252 135.27 650.775 133.375C649.298 131.48 648.272 129.276 647.773 126.928C647.275 124.581 647.318 122.151 647.898 119.823C648.129 117.674 648.808 115.597 649.892 113.726C650.976 111.853 652.439 110.228 654.191 108.952C655.941 107.676 657.941 106.779 660.059 106.317V106.317Z" fill="#ADADAD"/>
</g>
<defs>
<clipPath id="clip0_1_38">
<rect width="1024" height="278.84" fill="white"/>
</clipPath>
</defs>
</svg>
