<svg width="510" height="373" viewBox="0 0 510 373" fill="none" xmlns="http://www.w3.org/2000/svg">
<path fill-rule="evenodd" clip-rule="evenodd" d="M432.968 137.526C433 155.608 429.468 173.518 422.57 190.232C415.674 206.946 405.548 222.136 392.776 234.934C380.001 247.729 364.83 257.88 348.127 264.809C331.427 271.735 313.523 275.3 295.442 275.3C277.359 275.3 259.456 271.735 242.755 264.809C226.054 257.88 210.881 247.729 198.107 234.934C185.334 222.136 175.209 206.946 168.312 190.232C161.415 173.518 157.882 155.608 157.915 137.526C157.915 119.466 161.473 101.582 168.384 84.897C175.295 68.211 185.425 53.051 198.195 40.28C210.966 27.5098 226.127 17.3803 242.811 10.4689C259.498 3.5576 277.38 0 295.442 0C331.915 0 366.897 14.4891 392.687 40.28C418.478 66.072 432.968 101.052 432.968 137.526Z" fill="url(#paint0_radial_1_8)"/>
<path fill-rule="evenodd" clip-rule="evenodd" d="M358.246 137.527C358.246 154.207 351.639 170.207 339.868 182.025C328.096 193.842 312.122 200.514 295.442 200.58C278.763 200.514 262.788 193.842 251.017 182.025C239.246 170.207 232.636 154.207 232.636 137.527C232.636 120.87 239.253 104.895 251.031 93.116C262.809 81.338 278.784 74.722 295.442 74.722C312.099 74.722 328.073 81.338 339.851 93.116C351.63 104.895 358.246 120.87 358.246 137.527Z" fill="url(#paint1_radial_1_8)"/>
<path fill-rule="evenodd" clip-rule="evenodd" d="M365.195 85.396C365.195 90.465 363.182 95.327 359.596 98.912C356.012 102.496 351.15 104.51 346.081 104.51C341.013 104.51 336.149 102.496 332.565 98.912C328.981 95.327 326.965 90.465 326.965 85.396C327.03 80.346 329.064 75.522 332.634 71.951C336.207 68.38 341.031 66.346 346.081 66.281C351.132 66.346 355.954 68.38 359.526 71.951C363.096 75.522 365.13 80.346 365.195 85.396Z" fill="white"/>
<path fill-rule="evenodd" clip-rule="evenodd" d="M401.189 258.171L434.951 255.937C460.788 252.274 485.906 244.655 509.423 233.349L502.225 226.397C497.475 221.394 491.941 217.202 485.841 213.985C479.634 211.75 470.947 208.524 463.001 206.538C449.845 203.062 436.689 199.338 424.029 195.118C420.056 195.118 412.858 182.706 412.36 179.231C410.87 170.542 409.879 156.641 408.885 152.421C405.704 144.388 401.799 136.66 397.219 129.334C393.742 133.058 379.841 146.215 378.102 148.449C374.26 156.338 371.425 164.678 369.664 173.273C365.302 183.023 363.182 193.627 363.457 204.304C363.457 216.964 366.187 226.894 357.995 237.568C352.884 246.018 344.843 252.29 335.406 255.192C329.16 258.32 322.581 260.736 315.794 262.393C302.029 264.101 288.104 264.101 274.339 262.393C264.378 261.141 255.029 256.901 247.528 250.228L267.883 242.781C264.657 239.306 262.423 237.319 260.685 235.085C254.126 223.868 249.037 211.854 245.541 199.338C231.216 197.568 216.761 197.07 202.348 197.849C193.361 189.204 185.518 179.443 179.013 168.804C170.755 150.865 160.691 133.814 148.976 117.915C141.494 108.884 133.183 100.573 124.152 93.091C117.697 87.133 110.002 82.416 103.051 76.955C94.278 71.555 84.277 68.471 73.9863 67.993C63.6958 67.515 53.4527 69.659 44.2174 74.224C38.756 76.21 38.5077 84.154 40.2455 84.651C41.9832 85.147 46.6992 84.65 51.4159 87.629C56.1326 90.608 55.1402 98.552 55.1402 104.758C55.1435 107.637 55.6476 110.492 56.6295 113.198C60.3175 125.083 60.3175 137.806 56.6295 149.69C55.9529 157.977 53.4972 166.021 49.4303 173.273C46.6366 171.129 43.9831 168.807 41.4864 166.323C38.5075 163.344 23.861 141.498 20.3856 137.774C16.9102 134.05 15.9174 131.816 15.9174 130.327C15.9174 128.838 18.1516 120.646 15.9174 119.653C13.6833 118.66 6.23596 124.617 4.25003 126.851C1.2767 130.279 -0.237492 134.734 0.0303262 139.264C1.87489 149.386 5.2216 159.175 9.9599 168.308C14.9247 178.983 25.1024 198.842 31.3083 210.51C32.6548 218.356 34.6481 226.078 37.2668 233.595C46.6103 254.101 58.721 273.229 73.2613 290.444C67.9423 296.816 63.0495 303.535 58.6151 310.551C64.0765 315.515 81.9497 321.971 90.1417 328.425C91.6961 322.648 92.7755 316.751 93.369 310.798C102.306 319.488 111.491 327.927 120.18 335.623C129.152 341.048 138.435 345.937 147.983 350.269C172.556 360.718 198.451 367.737 224.938 371.123L246.039 372.364C264.911 373.134 283.657 368.94 300.404 360.199C314.831 353.203 328.341 344.448 340.619 334.134C344.185 331.006 347.583 327.692 350.797 324.205C353.775 329.418 357.748 335.623 359.982 339.845C370.381 333.645 380.409 326.849 390.018 319.488C392.252 317.999 404.417 305.089 406.155 303.353C404.247 301.722 402.166 300.307 399.949 299.131C391.366 297.204 383.036 294.288 375.124 290.444C380.397 282.543 385.045 274.243 389.027 265.619C389.318 264.322 389.864 263.094 390.639 262.011C391.412 260.929 392.397 260.015 393.532 259.321C394.666 258.625 395.929 258.167 397.244 257.969C398.559 257.771 399.902 257.841 401.189 258.171Z" fill="url(#paint2_linear_1_8)"/>
<path fill-rule="evenodd" clip-rule="evenodd" d="M108.019 124.122C107.867 125.551 107.428 126.935 106.728 128.191C106.028 129.446 105.082 130.547 103.946 131.429C102.81 132.309 101.508 132.952 100.118 133.317C98.7273 133.682 97.2778 133.763 95.8556 133.555C89.6495 133.555 86.4227 125.611 86.9192 120.398C87.0995 119.185 87.5208 118.02 88.1587 116.972C88.7963 115.925 89.6379 115.015 90.6328 114.298C91.6277 113.581 92.7562 113.07 93.9517 112.796C95.1472 112.522 96.3853 112.49 97.5934 112.703C99.028 112.766 100.436 113.112 101.737 113.721C103.038 114.33 104.206 115.189 105.175 116.25C106.143 117.31 106.893 118.551 107.381 119.902C107.869 121.253 108.086 122.687 108.019 124.122Z" fill="white"/>
<defs>
<radialGradient id="paint0_radial_1_8" cx="0" cy="0" r="1" gradientUnits="userSpaceOnUse" gradientTransform="translate(320.47 113.417) scale(137.909 137.909)">
<stop offset="0.56" stop-color="#FF6200"/>
<stop offset="0.76" stop-color="#FE7808"/>
<stop offset="1" stop-color="#FD9814"/>
</radialGradient>
<radialGradient id="paint1_radial_1_8" cx="0" cy="0" r="1" gradientUnits="userSpaceOnUse" gradientTransform="translate(320.47 113.418) scale(63.0039 63.0039)">
<stop stop-color="#E30E00"/>
<stop offset="0.29" stop-color="#EC1B00"/>
<stop offset="1" stop-color="#FF3700"/>
</radialGradient>
<linearGradient id="paint2_linear_1_8" x1="1.27153" y1="220.687" x2="509.672" y2="220.687" gradientUnits="userSpaceOnUse">
<stop stop-color="#3B4D52"/>
<stop offset="0.4" stop-color="#353746"/>
<stop offset="1" stop-color="#2A1030"/>
</linearGradient>
</defs>
</svg>
