<?xml version="1.0" encoding="utf-8"?>
<!-- Generator: Adobe Adobe Illustrator 24.2.0, SVG Export Plug-In . SVG Version: 6.00 Build 0)  -->
<svg version="1.1" xmlns="http://www.w3.org/2000/svg" xmlns:xlink="http://www.w3.org/1999/xlink" x="0px" y="0px" width="200px"
	 height="200px" viewBox="0 0 200 200" style="enable-background:new 0 0 200 200;" xml:space="preserve">
<style type="text/css">
	.st0{clip-path:url(#SVGID_2_);stroke:#000000;stroke-width:6;stroke-miterlimit:10;}
	.st1{clip-path:url(#SVGID_2_);stroke:#0000FF;stroke-width:6;stroke-miterlimit:10;}
	.st2{clip-path:url(#SVGID_4_);stroke:#000000;stroke-width:6;stroke-miterlimit:10;}
	.st3{clip-path:url(#SVGID_4_);stroke:#0000FF;stroke-width:6;stroke-miterlimit:10;}
	.st4{clip-path:url(#SVGID_6_);fill:#FFFFFF;stroke:#000000;stroke-width:2;stroke-miterlimit:10;}
	.st5{clip-path:url(#SVGID_6_);fill:#FFFFFF;stroke:#000000;stroke-width:6;stroke-miterlimit:10;}
	.st6{clip-path:url(#SVGID_8_);fill:#FFFFFF;stroke:#000000;stroke-width:2;stroke-miterlimit:10;}
	.st7{clip-path:url(#SVGID_8_);fill:#FFFFFF;stroke:#000000;stroke-width:6;stroke-miterlimit:10;}
	.st8{clip-path:url(#SVGID_10_);fill:#FFFFFF;stroke:#000000;stroke-width:6;stroke-miterlimit:10;}
	.st9{clip-path:url(#SVGID_12_);fill:#FFFFFF;stroke:#000000;stroke-width:6;stroke-miterlimit:10;}
	.st10{fill:#FFFFFF;stroke:#000000;stroke-width:6;stroke-miterlimit:10;}
	.st11{clip-path:url(#SVGID_14_);stroke:#000000;stroke-width:6;stroke-miterlimit:10;}
	.st12{clip-path:url(#SVGID_14_);stroke:#0000FF;stroke-width:6;stroke-miterlimit:10;}
	.st13{clip-path:url(#SVGID_16_);stroke:#000000;stroke-width:6;stroke-miterlimit:10;}
	.st14{clip-path:url(#SVGID_16_);stroke:#0000FF;stroke-width:6;stroke-miterlimit:10;}
	.st15{clip-path:url(#SVGID_18_);fill:#FFFFFF;stroke:#000000;stroke-width:2;stroke-miterlimit:10;}
	.st16{clip-path:url(#SVGID_18_);fill:#FFFFFF;stroke:#000000;stroke-width:6;stroke-miterlimit:10;}
	.st17{clip-path:url(#SVGID_20_);fill:#FFFFFF;stroke:#000000;stroke-width:2;stroke-miterlimit:10;}
	.st18{clip-path:url(#SVGID_20_);fill:#FFFFFF;stroke:#000000;stroke-width:6;stroke-miterlimit:10;}
	.st19{clip-path:url(#SVGID_22_);fill:#FFFFFF;stroke:#000000;stroke-width:6;stroke-miterlimit:10;}
	.st20{clip-path:url(#SVGID_24_);fill:#FFFFFF;stroke:#000000;stroke-width:6;stroke-miterlimit:10;}
	.st21{display:none;}
</style>
<g id="レイヤー_2">
	<g>
		<g>
			<defs>
				<rect id="SVGID_13_" x="17.69" y="47.42" width="82.31" height="95.02"/>
			</defs>
			<clipPath id="SVGID_2_">
				<use xlink:href="#SVGID_13_"  style="overflow:visible;"/>
			</clipPath>
			<path class="st0" d="M102.09,136.93c0,0-17.72-2.13-34.87,0.46c-16.42,2.49-29.34,2.21-30.29,1.71l-8.04-0.87
				c-4.06-0.42-7.52-3.43-8.11-7.46c-0.14-0.98-0.13-2,0.07-3.01l0.59-19.73c0.41-2.16,15.79-17.05,16.77-18.79
				c3.6-6.41,8.76-18.26,10.78-25.77c0.89-3.31,3.57-5.95,7.09-6.97c14.31-4.14,32.9-5.58,44.55-6.08"/>
		</g>
		<g>
			<defs>
				<rect id="SVGID_15_" x="100" y="47.42" width="82.31" height="95.02"/>
			</defs>
			<clipPath id="SVGID_4_">
				<use xlink:href="#SVGID_15_"  style="overflow:visible;"/>
			</clipPath>
			<path class="st2" d="M97.91,136.93c0,0,17.72-2.13,34.87,0.46c16.42,2.49,29.34,2.21,30.29,1.71l8.04-0.87
				c4.06-0.42,7.52-3.43,8.11-7.46c0.14-0.98,0.13-2-0.07-3.01l-0.59-19.73c-0.41-2.16-15.79-17.05-16.77-18.79
				c-3.6-6.41-8.76-18.26-10.78-25.77c-0.89-3.31-3.57-5.95-7.09-6.97c-14.31-4.14-32.9-5.58-44.55-6.08"/>
		</g>
	</g>
	<g>
		<g>
			<defs>
				<rect id="SVGID_17_" x="32.56" y="49.17" width="67.44" height="89.92"/>
			</defs>
			<clipPath id="SVGID_6_">
				<use xlink:href="#SVGID_17_"  style="overflow:visible;"/>
			</clipPath>
			<path class="st4" d="M101.46,134.95c-4.17-0.14-16.35-0.42-28.39,0.51c-13.41,1.04-26.63,2.26-29.64,2.61
				c-0.27,0.03-2.79,0.01-3.07,0c-2.8-0.15-6.81,0.01-6.81-2.42c0-4.39,0.03-12.49,0.25-14.41c0.02-0.2,0.03-0.41,0.03-0.62
				l0.01-12.15c0-1.45,0.53-2.84,1.5-3.92c3.83-4.27,13.69-12.83,14.37-14.22c3.09-6.28,2.51-14.91,4.24-22.27
				c0.76-3.24,1.56-10.92,4.58-11.92c12.27-4.06,33.2-5.47,43.18-5.96"/>
			<path class="st4" d="M104.39,134.28c-0.9,0.47-1.91,0.7-2.93,0.67"/>
		</g>
		<g>
			<defs>
				<rect id="SVGID_19_" x="100" y="49.17" width="67.44" height="89.92"/>
			</defs>
			<clipPath id="SVGID_8_">
				<use xlink:href="#SVGID_19_"  style="overflow:visible;"/>
			</clipPath>
			<path class="st6" d="M98.54,134.95c4.17-0.14,16.35-0.42,28.39,0.51c13.41,1.04,26.63,2.26,29.64,2.61
				c0.27,0.03,2.79,0.01,3.07,0c2.8-0.15,6.81,0.01,6.81-2.42c0-4.39-0.03-12.49-0.25-14.41c-0.02-0.2-0.03-0.41-0.03-0.62
				l-0.01-12.15c0-1.45-0.53-2.84-1.5-3.92c-3.83-4.27-13.69-12.83-14.37-14.22c-3.09-6.28-2.51-14.91-4.24-22.27
				c-0.76-3.24-1.56-10.92-4.58-11.92c-12.27-4.06-33.2-5.47-43.18-5.96"/>
			<path class="st6" d="M95.61,134.28c0.9,0.47,1.91,0.7,2.93,0.67"/>
		</g>
	</g>
	<g>
	</g>
	<path class="st10" d="M93.43,140.85l2.28-65.91c0-3.8,2.35-6.89,5.25-6.89h0c2.9,0,5.25,3.08,5.25,6.89l2.33,65.91
		c0,3.8-4.68,4.03-7.58,4.03h0C98.06,144.88,93.43,144.65,93.43,140.85z"/>
	<path class="st10" d="M68.81,139.99l7.51-65.43c0.3-3.79,2.89-6.63,5.78-6.35h0c2.89,0.28,4.98,3.58,4.68,7.37l-2.91,65.88
		c-0.3,3.79-4.99,3.56-7.87,3.28h0C73.1,144.46,68.51,143.78,68.81,139.99z"/>
	<path class="st10" d="M118.11,141.45l-2.92-65.88c-0.3-3.79,1.8-7.09,4.69-7.37h0c2.89-0.28,5.47,2.57,5.77,6.36l7.51,65.44
		c0.3,3.79-4.35,4.47-7.24,4.75h0C123.04,145.02,118.41,145.24,118.11,141.45z"/>
</g>
<g id="レイヤー_1" class="st21">
</g>
</svg>
