<svg fill="none" height="25" viewBox="0 0 31 25" width="31" xmlns="http://www.w3.org/2000/svg"><g clip-rule="evenodd" fill="#fff" fill-rule="evenodd"><path d="m19.3294 1.45125c1.8988 1.37412 6.0586 6.95805 7.4952 10.70565.9619 2.386.1249 3.4228-.7495 3.9225-1.1369.3941-2.3734.3941-3.5103 0 1.6865 1.9488.3373 6.1086-.1499 6.9455-.2002.3787-.5299.6728-.9289.8288-.399.1559-.8407.1632-1.2447.0207-.6433-.5205-1.1172-1.2206-1.3616-2.0112.1113.4712.1221.9606.0317 1.4362-.0904.4757-.28.927-.5564 1.3246-.2473.2411-.579.376-.9244.376s-.6771-.1349-.9244-.376c-.5337-.8933-.8304-1.9081-.8619-2.9482-.025 1.0394-.3176 2.0548-.8495 2.9482-.2473.2411-.579.376-.9244.376s-.6771-.1349-.9244-.376c-.2764-.3976-.466-.8489-.5564-1.3246-.0904-.4756-.0796-.965.0317-1.4362-.2444.7906-.7183 1.4907-1.3616 2.0112-.4008.1591-.847.1599-1.24834.0021-.4013-.1577-.7276-.4621-.91277-.8516-.49968-1.0618-1.84882-5.0467-.1624-6.9455-1.14103.395-2.38173.395-3.52276 0-.94939-.4997-1.71139-1.5365-.81197-3.9225 1.39911-3.78508 5.55894-9.33153 7.49524-10.70565 1.0126-.933206 2.3393-1.45125 3.7163-1.45125 1.3771 0 2.7038.518044 3.7164 1.45125zm-2.0737 5.5717c.6773-.21639 1.3949-.27621 2.0987-.1749.6405.12045 1.2488.37361 1.7856.74316.5369.36954.9905.8473 1.3317 1.4026.3411.55531.5624 1.17589.6494 1.82179.0871.6459.038 1.3029-.144 1.9287-.0994.5565-.3076 1.0879-.6127 1.5637-.305.4759-.701.8868-1.1652 1.2094-.4641.3226-.9874.5505-1.5397.6705-.5524.1201-1.123.13-1.6792.0291-.9483-.0581-1.8555-.4071-2.5983-.9993-.7382.592-1.6415.9411-2.5859.9993-.5563.1026-1.1275.0939-1.6805-.0254-.553-.1194-1.0769-.347-1.54142-.6698-.46455-.3229-.86057-.7346-1.16519-1.2113-.30463-.4767-.51184-1.009-.60968-1.5662-.31931-.9845-.29704-2.048.06321-3.01831.36025-.97029 1.03739-1.79061 1.92183-2.32822.88445-.5376 1.92445-.761 2.95165-.63405s1.9815.59678 2.7084 1.33353c.5147-.49059 1.134-.8579 1.8113-1.0743z"/><path d="m19.342 8.05963c-.42-.09195-.854-.10027-1.2772-.02447-.4231.0758-.8272.23423-1.1892.46624-.3619.23201-.6746.53301-.9202.88589-.2455.35288-.4192.75071-.511 1.17071-.0917-.42-.2654-.81783-.5109-1.17071-.2456-.35288-.5583-.65388-.9202-.88589-.362-.23201-.766-.39044-1.1892-.46624s-.8572-.06748-1.2772.02447c-.472.07894-.9226.25456-1.3235.51588-.40088.26132-.74345.60264-1.0062 1.00262-.26274.39998-.43998.84997-.5206 1.32167-.08061.4718-.06287.955.05214 1.4196.05646.428.20038.8398.42279 1.2099s.51857.6904.87007.9412c.3515.2507.7508.4265 1.1731.5163s.8585.0918 1.2816.0059c.6857-.0591 1.3356-.332 1.8578-.7803.5223-.4483.8905-1.0493 1.0529-1.7181.1647.6698.5354 1.2711 1.0597 1.7193.5244.4482 1.1761.7207 1.8634.7791.4233.0878.8601.0873 1.2832-.0018.423-.089.823-.2646 1.175-.5156.3519-.2511.6481-.5722.87-.9432s.3647-.7839.4194-1.2127c.1154-.4601.1354-.9389.0586-1.4071-.0767-.4681-.2486-.91552-.5049-1.31465-.2563-.39914-.5917-.74153-.9855-1.00605-.3938-.26453-.8375-.44555-1.3039-.53197zm-7.5328 1.41162c.2404-.04634.4878-.04276.7268.01052.239.05329.4645.1551.6624.29919.198.14409.3642.32734.4884.53834.1242.2111.2037.4454.2335.6884.066.2652.0711.5419.015.8094-.0562.2674-.1721.5188-.3391.7351-.1671.2163-.3809.392-.6255.5139-.2445.122-.5135.187-.7868.1902-.2449-.0031-.4867-.0555-.711-.154-.2242-.0986-.4263-.2413-.5942-.4197s-.2981-.3887-.3829-.6186c-.0849-.2298-.1225-.4743-.1107-.7189-.0505-.4358.0695-.8742.335-1.2235.2654-.34924.6557-.5823 1.0891-.65035zm6.6538.10446c.2277-.04976.4633-.05144.6917-.00488.4124.06204.7847.28153 1.0386.61237.2539.3308.3697.7472.323 1.1616.0101.2321-.0266.4639-.1077.6817-.0812.2177-.2053.4169-.3649.5858s-.3515.3041-.5642.3975c-.2128.0934-.4422.1432-.6746.1463-.2588-.0018-.5138-.0623-.7459-.177-.232-.1146-.435-.2804-.5938-.4848-.1587-.2044-.269-.4422-.3226-.6954-.0535-.2532-.0489-.5153.0134-.7664.0249-.2318.0979-.4558.2143-.6577.1165-.202.2738-.37733.462-.51492.1881-.13759.403-.2344.6307-.28417z"/></g></svg>