<svg width="1024" height="1024" viewBox="0 0 1024 1024" fill="none" xmlns="http://www.w3.org/2000/svg">
<path d="M594.677 56.8889L550.952 84.3147H472.593L428.868 56.8889L233.283 270.027L369.943 234.608L465.539 335.693V404.022H559.57V335.693L655.169 234.608L791.828 270.027L594.677 56.8889ZM560.512 231.787L512.711 327.543C512.395 328.414 512.134 329.304 511.929 330.206V327.543L465.852 231.787L420.875 160.794L511.929 188.062H513.34L609.252 160.794L560.512 231.787Z" fill="white"/>
<path d="M788.383 826.229L718.174 535.515L764.561 359.834L655.954 337.735L615.051 391.02L597.498 475.648H518.044H505.819H423.541L405.988 391.02L368.063 337.735L259.457 359.834L305.69 535.515L235.479 826.229L296.129 902.864L275.442 981.066H502.684H521.335H748.575L727.734 902.864L788.383 826.229Z" fill="white"/>
<path d="M181.715 393.358L223.246 545.061L156.171 835.775L221.679 925.261L156.171 968.36L58.6914 909.275L28.4444 787.817L146.611 616.994L181.715 393.358Z" fill="white"/>
<path d="M842.129 393.358L800.757 545.061L867.675 835.775L802.324 925.261L867.675 968.36L965.154 909.275L995.558 787.817L877.392 616.994L842.129 393.358Z" fill="white"/>
</svg>
