<svg width="1024" height="1024" viewBox="0 0 1024 1024" fill="none" xmlns="http://www.w3.org/2000/svg">
<g clip-path="url(#clip0_1_7)">
<path d="M455.471 606.645L163.64 583.884L156.201 591.49C133.718 606.645 21.5268 637.01 81.3697 773.461C81.3697 773.461 163.64 773.461 216.044 705.18C208.55 712.785 141.213 811.376 186.067 879.602C186.067 879.602 253.46 902.362 328.235 796.166C253.46 909.967 298.314 962.982 298.314 962.982C380.64 985.742 440.483 879.602 447.977 871.996C403.067 947.827 432.988 1023.66 432.988 1023.66C575.157 1031.26 567.662 909.912 575.157 887.207C575.157 887.207 575.157 879.602 582.651 879.602L455.471 606.645ZM851.999 15.2105C784.662 -37.8598 156.201 106.196 111.291 235.042C88.9194 295.828 231.032 401.969 231.032 401.969C231.032 401.969 231.032 417.124 223.538 439.884L388.134 447.434L313.302 280.618L425.549 174.477L552.674 455.039L859.494 477.799L799.595 621.855L620.067 606.7L687.404 758.361C702.392 743.151 717.325 735.601 717.325 735.601C717.325 735.601 874.427 826.587 919.337 788.671C1016.6 705.236 919.337 60.7311 851.999 15.266V15.2105Z" fill="white"/>
</g>
<defs>
<clipPath id="clip0_1_7">
<rect width="1024" height="1024" fill="white"/>
</clipPath>
</defs>
</svg>
