<svg width="100" height="100" viewBox="0 0 100 100" fill="none" xmlns="http://www.w3.org/2000/svg">
<path d="M50 10C55.8613 10 61.651 11.2881 66.9594 13.7732C72.2678 16.2584 76.9652 19.8797 80.7193 24.3811C84.4733 28.8825 87.1922 34.1539 88.6835 39.8223C90.1749 45.4907 90.4023 51.4176 89.3497 57.1836C88.297 62.9497 85.99 68.4139 82.592 73.1897C79.1939 77.9655 74.7878 81.9362 69.6854 84.8207C64.5831 87.7053 58.9091 89.4333 53.065 89.8824C47.2209 90.3315 41.3495 89.4908 35.8663 87.4198L36.9263 84.6133C41.9983 86.529 47.4293 87.3067 52.8351 86.8912C58.2409 86.4758 63.4893 84.8774 68.209 82.2092C72.9287 79.5409 77.0044 75.8681 80.1476 71.4505C83.2908 67.0329 85.4247 61.9784 86.3984 56.6449C87.3721 51.3113 87.1618 45.8289 85.7823 40.5856C84.4027 35.3424 81.8878 30.4663 78.4153 26.3025C74.9429 22.1388 70.5978 18.789 65.6875 16.4903C60.7772 14.1915 55.4217 13 50 13L50 10Z" fill="white" fill-opacity="0.7"/>
<path d="M32.7983 86.1124C25.8227 82.7896 19.9587 77.5176 15.9151 70.9336L18.4714 69.3636C22.2118 75.4538 27.636 80.3304 34.0884 83.4039L32.7983 86.1124Z" fill="white" fill-opacity="0.45"/>
<path d="M14.3303 68.1018C11.8995 63.3118 10.4583 58.0812 10.0927 52.7221L13.0858 52.518C13.4239 57.4751 14.757 62.3134 17.0056 66.7442L14.3303 68.1018Z" fill="white" fill-opacity="0.3"/>
</svg>
