<svg width="512" height="512" viewBox="0 0 512 512" fill="none" xmlns="http://www.w3.org/2000/svg">
<path d="M506.64 181.417C500.427 179.955 491.276 179.706 478.122 183.054C446.681 191.078 432.546 244.445 412.344 256.446C401.805 262.702 381.299 257.045 362.238 248.962C355.566 241.398 350.732 232.393 348.117 222.651C339.814 191.839 316.91 173.684 316.91 173.684C313.856 183.785 297.294 198.343 290.599 205.155C284.285 200.477 278.526 196.165 274.52 193.198C273.101 192.128 272.144 190.553 271.851 188.799C271.557 187.045 271.948 185.245 272.943 183.77C279.814 173.178 285.495 161.859 289.884 150.019C290.335 148.808 290.437 147.495 290.179 146.229C289.921 144.962 289.311 143.794 288.422 142.857C282.137 136.177 266.306 120.434 248.664 110.699C231.401 101.14 205.953 91.3025 185.05 89.1684C145.584 85.1341 118.148 92.4718 105.446 97.1493C104.459 97.5072 103.567 98.0845 102.837 98.8375C102.106 99.5905 101.556 100.5 101.228 101.496C100.9 102.493 100.803 103.551 100.943 104.591C101.084 105.63 101.459 106.624 102.04 107.498C115.026 127.731 126.179 149.084 135.367 171.302C135.763 172.266 135.937 173.308 135.875 174.349C135.814 175.39 135.519 176.404 135.012 177.315C134.505 178.226 133.799 179.012 132.947 179.613C132.095 180.214 131.118 180.616 130.09 180.788C114.011 183.609 94.892 181.855 76.0068 181.782C49.0383 181.665 42.5191 181.987 21.2222 190.655C6.18117 196.779 -0.70347 221.233 0.0566167 241.814C0.173092 244.401 0.889745 246.925 2.14993 249.187C3.4101 251.449 5.17925 253.387 7.31746 254.847C9.45566 256.308 11.9043 257.251 14.4698 257.602C17.0353 257.953 19.6472 257.702 22.0991 256.87L22.3914 256.767C36.5115 252.28 48.5413 255.028 61.8574 261.942C76.9714 269.777 102.23 286.191 110.81 300.267C119.39 314.343 119.975 312.664 98.5756 316.596C75.1151 320.98 52.795 334.268 41.5691 332.761C34.3341 331.792 27.5356 328.746 21.9967 323.991C21.102 323.252 20.0353 322.748 18.8952 322.529C17.755 322.308 16.5778 322.377 15.4717 322.731C14.3656 323.086 13.3661 323.71 12.5652 324.552C11.7642 325.392 11.1875 326.422 10.8878 327.542C7.83288 339.105 7.2336 350.842 23.2247 357.654C42.7092 365.942 55.8352 368.631 78.7693 371.218C100.102 373.86 121.635 374.486 143.084 373.09C146.432 372.842 149.56 372.592 152.512 372.387C146.505 381.611 137.223 391.96 124.024 396.507C108.69 401.768 124.871 428.298 171.748 422.1C192.826 419.323 200.719 398.129 196.875 376.672C210.833 381.188 225.145 386.904 238.754 389.242C265.867 393.801 278.643 386.77 298.58 376.657C315.126 368.224 332.739 362.076 350.939 358.385C352.575 358.074 354.269 358.361 355.711 359.192C357.155 360.024 358.25 361.344 358.803 362.917C362.193 372.623 368.464 388.657 380.172 391.565C393.095 394.768 417.153 389.007 432.093 380.792C432.945 380.329 433.689 379.695 434.28 378.925C434.87 378.157 435.292 377.272 435.519 376.33C435.747 375.388 435.773 374.409 435.599 373.454C435.425 372.502 435.05 371.595 434.504 370.794C431.866 367.337 428.327 364.67 424.272 363.091C399.745 352.276 395.039 341.166 392.845 333.025C392.591 332.079 392.54 331.089 392.696 330.121C392.853 329.154 393.212 328.23 393.753 327.411C397.67 321.564 407.902 307.898 418.601 309.374C432.136 311.261 429.257 325.263 448.158 337.147C460.319 344.79 471.968 345.171 479.218 342.335C480.158 341.966 481.006 341.395 481.7 340.664C482.394 339.931 482.918 339.054 483.236 338.096C483.555 337.137 483.658 336.121 483.539 335.118C483.42 334.116 483.084 333.152 482.55 332.294C478.589 325.877 472.129 313.014 468.636 293.296C464.396 269.207 474.38 238.511 484.379 222.198C493.748 206.909 502.751 198.372 509.227 193.71C510.282 192.918 511.091 191.842 511.556 190.607C512.02 189.372 512.123 188.03 511.852 186.738C511.58 185.447 510.945 184.26 510.022 183.317C509.098 182.375 507.924 181.715 506.64 181.417ZM133.905 283.239C114.157 277.991 100.914 260.378 103.472 240.192C106.79 213.881 130.28 193.666 161.005 206.953C193.279 220.912 186.307 254.019 179.028 267.818C171.748 281.616 151.548 287.902 133.963 283.239H133.905Z" fill="white"/>
<path d="M144.194 226.028C136.812 225.516 131.17 228.951 127.457 235.149C122.02 244.284 125.835 257.717 139.984 262.336C142.659 263.282 145.523 263.566 148.331 263.162C151.139 262.758 153.807 261.68 156.107 260.018C158.407 258.357 160.269 256.162 161.534 253.623C162.799 251.084 163.43 248.275 163.371 245.439C163.328 233.731 152.862 226.641 144.194 226.028ZM148.579 249.415C147.905 250.105 147.075 250.624 146.158 250.926C145.242 251.229 144.266 251.307 143.313 251.153C142.36 251 141.458 250.62 140.683 250.045C139.908 249.471 139.282 248.718 138.859 247.851C136.549 243.319 138.859 239.08 142.396 238.262C143.502 237.916 144.685 237.906 145.797 238.234C146.908 238.562 147.897 239.213 148.637 240.104C149.788 241.381 150.425 243.04 150.425 244.759C150.425 246.479 149.788 248.137 148.637 249.415H148.579Z" fill="white"/>
</svg>
