<svg width="1024" height="1024" viewBox="0 0 1024 1024" fill="none" xmlns="http://www.w3.org/2000/svg">
<path d="M199.939 543L243 619.818L158.817 650L133 593.472L199.939 543Z" fill="white"/>
<path d="M592 557.447L643.332 643L714.498 543.86L760 514.973L727.894 457L592 557.447Z" fill="white"/>
<path d="M681 310.854L777.109 470L823.575 436.564L778.439 364.672L890 345.193L819.481 224L748.449 310.452L726.649 282.037L681 310.854Z" fill="white"/>
<path d="M640.211 282L547.373 286.216L431.583 350.874L296.834 426.075L270.602 440.735L229 518.949L280.234 605.092L331.879 607L342.433 443.445L452.18 384.007L617.771 493.145L677.714 444.449L702 387.623L640.211 282Z" fill="white"/>
<path d="M379.408 611L571.449 517.869L574 514.044L452.877 434L386.449 469.24L379 610.599L379.408 611Z" fill="white"/>
<path d="M578.856 566L540.563 583.96L544.749 628.562L487.154 640.065L489.301 607.976L388 655.403L399.028 800L536.274 754.593L488.38 676.39L581 664.383L578.856 566Z" fill="white"/>
<path d="M234.052 525L185 479.727L194.279 463L288 509.174L234.052 525Z" fill="white"/>
</svg>
