<svg width="42" height="38" viewBox="0 0 42 38" fill="none" xmlns="http://www.w3.org/2000/svg">
<g clip-path="url(#clip0_1_2)">
<path d="M28.0811 31.9341C28.0811 29.0279 26.4652 26.495 24.0757 25.1746C25.7599 24.644 27.2949 23.7801 28.6062 22.6602C28.7833 25.0882 29.5881 27.8772 32.4314 27.4206C37.3347 26.6308 35.8929 18.7576 35.8929 18.7576L39.9325 17.2952C40.7963 16.1198 39.9325 15.3207 39.9325 15.3207L32.5712 9.13814C30.9522 3.85024 26.0054 2.38419e-07 20.148 2.38419e-07C14.2845 2.38419e-07 9.32824 3.86257 7.71863 9.16282L0.385311 15.3238C0.385311 15.3238 -0.481639 16.1229 0.385311 17.2983L4.42486 18.7606C4.42486 18.7606 2.98304 26.6339 7.88642 27.4237C10.7234 27.8803 11.5314 25.1037 11.7085 22.6818C13.0633 23.8326 14.6573 24.7118 16.4068 25.2332C14.0732 26.5691 12.5008 29.068 12.5008 31.9372V35.9496C12.5008 36.712 13.1189 37.33 13.8813 37.33H26.6975C27.4599 37.33 28.078 36.712 28.078 35.9496V31.9341H28.0811ZM17.5534 18.6156C17.5534 19.2481 17.0376 19.7602 16.4006 19.7602C15.7635 19.7602 15.2477 19.2481 15.2477 18.6156V9.45282C15.2477 8.82037 15.7635 8.30824 16.4006 8.30824C17.0376 8.30824 17.5534 8.82037 17.5534 9.45282V18.6156ZM23.0347 18.6156V9.45282C23.0347 8.82037 23.5506 8.30824 24.1876 8.30824C24.8246 8.30824 25.3404 8.82037 25.3404 9.45282V18.6187C25.3404 19.2512 24.8246 19.7633 24.1876 19.7633C23.5506 19.7633 23.0347 19.2481 23.0347 18.6156V18.6156Z" fill="white"/>
</g>
<defs>
<clipPath id="clip0_1_2">
<rect width="41.3333" height="37.3333" fill="white"/>
</clipPath>
</defs>
</svg>
