<svg width="32" height="32" viewBox="0 0 32 32" fill="none" xmlns="http://www.w3.org/2000/svg">
<path d="M7.94183 2.01308C5.14328 2.51344 2.89165 4.58472 2.18183 7.30763C1.92583 8.2909 1.90837 8.8669 1.93746 16.4945C1.95492 23.4996 1.96074 23.6625 2.0771 24.2036C2.72292 27.1185 4.79419 29.1956 7.73819 29.8822C8.12219 29.9694 8.61092 29.9869 11.7586 30.0044C15.0167 30.0276 15.3542 30.0218 15.4415 29.9345C15.5287 29.8473 15.5346 28.7244 15.5346 15.9942C15.5346 6.55708 15.5171 2.11199 15.4764 2.03053C15.4182 1.92581 15.3193 1.91999 11.9098 1.92581C9.14037 1.93162 8.30837 1.94908 7.94183 2.01308ZM13.2073 15.9767V27.7644L10.8393 27.7353C8.65746 27.712 8.42474 27.7004 7.98837 27.5898C6.11492 27.1069 4.72437 25.664 4.33455 23.7847C4.20655 23.1971 4.20655 8.72144 4.32874 8.14544C4.67783 6.51054 5.81237 5.1549 7.34256 4.54399C8.11056 4.23562 8.46546 4.20072 10.9556 4.1949L13.2073 4.18908V15.9767Z" fill="white"/>
<path d="M8.44218 7.744C8.07563 7.81382 7.51709 8.0931 7.22036 8.35491C6.60945 8.88437 6.30691 9.63491 6.35345 10.5193C6.37672 10.9789 6.40582 11.1011 6.592 11.4735C6.86545 12.0378 7.27854 12.4509 7.84291 12.7302C8.23272 12.9222 8.33163 12.9455 8.83782 12.9629C9.29745 12.9804 9.46036 12.9629 9.76872 12.8582C11.0313 12.4335 11.7935 11.2058 11.5782 9.9491C11.328 8.45382 9.90836 7.4531 8.44218 7.744Z" fill="white"/>
<path d="M18.368 1.96074C18.3447 1.9782 18.3273 8.28511 18.3273 15.9767C18.3273 28.6662 18.3331 29.952 18.4204 29.9869C18.5775 30.0451 23.0924 30.0218 23.6509 29.9637C26.0131 29.696 28.096 28.2589 29.2305 26.1237C29.376 25.8502 29.568 25.3906 29.6669 25.1055C30.0335 24.0117 30.0218 24.3026 30.0218 15.9418C30.0218 9.26838 30.0102 8.27347 29.9287 7.84875C29.3527 4.81747 27.0429 2.53093 24.0058 2.00729C23.5985 1.93747 22.9702 1.92002 20.9455 1.92002C19.5491 1.92002 18.3855 1.93747 18.368 1.96074ZM24.5818 14.6327C25.4895 14.8713 26.2342 15.5637 26.5367 16.448C26.7287 16.9949 26.7229 17.7978 26.5309 18.2982C26.176 19.2175 25.4778 19.8633 24.5818 20.1018C23.1273 20.48 21.5796 19.6015 21.1549 18.1586C21.0269 17.7164 21.0327 16.9717 21.1782 16.5178C21.6145 15.0924 23.1273 14.2546 24.5818 14.6327Z" fill="white"/>
</svg>
