<svg width="25" height="17" viewBox="0 0 25 17" fill="none" xmlns="http://www.w3.org/2000/svg">
<path d="M24.7383 4.56136C24.4349 4.48998 23.9881 4.47785 23.3458 4.64129C21.8106 5.03313 21.1204 7.63893 20.134 8.22489C19.6194 8.53037 18.6181 8.25416 17.6874 7.85947C17.3616 7.49014 17.1256 7.05044 16.9979 6.57477C16.5925 5.07024 15.4741 4.1838 15.4741 4.1838C15.325 4.67698 14.5163 5.38785 14.1894 5.72044C13.8811 5.49205 13.5999 5.2815 13.4043 5.13662C13.335 5.08436 13.2883 5.00747 13.274 4.92182C13.2596 4.83616 13.2787 4.74827 13.3273 4.67626C13.6628 4.15906 13.9402 3.60638 14.1545 3.02828C14.1765 2.96915 14.1815 2.90502 14.1689 2.84319C14.1563 2.78136 14.1265 2.72431 14.0831 2.67856C13.7762 2.35238 13.0032 1.5837 12.1418 1.10836C11.2989 0.64159 10.0563 0.161254 9.03564 0.0570502C7.10859 -0.139937 5.76893 0.218351 5.14871 0.446742C5.10055 0.46422 5.05699 0.492407 5.02132 0.529175C4.98565 0.565943 4.95879 0.610333 4.94278 0.658995C4.92676 0.707656 4.92201 0.759319 4.92887 0.810086C4.93574 0.860853 4.95404 0.909399 4.98241 0.952059C5.6165 1.94001 6.16109 2.98262 6.6097 4.06746C6.62905 4.11456 6.63754 4.16542 6.63454 4.21625C6.63155 4.26708 6.61713 4.31659 6.59238 4.36109C6.56763 4.40559 6.53317 4.44394 6.49156 4.4733C6.44995 4.50266 6.40227 4.52226 6.35204 4.53066C5.56695 4.66841 4.6334 4.58277 3.71127 4.5792C2.39445 4.57349 2.07613 4.58919 1.03624 5.01243C0.301815 5.31148 -0.0343491 6.50554 0.00276449 7.51046C0.00845178 7.63676 0.0434446 7.76002 0.104977 7.87047C0.166509 7.98092 0.252893 8.07554 0.357298 8.14685C0.461702 8.21816 0.581266 8.2642 0.706533 8.28134C0.831801 8.29848 0.959336 8.28624 1.07906 8.24559L1.09333 8.2406C1.78279 8.02149 2.37018 8.15566 3.02038 8.49326C3.75837 8.87581 4.99169 9.67732 5.41064 10.3646C5.8296 11.0519 5.85815 10.9699 4.81326 11.1619C3.66773 11.376 2.57788 12.0248 2.02974 11.9512C1.67647 11.9039 1.34451 11.7552 1.07406 11.523C1.03037 11.4869 0.978288 11.4623 0.922615 11.4516C0.866942 11.4408 0.809461 11.4442 0.755454 11.4615C0.701446 11.4788 0.652644 11.5093 0.613535 11.5504C0.574425 11.5914 0.546263 11.6417 0.531633 11.6964C0.382465 12.261 0.353203 12.8341 1.13402 13.1667C2.08541 13.5714 2.72633 13.7027 3.84616 13.829C4.88777 13.958 5.9392 13.9886 6.98654 13.9204C7.14999 13.9083 7.30272 13.8961 7.44689 13.8861C7.15355 14.3365 6.70034 14.8418 6.05585 15.0638C5.30715 15.3207 6.09724 16.6161 8.38615 16.3135C9.41534 16.1779 9.80075 15.143 9.61304 14.0953C10.2946 14.3158 10.9934 14.5949 11.6579 14.7091C12.9818 14.9317 13.6056 14.5884 14.5791 14.0946C15.387 13.6828 16.247 13.3826 17.1357 13.2024C17.2156 13.1872 17.2983 13.2012 17.3687 13.2418C17.4392 13.2824 17.4927 13.3469 17.5197 13.4237C17.6852 13.8976 17.9914 14.6805 18.5631 14.8225C19.1941 14.9789 20.3688 14.6976 21.0983 14.2965C21.1399 14.2739 21.1762 14.2429 21.2051 14.2053C21.2339 14.1678 21.2545 14.1246 21.2656 14.0786C21.2767 14.0326 21.278 13.9848 21.2695 13.9382C21.261 13.8917 21.2427 13.8474 21.216 13.8083C21.0872 13.6395 20.9144 13.5093 20.7164 13.4322C19.5188 12.9041 19.289 12.3616 19.1819 11.9641C19.1695 11.9179 19.167 11.8696 19.1746 11.8223C19.1823 11.7751 19.1998 11.73 19.2262 11.69C19.4175 11.4045 19.9171 10.7372 20.4395 10.8093C21.1004 10.9014 20.9598 11.5851 21.8827 12.1654C22.4765 12.5386 23.0453 12.5572 23.3993 12.4187C23.4452 12.4007 23.4866 12.3728 23.5205 12.3371C23.5544 12.3013 23.58 12.2585 23.5955 12.2117C23.6111 12.1649 23.6161 12.1153 23.6103 12.0663C23.6045 12.0174 23.5881 11.9703 23.562 11.9284C23.3686 11.6151 23.0532 10.987 22.8826 10.0242C22.6756 8.84798 23.1631 7.34916 23.6513 6.55264C24.1088 5.80609 24.5484 5.38928 24.8646 5.1616C24.9161 5.12296 24.9556 5.07039 24.9783 5.01009C25.001 4.94979 25.006 4.88426 24.9928 4.82121C24.9795 4.75816 24.9485 4.70021 24.9034 4.65417C24.8583 4.60814 24.801 4.57594 24.7383 4.56136ZM6.53833 9.53315C5.57409 9.27692 4.92745 8.41689 5.05235 7.43124C5.21437 6.14653 6.36132 5.15946 7.86157 5.80823C9.43747 6.48984 9.09702 8.10642 8.74159 8.78017C8.38615 9.45393 7.39979 9.76083 6.54118 9.53315H6.53833Z" fill="#FFFFFF"/>
<path d="M7.04072 6.73963C6.68029 6.71465 6.40479 6.88237 6.2235 7.18499C5.958 7.63107 6.14428 8.28698 6.83517 8.51252C6.96576 8.55872 7.10561 8.57256 7.24273 8.55284C7.37984 8.53313 7.51013 8.48045 7.62242 8.39932C7.7347 8.3182 7.82563 8.21105 7.88741 8.08706C7.94919 7.96307 7.97998 7.82595 7.97712 7.68745C7.97498 7.11576 7.46395 6.7696 7.04072 6.73963ZM7.25483 7.88158C7.22191 7.9153 7.18138 7.94061 7.13663 7.95539C7.09188 7.97016 7.04424 7.97397 6.99772 7.96648C6.95119 7.959 6.90715 7.94044 6.8693 7.91237C6.83144 7.88431 6.80089 7.84756 6.78021 7.80522C6.66744 7.58396 6.78021 7.37698 6.95293 7.33701C7.00692 7.32012 7.06472 7.31965 7.11898 7.33566C7.17324 7.35167 7.22152 7.38344 7.25769 7.42694C7.31386 7.48933 7.34495 7.57031 7.34495 7.65426C7.34495 7.73822 7.31386 7.81919 7.25769 7.88158H7.25483Z" fill="#FFFFFF"/>
</svg>
