<svg width="150" height="161" viewBox="0 0 150 161" fill="none" xmlns="http://www.w3.org/2000/svg">
<g clip-path="url(#clip0_0_3)">
<path d="M108.84 65C109.29 53.63 123.06 57.38 123.98 43.79C124.32 38.72 118.72 34.29 113.73 35.27C107.97 36.4 103.81 41.97 101.73 47.45C99.73 52.67 91.35 55.27 86.11 52.58C79.29 49.07 78.61 41.91 79.88 37.69C81.3 32.94 85.07 18.27 82.46 7.69C81.27 2.88 76 -0.869996 71.13 0.180004C65.32 1.43 62.84 8.54 63.13 14.47C63.42 20.4 69.04 33.86 65.44 46.14C65.01 47.6 63.14 50.9 60.37 51.44C50.59 53.35 45.21 53.95 36.83 67.53C34.73 70.93 26.97 68.2 21.75 62.85C18.33 59.28 11.71 58.32 6 62.12C4.05563 63.3846 2.61643 65.2911 1.93303 67.5076C1.24964 69.7241 1.36534 72.1101 2.26 74.25C3.98 78.88 10.26 81.84 16.53 81.43C25.79 80.83 30 87 30 93.6C30 101.08 25.09 105.87 17.88 105.89C14.02 105.89 8.61 105.25 4.28 107.89C2.63508 108.851 1.35932 110.336 0.656118 112.106C-0.0470836 113.877 -0.137248 115.832 0.400001 117.66C2.25 123 7.4 125.22 13.53 122.23C18.91 119.61 27.03 114.08 31.9 114.95C36.45 115.76 38.67 119.63 38.53 123.86C38.41 127.46 41.14 131.08 48.02 128.86C52.75 127.37 56.27 131.86 56.92 135.86C57.65 140.43 56.22 141.97 53.18 146.72C49.62 152.29 51.64 157.26 55.03 158.6C56.8843 159.403 58.9383 159.626 60.9216 159.238C62.9049 158.851 64.7242 157.872 66.14 156.43C68.91 153.51 68.42 149.29 68.33 143.83C68.26 139.83 69.56 136.29 72.73 133.83C75.16 131.93 80.15 130.34 85.34 130.83C90.34 131.31 92.12 136.19 92.61 138.07C95.34 148.47 111.92 141.52 102.61 132.21C99.16 128.74 97.48 124.38 100.42 120.54C103.14 116.99 108.13 113.28 112.79 112.92C119 112.44 126.26 121.59 133.55 124.31C138.6 126.2 145.07 126.42 147.92 121.83C151.12 116.67 147.53 110.18 143.35 107.99C135.16 103.71 122.01 104.56 117.41 100.61C114.21 97.86 121.07 86.89 117.92 78.86C115.19 71.84 108.59 71.46 108.84 65Z" fill="black"/>
<path d="M18.95 141C16.44 137.05 20.56 130.27 25.83 131.23C30.21 132.03 33.78 137.85 30.99 141.62C30.2879 142.591 29.3538 143.372 28.2728 143.89C27.1918 144.408 25.9984 144.647 24.8014 144.585C23.6043 144.523 22.4417 144.163 21.4197 143.537C20.3976 142.911 19.5486 142.038 18.95 141V141Z" fill="black"/>
<path d="M27.34 41.17C32.43 41.09 34.68 47.46 32.23 51.61C29.78 55.76 21.64 55.3 20.5 49.76C20.2813 48.7333 20.2928 47.6708 20.5334 46.649C20.7741 45.6272 21.2381 44.6714 21.892 43.8501C22.5459 43.0289 23.3736 42.3627 24.3155 41.8993C25.2575 41.4359 26.2904 41.1868 27.34 41.17V41.17Z" fill="black"/>
<path d="M5.12 42.07C4.46 39.07 7.82 37 10.48 37.94C13.14 38.88 13.87 43.73 10.85 45.07C10.281 45.3161 9.66411 45.4319 9.04456 45.4089C8.42502 45.3859 7.81844 45.2248 7.26919 44.9372C6.71994 44.6496 6.24191 44.2429 5.87006 43.7469C5.49821 43.2508 5.24194 42.6779 5.12 42.07V42.07Z" fill="black"/>
<path d="M94.89 157.56C94.23 154.56 97.59 152.49 100.25 153.43C102.91 154.37 103.64 159.22 100.62 160.56C100.051 160.806 99.4341 160.922 98.8146 160.899C98.195 160.876 97.5884 160.715 97.0392 160.427C96.4899 160.14 96.0119 159.733 95.6401 159.237C95.2682 158.741 95.0119 158.168 94.89 157.56V157.56Z" fill="black"/>
<path d="M138 63C140.84 66.17 138.19 71 134.31 71.68C130.43 72.36 126.2 67 129 63.31C131.8 59.62 136.06 60.9 138 63Z" fill="black"/>
<path d="M36.61 150.24C38.83 152.72 36.76 156.49 33.73 157.02C30.7 157.55 27.44 153.34 29.58 150.46C29.9882 149.924 30.5108 149.486 31.1098 149.177C31.7088 148.868 32.3691 148.697 33.0426 148.676C33.7161 148.655 34.3858 148.785 35.003 149.055C35.6201 149.326 36.1691 149.73 36.61 150.24V150.24Z" fill="black"/>
<path d="M66.1136 80.24C63.5856 80.208 61.2016 80.272 58.9616 80.432C59.1536 88.848 59.2816 97.2 59.3456 105.488C62.4176 105.552 64.6736 105.6 66.1136 105.632C66.1456 104.096 66.1776 102.768 66.2096 101.648C64.0016 101.744 62.5456 101.824 61.8416 101.888L61.9376 95.984L73.2656 96.608C73.0096 100.448 72.7856 103.52 72.5936 105.824C70.8016 107.68 68.7536 109.648 66.4496 111.728C63.5376 111.76 61.1856 111.824 59.3936 111.92C57.1856 110.32 55.1056 108.432 53.1536 106.256C52.4496 98.16 51.7296 89.536 50.9936 80.384C53.5856 77.696 56.0976 75.12 58.5296 72.656C61.4736 72.592 64.7536 72.544 68.3696 72.512C70.0016 74.88 71.8416 77.232 73.8896 79.568C73.8256 81.744 73.7136 83.872 73.5536 85.952C71.0256 85.92 68.4016 85.92 65.6816 85.952C65.8096 84.128 65.9536 82.224 66.1136 80.24ZM97.2105 106.112C96.4745 107.008 95.6425 107.952 94.7145 108.944C93.7865 109.936 93.0505 110.704 92.5065 111.248L91.6905 112.112C90.8585 112.112 89.8345 112.08 88.6185 112.016C87.4025 111.952 86.3945 111.888 85.5945 111.824L84.3945 111.728C83.4025 110.64 82.3785 109.568 81.3225 108.512C80.2985 107.424 79.5305 106.624 79.0185 106.112L78.2025 105.344L77.8665 98.72C79.1785 98.656 80.3945 98.64 81.5145 98.672C82.6345 98.672 83.5625 98.704 84.2985 98.768L85.4505 98.816L85.1145 104.96L90.8265 105.248L91.2585 72.32L99.1305 72.656L97.2105 106.112Z" fill="#39E464"/>
</g>
<defs>
<clipPath id="clip0_0_3">
<rect width="149.2" height="160.94" fill="white"/>
</clipPath>
</defs>
</svg>
