<svg width="65" height="65" viewBox="0 0 65 65" fill="none" xmlns="http://www.w3.org/2000/svg">
<g clip-path="url(#clip0_1_2)">
<path fill-rule="evenodd" clip-rule="evenodd" d="M58.9495 24.6744L62.7878 20.5323C61.4345 17.1257 59.517 13.9717 57.1159 11.2021L51.6439 12.6522C49.8298 10.9021 47.7764 9.39821 45.5374 8.19473L45.3184 2.5807C41.9504 1.13888 38.366 0.266697 34.712 0L31.9345 4.92995C29.4257 4.98038 26.999 5.36585 24.6976 6.04362L20.5323 2.18361C17.1137 3.53029 13.9492 5.44838 11.1737 7.85554L12.6466 13.3618C10.9025 15.1708 9.40334 17.2173 8.20241 19.4484L2.5807 19.6814C1.11268 23.0409 0.239515 26.6297 0 30.288L4.92995 33.0655C4.98038 35.5743 5.36585 38.001 6.04362 40.3024L2.18361 44.4677C3.53541 47.8751 5.4531 51.0293 7.85554 53.7981L13.35 52.3419C15.1619 54.091 17.2126 55.5941 19.4484 56.7976L19.6814 62.4193C23.0386 63.8647 26.6142 64.737 30.2595 65L33.0367 60.0706C35.5479 60.0228 37.9769 59.6391 40.2807 58.9629L44.4393 62.8164C47.8457 61.463 51 59.5455 53.7696 57.1445L52.3299 51.6626C54.0534 49.8794 55.5386 47.8644 56.7342 45.669L62.4475 45.432C63.8934 42.0668 64.7565 38.4802 65 34.8256L60.0714 32.0013C60.0263 29.4604 59.6375 27.0032 58.9495 24.6744ZM47.2727 32.5C47.2727 40.6589 40.6587 47.2727 32.5 47.2727C24.3413 47.2727 17.7273 40.6589 17.7273 32.5C17.7273 24.3411 24.3413 17.7273 32.5 17.7273C40.6587 17.7273 47.2727 24.3411 47.2727 32.5Z" fill="white"/>
</g>
<defs>
<clipPath id="clip0_1_2">
<rect width="65" height="65" fill="white"/>
</clipPath>
</defs>
</svg>
