<svg width="120" height="152" viewBox="0 0 120 152" fill="none" xmlns="http://www.w3.org/2000/svg">
<path d="M79.9 0V4.14C80.7029 4.38013 81.3926 4.90116 81.843 5.60787C82.2935 6.31458 82.4746 7.15977 82.3532 7.98899C82.2319 8.81821 81.8162 9.57608 81.1822 10.1241C80.5481 10.6721 79.7381 10.9737 78.9 10.9737C78.062 10.9737 77.2519 10.6721 76.6178 10.1241C75.9838 9.57608 75.5681 8.81821 75.4468 7.98899C75.3254 7.15977 75.5065 6.31458 75.957 5.60787C76.4074 4.90116 77.0971 4.38013 77.9 4.14V0H42.09V4.14C42.8929 4.38013 43.5826 4.90116 44.033 5.60787C44.4835 6.31458 44.6646 7.15977 44.5432 7.98899C44.4219 8.81821 44.0062 9.57608 43.3722 10.1241C42.7381 10.6721 41.928 10.9737 41.09 10.9737C40.2519 10.9737 39.4419 10.6721 38.8078 10.1241C38.1738 9.57608 37.7581 8.81821 37.6368 7.98899C37.5154 7.15977 37.6965 6.31458 38.147 5.60787C38.5974 4.90116 39.2871 4.38013 40.09 4.14V0H0V152H120V0H79.9Z" fill="black"/>
</svg>
