<svg width="1024" height="1024" viewBox="0 0 1024 1024" fill="none" xmlns="http://www.w3.org/2000/svg">
<path fill-rule="evenodd" clip-rule="evenodd" d="M742.917 308.452C718.219 303.047 692.704 302.557 667.817 307.017C642.931 311.475 619.168 320.789 597.887 334.432C576.599 348.075 558.211 365.775 543.774 386.527C529.332 407.279 519.123 430.672 513.725 455.37C508.327 430.672 498.118 407.279 483.676 386.527C469.233 365.775 450.851 348.075 429.564 334.432C408.282 320.789 384.519 311.475 359.633 307.017C334.747 302.557 309.231 303.047 284.533 308.452C256.777 313.098 230.279 323.424 206.703 338.789C183.127 354.155 162.983 374.225 147.532 397.747C132.082 421.269 121.659 447.731 116.918 475.47C112.178 503.214 113.221 531.628 119.984 558.949C123.305 584.117 131.768 608.333 144.847 630.097C157.925 651.86 175.341 670.696 196.01 685.444C216.679 700.186 240.16 710.524 264.992 715.805C289.826 721.085 315.482 721.203 340.363 716.152C380.685 712.676 418.897 696.629 449.61 670.266C480.318 643.904 501.976 608.562 511.52 569.234C521.211 608.621 543.004 643.981 573.841 670.337C604.673 696.693 642.996 712.718 683.412 716.152C708.304 721.315 733.996 721.285 758.871 716.046C783.745 710.812 807.273 700.486 827.966 685.726C848.66 670.96 866.084 652.078 879.133 630.261C892.181 608.445 900.573 584.164 903.789 558.949C910.581 531.893 911.752 503.731 907.241 476.205C902.725 448.678 892.622 422.369 877.545 398.894C862.473 375.425 842.75 355.29 819.593 339.736C796.441 324.182 770.344 313.533 742.917 308.452V308.452ZM299.958 391.467C314.095 388.738 328.643 388.95 342.697 392.084C356.752 395.219 370.012 401.205 381.649 409.679C393.293 418.147 403.066 428.925 410.37 441.333C417.673 453.747 422.348 467.525 424.101 481.815C427.982 497.41 428.282 513.681 424.983 529.411C421.678 545.136 414.862 559.919 405.042 572.639C395.216 585.358 382.643 595.69 368.26 602.858C353.882 610.033 338.063 613.855 321.992 614.043C307.591 613.861 293.372 610.779 280.182 604.987C266.998 599.189 255.113 590.798 245.239 580.307C235.366 569.816 227.708 557.449 222.721 543.93C217.734 530.417 215.52 516.039 216.212 501.655C213.244 476.028 220.304 450.248 235.913 429.708C251.522 409.173 274.472 395.466 299.958 391.467ZM691.233 397.606C704.623 394.678 718.478 394.583 731.909 397.318C756.16 400.97 778.053 413.877 792.983 433.33C807.914 452.783 814.724 477.269 811.977 501.638C812.571 515.286 810.413 528.917 805.644 541.725C800.869 554.527 793.571 566.241 784.186 576.173C774.801 586.105 763.516 594.055 751.009 599.548C738.495 605.04 725.005 607.969 711.339 608.151C696.12 608.045 681.125 604.487 667.476 597.742C653.834 591.003 641.896 581.253 632.558 569.234C623.226 557.214 616.739 543.23 613.587 528.341C610.441 513.452 610.712 498.039 614.376 483.273C615.84 469.642 620.133 456.47 626.977 444.597C633.828 432.718 643.078 422.41 654.145 414.318C665.206 406.227 677.844 400.534 691.233 397.606V397.606Z" fill="white"/>
</svg>
