<svg width="32" height="32" viewBox="0 0 32 32" fill="none" xmlns="http://www.w3.org/2000/svg">
<path d="M23.7309 7C20.1947 7 17.1877 9.2913 16.003 12.5208C14.8123 9.2913 11.7993 7 8.26912 7C3.69855 7 0 10.8369 0 15.5698C0 20.3028 3.69855 24.1396 8.26912 24.1396C11.7993 24.1396 14.8123 21.8483 16.003 18.6189C17.1877 21.8483 20.1947 24.1396 23.7309 24.1396C28.2954 24.1396 32 20.3028 32 15.5698C32 10.8369 28.2954 7 23.7309 7ZM8.88855 17.1274C6.23041 17.1274 4.07743 15.1067 4.07743 12.617C4.07743 10.1272 6.23041 8.10656 8.88855 8.10656C11.5467 8.10656 13.6997 10.1272 13.6997 12.617C13.6997 15.1067 11.5467 17.1274 8.88855 17.1274ZM22.7867 17.1274C20.1285 17.1274 17.9756 15.1067 17.9756 12.617C17.9756 10.1272 20.1285 8.10656 22.7867 8.10656C25.4448 8.10656 27.5978 10.1272 27.5978 12.617C27.5978 15.1067 25.4388 17.1274 22.7867 17.1274Z" fill="#FDFBF9"/>
</svg>
