<svg width="100" height="100" viewBox="0 0 100 100" fill="none" xmlns="http://www.w3.org/2000/svg">
<path d="M35.92 82.356H35.09C34.1625 82.356 33.4125 83.106 33.4125 84.0335V85.7185C33.4125 86.646 34.1625 87.396 35.09 87.396H35.92C36.8475 87.396 37.5975 86.646 37.5975 85.7185V84.0335C37.5975 83.106 36.8475 82.356 35.92 82.356ZM36.16 85.7735C36.16 86.0585 35.93 86.2885 35.645 86.2885H35.37C35.085 86.2885 34.855 86.0585 34.855 85.7735V83.9785C34.855 83.6935 35.085 83.4635 35.37 83.4635H35.645C35.93 83.4635 36.16 83.6935 36.16 83.9785V85.7735Z" fill="white"/>
<path d="M38.6675 82.356H37.8375C36.915 82.356 36.16 83.111 36.16 84.0335V84.876H37.5975V83.9785C37.5975 83.6935 37.8275 83.4635 38.1125 83.4635H38.3875C38.6725 83.4635 38.9025 83.6935 38.9025 83.9785V87.196H40.34V84.0335C40.34 83.111 39.585 82.356 38.6625 82.356H38.6675Z" fill="white"/>
<path d="M57.1725 87.3759V82.3359H55.735V87.3759H57.1725Z" fill="white"/>
<path d="M57.02 83.3135L58.94 84.341V85.996L56.3325 84.601L57.02 83.3135Z" fill="white"/>
<path d="M41.3275 85.606H42.855V84.1485H41.3275V85.606Z" fill="white"/>
<path d="M44.9625 85.3459V85.5309C44.9625 85.7459 44.79 85.9184 44.575 85.9184H44.1125C43.8975 85.9184 43.725 85.7459 43.725 85.5309V84.2209C43.725 84.0059 43.8975 83.8334 44.1125 83.8334H44.575C44.79 83.8334 44.9625 84.0059 44.9625 84.2209V84.4034H46.4V83.6634C46.4 82.9509 45.8225 82.3734 45.11 82.3734H43.5775C42.865 82.3734 42.2875 82.9509 42.2875 83.6634V86.0859C42.2875 86.7984 42.865 87.3759 43.5775 87.3759H45.11C45.8225 87.3759 46.4 86.7984 46.4 86.0859V85.3459H44.9625V85.3459Z" fill="white"/>
<path d="M50.1775 82.3534H49.09C48.235 82.3534 47.5425 83.0459 47.5425 83.9009V87.3934H48.98V84.3284C48.98 84.0434 49.21 83.8134 49.495 83.8134H49.77C50.055 83.8134 50.285 84.0434 50.285 84.3284V85.1884H51.7225V83.9009C51.7225 83.0459 51.03 82.3534 50.175 82.3534H50.1775Z" fill="white"/>
<path d="M53.0325 82.3534V85.4184C53.0325 85.7034 52.8025 85.9334 52.5175 85.9334H52.2425C51.9575 85.9334 51.7275 85.7034 51.7275 85.4184V84.8759H50.29V85.8459C50.29 86.7009 50.9825 87.3934 51.8375 87.3934H52.925C53.78 87.3934 54.4725 86.7009 54.4725 85.8459V82.3534H53.035H53.0325Z" fill="white"/>
<path d="M66.61 87.4134V82.3734H65.1725V87.4134H66.61Z" fill="white"/>
<path d="M64.1275 85.6234H65.4825V84.1659H64.1275V85.6234Z" fill="white"/>
<path d="M62.8625 82.3359V85.4009C62.8625 85.6859 62.6325 85.9159 62.3475 85.9159H62.0725C61.7875 85.9159 61.5575 85.6859 61.5575 85.4009V82.3359H60.12V85.8284C60.12 86.6834 60.8125 87.3759 61.6675 87.3759H62.755C63.61 87.3759 64.3025 86.6834 64.3025 85.8284V82.3359H62.865H62.8625Z" fill="white"/>
<path d="M55.255 68.3085H52.725V70.8935H55.255V68.3085Z" fill="white"/>
<path d="M53.99 70.4285C51.6 70.4285 49.665 72.366 49.665 74.7535C49.665 77.141 51.6025 79.0785 53.99 79.0785C56.3775 79.0785 58.315 77.141 58.315 74.7535C58.315 72.366 56.3775 70.4285 53.99 70.4285ZM53.99 76.576C52.985 76.576 52.17 75.761 52.17 74.756C52.17 73.751 52.985 72.936 53.99 72.936C54.995 72.936 55.81 73.751 55.81 74.756C55.81 75.761 54.995 76.576 53.99 76.576Z" fill="white"/>
<path d="M39.2 79.081L35.9475 79.0685L32.1375 71.881L34.9325 70.751L39.2 79.081Z" fill="white"/>
<path d="M32.21 79.0685L28.955 79.081L33.225 70.751L36.0175 71.881L32.21 79.0685Z" fill="white"/>
<path d="M38.64 70.5385H29.515V73.581H38.64V70.5385Z" fill="white"/>
<path d="M69.83 70.911C70.5977 70.911 71.22 70.2887 71.22 69.521C71.22 68.7533 70.5977 68.131 69.83 68.131C69.0623 68.131 68.44 68.7533 68.44 69.521C68.44 70.2887 69.0623 70.911 69.83 70.911Z" fill="white"/>
<path d="M74.5675 70.911C75.3352 70.911 75.9575 70.2887 75.9575 69.521C75.9575 68.7533 75.3352 68.131 74.5675 68.131C73.7998 68.131 73.1775 68.7533 73.1775 69.521C73.1775 70.2887 73.7998 70.911 74.5675 70.911Z" fill="white"/>
<path d="M73.0675 71.431H71.33C69.39 71.431 67.815 73.0035 67.815 74.946V79.0835H70.8275V75.5585C70.8275 74.961 71.3125 74.4785 71.9075 74.4785H72.485C73.0825 74.4785 73.565 74.9635 73.565 75.5585V79.0835H76.5775V74.946C76.5775 73.006 75.005 71.431 73.0625 71.431H73.0675Z" fill="white"/>
<path d="M24 68.526H22.2625C20.3225 68.526 18.7475 70.0985 18.7475 72.041V75.5685C18.7475 77.5085 20.32 79.0835 22.2625 79.0835H24C25.94 79.0835 27.515 77.511 27.515 75.5685V72.041C27.515 70.101 25.9425 68.526 24 68.526ZM24.5 74.956C24.5 75.5535 24.015 76.036 23.42 76.036H22.8425C22.245 76.036 21.7625 75.551 21.7625 74.956V72.651C21.7625 72.0535 22.2475 71.571 22.8425 71.571H23.42C24.0175 71.571 24.5 72.056 24.5 72.651V74.956V74.956Z" fill="white"/>
<path d="M18.75 73.8035V74.956C18.75 75.5535 18.265 76.036 17.67 76.036H17.0925C16.495 76.036 16.0125 75.551 16.0125 74.956V69.1935H13V75.566C13 77.4985 14.58 79.081 16.515 79.081H18.2525C20.185 79.081 21.7675 77.501 21.7675 75.566V73.801H18.755L18.75 73.8035Z" fill="white"/>
<path d="M65.9175 69.646H62.905V79.081H65.9175V69.646Z" fill="white"/>
<path d="M65.0975 76.796L59.6275 74.011V70.5935L64.9175 73.2885L65.0975 76.796Z" fill="white"/>
<path d="M84.1875 70.5385H77.87V73.581H82.5925C83.3775 73.581 84.0125 74.216 84.0125 75.001V79.081H87.025V73.3785C87.025 71.811 85.755 70.5385 84.185 70.5385H84.1875Z" fill="white"/>
<path d="M82.175 68.3085H79.1625V79.081H82.175V68.3085Z" fill="white"/>
<path d="M48.1425 70.5385H40.6675V73.581H48.1425V70.5385Z" fill="white"/>
<path d="M48.1425 76.0385H40.6675V79.081H48.1425V76.0385Z" fill="white"/>
<path d="M42.11 78.0535L40.6675 76.0385L47.0225 71.3285L48.1425 73.581L42.11 78.0535Z" fill="white"/>
<path d="M28.7675 50.8085H28.7575C26.4175 50.756 22.6 47.9235 20.7475 44.866C19.3125 42.496 19.155 39.6085 20.375 37.996C21.0975 37.041 22.2125 36.6885 23.4325 37.0235C23.6825 37.0935 24.13 37.1685 24.335 36.911C24.5225 36.671 24.5425 36.0835 24.1375 35.356C23.5775 34.346 22.96 31.981 22.9725 30.1985C22.9975 26.5735 24.765 24.551 26.4125 23.8635C27.7375 23.311 29.0925 23.531 30.0375 24.456C30.535 24.9435 31.055 25.166 31.465 25.0585C31.89 24.9485 32.1075 24.506 32.2125 24.1535C32.33 23.766 32.46 22.9335 32.575 22.201C32.6575 21.671 32.7375 21.171 32.8125 20.8035C33.4025 17.9435 34.805 16.686 35.8775 16.1335C37.2675 15.4185 38.6825 15.576 39.475 15.926C40.3375 16.3085 41.02 17.3635 41.4275 17.9935L41.47 18.056C41.7775 18.531 42.265 18.7885 42.74 18.726C43.1925 18.6685 43.5425 18.331 43.725 17.781C44.12 16.5885 44.9825 15.061 45.8225 14.066C46.96 12.721 48.4975 11.9685 50.0275 12.001C51.4975 12.031 52.8625 12.766 53.8725 14.066C54.625 15.0335 55.2025 16.0285 56.005 17.731C56.2825 18.3185 56.7075 18.676 57.1725 18.706C57.5875 18.736 57.9925 18.4985 58.2775 18.0585L58.32 17.9935C58.7275 17.3635 59.41 16.311 60.27 15.9285C61.06 15.5785 62.4775 15.4235 63.8675 16.136C64.94 16.6885 66.3425 17.946 66.9325 20.806C67.0075 21.1735 67.0875 21.6735 67.17 22.201C67.285 22.9335 67.415 23.766 67.5325 24.1535C67.685 24.6635 67.9175 24.9735 68.18 25.0285C68.4875 25.091 68.9175 24.8285 69.335 24.3285C70.215 23.2735 71.6525 22.921 73.09 23.4135C74.77 23.9885 76.61 25.846 76.735 29.341C76.8 31.121 76.2525 33.506 75.7225 34.531C75.34 35.2685 75.3775 35.8585 75.5725 36.091C75.785 36.3435 76.23 36.2535 76.4775 36.176C77.685 35.8035 78.81 36.1235 79.5625 37.0585C80.83 38.6335 80.7575 41.526 79.3925 43.936C77.63 47.046 73.8975 49.9885 71.56 50.1085C71.32 50.1135 71.0975 49.931 71.085 49.681C71.0725 49.431 71.2625 49.2185 71.5125 49.206C73.5525 49.101 77 46.3235 78.605 43.4885C79.9525 41.1085 79.7525 38.736 78.8575 37.6235C78.335 36.976 77.605 36.7735 76.7425 37.0385C75.6675 37.371 75.1125 36.9485 74.8775 36.6685C74.39 36.086 74.405 35.106 74.92 34.1135C75.3875 33.2085 75.89 30.941 75.8325 29.371C75.7225 26.3335 74.1925 24.7435 72.7975 24.266C71.725 23.8985 70.6625 24.1435 70.0275 24.906C69.375 25.6885 68.655 26.046 67.9975 25.911C67.57 25.8235 66.99 25.4935 66.665 24.411C66.53 23.9635 66.4 23.136 66.275 22.3385C66.1925 21.821 66.1175 21.331 66.045 20.9835C65.5275 18.4735 64.3475 17.396 63.45 16.9335C62.345 16.3635 61.24 16.4785 60.6325 16.7485C60.0175 17.021 59.4025 17.9685 59.0725 18.4785L59.03 18.5435C58.5675 19.256 57.85 19.656 57.105 19.601C56.3025 19.546 55.6025 19.0035 55.18 18.1085C54.4075 16.471 53.8575 15.5235 53.15 14.6135C52.3125 13.5335 51.1925 12.9235 50 12.8985C48.725 12.866 47.48 13.491 46.505 14.6435C45.6 15.711 44.87 17.161 44.575 18.0585C44.2825 18.9435 43.6525 19.511 42.8475 19.616C42.025 19.721 41.2025 19.311 40.705 18.5435L40.6625 18.4785C40.3325 17.9685 39.7175 17.021 39.1025 16.7485C38.495 16.4785 37.39 16.366 36.285 16.9335C35.3875 17.396 34.21 18.471 33.69 20.9835C33.6175 21.331 33.5425 21.821 33.46 22.3385C33.335 23.1385 33.205 23.9635 33.07 24.411C32.825 25.2235 32.3325 25.7635 31.6825 25.931C30.96 26.116 30.1275 25.8135 29.3975 25.101C28.7225 24.441 27.7325 24.2885 26.7525 24.6985C25.3725 25.2735 23.89 27.0235 23.8675 30.206C23.8575 31.776 24.425 34.0285 24.92 34.9185C25.4625 35.896 25.5075 36.8735 25.0375 37.471C24.81 37.7585 24.27 38.196 23.185 37.896C22.3175 37.656 21.5925 37.8785 21.09 38.541C20.2275 39.681 20.095 42.056 21.5125 44.396C23.2 47.181 26.7275 49.856 28.77 49.9035C29.02 49.9085 29.2175 50.116 29.2125 50.366C29.2075 50.611 29.005 50.8085 28.76 50.8085H28.7675Z" fill="white"/>
<path d="M59.34 54.101C57.88 53.8735 56.8825 52.5085 57.1075 51.0485C57.175 50.6185 57.3425 50.2285 57.58 49.8985C56.4825 49.826 55.435 49.906 54.5025 50.0985C54.455 50.336 54.4275 50.5785 54.425 50.8285C54.4025 53.0135 56.1625 54.8085 58.3475 54.831C59.395 54.841 60.35 54.441 61.065 53.781C60.56 54.0685 59.9575 54.1935 59.34 54.0985V54.101Z" fill="white"/>
<path d="M43.17 53.9885C41.71 54.216 40.345 53.216 40.1175 51.7585C40.0275 51.1785 40.135 50.6135 40.385 50.126C39.3475 50.341 38.3 50.7035 37.2925 51.2385C37.48 53.2685 39.2 54.8535 41.275 54.8335C42.3225 54.8235 43.2675 54.401 43.97 53.7285C43.725 53.8535 43.455 53.9435 43.17 53.9885Z" fill="white"/>
<path d="M64.175 42.0935C63.6925 42.311 62.4525 42.4485 61.345 42.0335C60.4325 41.691 58.7475 40.156 57.7975 37.7485C57.75 38.371 57.6725 38.631 57.46 38.986C56.7275 40.206 54.75 40.0985 53.8 39.6485C52.8475 39.1985 50.98 38.0835 49.825 35.6285C48.6675 38.081 46.7725 39.196 45.82 39.6485C44.87 40.0985 42.8925 40.206 42.16 38.986C41.9475 38.631 41.87 38.3735 41.8225 37.7485C40.8725 40.1585 39.1875 41.691 38.275 42.0335C37.165 42.4485 35.925 42.311 35.445 42.0935C35.07 41.9235 34.6625 41.656 34.355 41.371C34.485 42.871 34.6825 44.9785 35.0225 47.2085C35.13 46.7135 35.3625 46.256 35.7025 45.896C36.1425 45.431 36.7175 45.1635 37.33 45.141C40.5325 44.576 43.7775 44.576 46.98 45.141C47.5975 45.1635 48.175 45.4335 48.6175 45.906C49.085 46.406 49.345 47.081 49.355 47.7885H50.2575C50.2675 47.081 50.53 46.4035 50.995 45.906C51.4325 45.4385 52.005 45.1685 52.6175 45.1435C55.35 44.5735 58.5075 44.5735 62.2725 45.1435C62.89 45.1635 63.4675 45.4285 63.9125 45.8985C64.255 46.261 64.485 46.716 64.5925 47.211C64.9325 44.981 65.1325 42.8735 65.26 41.3735C64.93 41.6785 64.5475 41.926 64.17 42.096L64.175 42.0935ZM48.12 42.1235C47.8975 43.881 44.9925 43.8935 43.5575 44.0235C42.395 44.1285 41.96 43.1035 42.4925 42.441C43.575 41.091 45.535 39.4135 47.17 40.2585C47.765 40.566 48.2175 41.3735 48.1225 42.121L48.12 42.1235ZM55.7675 44.0235C54.3325 43.8935 51.4275 43.881 51.205 42.1235C51.11 41.376 51.5625 40.5685 52.1575 40.261C53.7925 39.416 55.7525 41.0935 56.835 42.4435C57.365 43.106 56.9325 44.131 55.77 44.026L55.7675 44.0235ZM42.19 56.236H43.785C45.6425 56.236 47.2125 54.526 47.36 52.3435L47.66 47.916C47.6825 47.5885 47.58 47.2785 47.38 47.066C47.2825 46.9635 47.1225 46.8385 46.9025 46.8385H46.8275L46.7525 46.826C45.7825 46.6535 44.81 46.541 43.835 46.4785C45.5225 47.226 46.665 48.7535 46.685 50.816C46.7125 53.5135 44.765 55.781 42.19 56.2385V56.236ZM55.6825 57.936C53.02 57.936 50.7775 55.606 50.5775 52.6335L50.4325 50.4985H49.1875L49.055 52.456C48.8475 55.5285 46.5325 57.9335 43.785 57.9335H40.4825C39.8825 57.9335 39.305 57.821 38.765 57.611C43.1475 61.5435 56.71 62.196 60.9725 57.6085C60.445 57.816 59.88 57.9335 59.2925 57.9335H55.68L55.6825 57.936ZM55.8725 46.4435C54.8175 46.496 53.8275 46.621 52.8975 46.821L52.81 46.8385H52.72C52.5 46.8385 52.3375 46.961 52.2425 47.066C52.0425 47.2785 51.94 47.591 51.9625 47.916L52.2725 52.5185C52.4125 54.601 53.91 56.2335 55.68 56.2335H57.43C54.8575 55.776 52.9075 53.511 52.935 50.8135C52.9575 48.7185 54.1375 47.176 55.87 46.4435H55.8725Z" fill="white"/>
<path d="M68.62 29.1435L72.22 33.456C72.5175 33.4085 73.625 33.166 73.7675 32.6335C74.005 31.7435 73.295 28.5235 71.91 27.761C71.1175 27.326 70.2775 27.291 69.605 27.661C69.0575 27.9635 68.705 28.4985 68.62 29.1435V29.1435Z" fill="white"/>
<path d="M64.335 29.8236C64.7948 29.8236 65.1675 29.4508 65.1675 28.9911C65.1675 28.5313 64.7948 28.1586 64.335 28.1586C63.8752 28.1586 63.5025 28.5313 63.5025 28.9911C63.5025 29.4508 63.8752 29.8236 64.335 29.8236Z" fill="white"/>
<path d="M66.8325 27.656C66.5425 27.4935 66.245 27.341 65.9325 27.2085C64.785 26.7185 63.7025 26.5035 62.715 26.5035C60.7475 26.5035 59.165 27.3635 58.2 28.6235C58.2675 28.6185 58.335 28.6235 58.3975 28.6485C58.7425 28.796 58.8175 29.401 58.5625 29.9985C58.3075 30.5985 57.82 30.9635 57.475 30.816C57.3925 30.781 57.325 30.716 57.2725 30.6335C56.85 32.641 57.62 35.0735 60.2 36.9235C65.395 35.8335 67.265 31.3935 66.8325 27.651V27.656ZM62.51 31.7485C61.2025 31.191 60.595 29.681 61.1525 28.376C61.71 27.071 63.22 26.461 64.525 27.0185C65.83 27.576 66.44 29.086 65.8825 30.391C65.325 31.6985 63.815 32.306 62.51 31.7485V31.7485ZM68.65 28.9385C68.6125 30.886 68.0525 32.7635 67.015 34.3535C65.8875 36.086 64.285 37.366 62.325 38.1235C62.3475 38.1335 62.37 38.1435 62.3925 38.1535C63.79 38.7585 65.14 39.2335 66.4 39.5685C66.695 39.481 66.9925 39.3785 67.2875 39.2635C67.2325 39.091 67.1875 38.911 67.15 38.7185C67.0925 38.4035 67.3 38.101 67.615 38.041C67.93 37.981 68.2325 38.191 68.2925 38.506C68.31 38.5985 68.33 38.686 68.3525 38.771C69.445 38.186 70.435 37.3885 71.135 36.381C70.77 36.2935 70.245 36.321 69.6025 36.4685C69.29 36.5385 68.9775 36.3435 68.9075 36.031C68.8375 35.7185 69.0325 35.406 69.345 35.336C70.4375 35.0885 71.19 35.151 71.71 35.3485C71.9575 34.7735 72.12 34.1435 72.1625 33.461C72.19 33.471 72.215 33.4835 72.24 33.4935C71.3725 31.9935 70.2075 30.291 68.6475 28.936L68.65 28.9385Z" fill="white"/>
<path d="M67.615 38.0435C67.93 37.9835 68.2325 38.1935 68.2925 38.5085C68.44 39.306 68.805 39.841 69.2675 39.936C69.8325 40.0535 70.5575 39.5485 71.205 38.586C71.7 37.851 71.87 37.0435 71.61 36.6635C71.365 36.306 70.6325 36.2335 69.605 36.4685C69.2925 36.5385 68.98 36.3435 68.91 36.031" fill="white"/>
<path d="M60.9226 62.4135C61.1676 62.631 61.4301 62.831 61.7126 63.0135C64.5351 64.8385 68.3426 64.171 70.3751 61.496C72.6101 58.5535 71.9376 54.371 68.9376 52.271C68.7301 52.126 68.5151 51.9935 68.2976 51.876C67.8026 51.6085 67.1851 51.7585 66.8626 52.2185L60.7501 60.946C60.4276 61.406 60.4976 62.0385 60.9201 62.4135H60.9226Z" fill="white"/>
<path d="M38.7025 62.4135C38.4575 62.631 38.195 62.831 37.9125 63.0135C35.09 64.8385 31.2825 64.171 29.25 61.496C27.015 58.5535 27.6875 54.371 30.6875 52.271C30.895 52.126 31.11 51.9935 31.3275 51.876C31.8225 51.6085 32.44 51.7585 32.7625 52.2185L38.875 60.946C39.1975 61.406 39.1275 62.0385 38.705 62.4135H38.7025Z" fill="white"/>
</svg>
