<svg width="31" height="25" viewBox="0 0 31 25" fill="none" xmlns="http://www.w3.org/2000/svg">
<path fill-rule="evenodd" clip-rule="evenodd" d="M19.3294 1.45125C21.2282 2.82537 25.388 8.4093 26.8246 12.1569C27.7865 14.5429 26.9495 15.5797 26.0751 16.0794C24.9382 16.4735 23.7017 16.4735 22.5648 16.0794C24.2513 18.0282 22.9021 22.188 22.4149 23.0249C22.2147 23.4036 21.885 23.6977 21.486 23.8537C21.087 24.0096 20.6453 24.0169 20.2413 23.8744C19.598 23.3539 19.1241 22.6538 18.8797 21.8632C18.991 22.3344 19.0018 22.8238 18.9114 23.2994C18.821 23.7751 18.6314 24.2264 18.355 24.624C18.1077 24.8651 17.776 25 17.4306 25C17.0852 25 16.7535 24.8651 16.5062 24.624C15.9725 23.7307 15.6758 22.7159 15.6443 21.6758C15.6193 22.7152 15.3267 23.7306 14.7948 24.624C14.5475 24.8651 14.2158 25 13.8704 25C13.525 25 13.1933 24.8651 12.946 24.624C12.6696 24.2264 12.48 23.7751 12.3896 23.2994C12.2992 22.8238 12.31 22.3344 12.4213 21.8632C12.1769 22.6538 11.703 23.3539 11.0597 23.8744C10.6589 24.0335 10.2127 24.0343 9.81136 23.8765C9.41006 23.7188 9.08376 23.4144 8.89859 23.0249C8.39891 21.9631 7.04977 17.9782 8.73619 16.0794C7.59516 16.4744 6.35446 16.4744 5.21343 16.0794C4.26404 15.5797 3.50204 14.5429 4.40146 12.1569C5.80057 8.37182 9.9604 2.82537 11.8967 1.45125C12.9093 0.518044 14.236 0 15.613 0C16.9901 0 18.3168 0.518044 19.3294 1.45125ZM17.2557 7.02295C17.933 6.80656 18.6506 6.74674 19.3544 6.84805C19.9949 6.9685 20.6032 7.22166 21.14 7.59121C21.6769 7.96075 22.1305 8.43851 22.4717 8.99381C22.8128 9.54912 23.0341 10.1697 23.1211 10.8156C23.2082 11.4615 23.1591 12.1185 22.9771 12.7443C22.8777 13.3008 22.6695 13.8322 22.3644 14.308C22.0594 14.7839 21.6634 15.1948 21.1992 15.5174C20.7351 15.84 20.2118 16.0679 19.6595 16.1879C19.1071 16.308 18.5365 16.3179 17.9803 16.217C17.032 16.1589 16.1248 15.8099 15.382 15.2177C14.6438 15.8097 13.7405 16.1588 12.7961 16.217C12.2398 16.3196 11.6686 16.3109 11.1156 16.1916C10.5626 16.0722 10.0387 15.8446 9.57418 15.5218C9.10963 15.1989 8.71361 14.7872 8.40899 14.3105C8.10436 13.8338 7.89715 13.3015 7.79931 12.7443C7.48 11.7598 7.50227 10.6963 7.86252 9.72599C8.22277 8.7557 8.89991 7.93538 9.78435 7.39777C10.6688 6.86017 11.7088 6.63677 12.736 6.76372C13.7632 6.89067 14.7175 7.3605 15.4444 8.09725C15.9591 7.60666 16.5784 7.23935 17.2557 7.02295Z" fill="#eaff3e"/>
<path fill-rule="evenodd" clip-rule="evenodd" d="M19.342 8.05963C18.922 7.96768 18.488 7.95936 18.0648 8.03516C17.6417 8.11096 17.2376 8.26939 16.8756 8.5014C16.5137 8.73341 16.201 9.03441 15.9554 9.38729C15.7099 9.74017 15.5362 10.138 15.4444 10.558C15.3527 10.138 15.179 9.74017 14.9335 9.38729C14.6879 9.03441 14.3752 8.73341 14.0133 8.5014C13.6513 8.26939 13.2473 8.11096 12.8241 8.03516C12.4009 7.95936 11.9669 7.96768 11.5469 8.05963C11.0749 8.13857 10.6243 8.31419 10.2234 8.57551C9.82251 8.83683 9.47995 9.17815 9.2172 9.57813C8.95446 9.97811 8.77722 10.4281 8.6966 10.8998C8.61599 11.3716 8.63373 11.8548 8.74874 12.3194C8.8052 12.7474 8.94912 13.1592 9.17153 13.5293C9.39394 13.8994 9.6901 14.2197 10.0416 14.4705C10.3931 14.7212 10.7924 14.897 11.2147 14.9868C11.637 15.0766 12.0732 15.0786 12.4963 14.9927C13.182 14.9336 13.8319 14.6607 14.3541 14.2124C14.8764 13.7641 15.2446 13.1631 15.407 12.4943C15.5717 13.1641 15.9424 13.7654 16.4667 14.2136C16.9911 14.6618 17.6428 14.9343 18.3301 14.9927C18.7534 15.0805 19.1902 15.08 19.6133 14.9909C20.0363 14.9019 20.4363 14.7263 20.7883 14.4753C21.1402 14.2242 21.4364 13.9031 21.6583 13.5321C21.8802 13.1611 22.023 12.7482 22.0777 12.3194C22.1931 11.8593 22.2131 11.3804 22.1363 10.9123C22.0596 10.4442 21.8877 9.99678 21.6314 9.59765C21.3751 9.19852 21.0397 8.85612 20.6459 8.5916C20.2521 8.32707 19.8084 8.14605 19.342 8.05963ZM11.8092 9.47125C12.0496 9.42491 12.297 9.42849 12.536 9.48177C12.775 9.53506 13.0005 9.63687 13.1984 9.78096C13.3964 9.92505 13.5626 10.1083 13.6868 10.3193C13.811 10.5304 13.8905 10.7647 13.9203 11.0077C13.9863 11.2729 13.9914 11.5496 13.9353 11.8171C13.8791 12.0845 13.7632 12.3359 13.5962 12.5522C13.4291 12.7685 13.2153 12.9442 12.9707 13.0661C12.7262 13.1881 12.4572 13.2531 12.1839 13.2563C11.939 13.2532 11.6972 13.2008 11.4729 13.1023C11.2487 13.0037 11.0466 12.861 10.8787 12.6826C10.7108 12.5042 10.5806 12.2939 10.4958 12.064C10.4109 11.8342 10.3733 11.5897 10.3851 11.3451C10.3346 10.9093 10.4546 10.4709 10.7201 10.1216C10.9855 9.77236 11.3758 9.5393 11.8092 9.47125ZM18.463 9.57571C18.6907 9.52595 18.9263 9.52427 19.1547 9.57083C19.5671 9.63287 19.9394 9.85236 20.1933 10.1832C20.4472 10.514 20.563 10.9304 20.5163 11.3448C20.5264 11.5769 20.4897 11.8087 20.4086 12.0265C20.3274 12.2442 20.2033 12.4434 20.0437 12.6123C19.8841 12.7812 19.6922 12.9164 19.4795 13.0098C19.2667 13.1032 19.0373 13.153 18.8049 13.1561C18.5461 13.1543 18.2911 13.0938 18.059 12.9791C17.827 12.8645 17.624 12.6987 17.4652 12.4943C17.3065 12.2899 17.1962 12.0521 17.1426 11.7989C17.0891 11.5457 17.0937 11.2836 17.156 11.0325C17.1809 10.8007 17.2539 10.5767 17.3703 10.3748C17.4868 10.1728 17.6441 9.99747 17.8323 9.85988C18.0204 9.72229 18.2353 9.62548 18.463 9.57571Z" fill="#eaff3e"/>
</svg>
