<?xml version="1.0" encoding="UTF-8" standalone="no"?>
<svg
   version="1.1"
   id="レイヤー_7"
   x="0px"
   y="0px"
   width="432.75px"
   height="426.165px"
   viewBox="0 0 432.75 426.165"
   enable-background="new 0 0 432.75 426.165"
   xml:space="preserve"
   sodipodi:docname="FePL_kcaUAA7pCt02.svg"
   inkscape:version="1.1.2 (b8e25be833, 2022-02-05)"
   xmlns:inkscape="http://www.inkscape.org/namespaces/inkscape"
   xmlns:sodipodi="http://sodipodi.sourceforge.net/DTD/sodipodi-0.dtd"
   xmlns="http://www.w3.org/2000/svg"
   xmlns:svg="http://www.w3.org/2000/svg"><defs
   id="defs17" /><sodipodi:namedview
   id="namedview15"
   pagecolor="#ffffff"
   bordercolor="#111111"
   borderopacity="1"
   inkscape:pageshadow="0"
   inkscape:pageopacity="0"
   inkscape:pagecheckerboard="1"
   showgrid="false"
   inkscape:zoom="1.5393099"
   inkscape:cx="216.33071"
   inkscape:cy="213.0825"
   inkscape:window-width="1432"
   inkscape:window-height="907"
   inkscape:window-x="104"
   inkscape:window-y="86"
   inkscape:window-maximized="0"
   inkscape:current-layer="レイヤー_7" />

<rect
   x="0.006"
   y="-3.286"
   fill="none"
   width="432.738"
   height="432.737"
   id="rect2" /><path
   d="M205.3,86.137L197.762,0C130.794,5.63,72.523,41.339,36.909,93.392l72.684,48.314  C130.783,110.734,165.454,89.488,205.3,86.137z"
   id="path4" />
<path
   d="M334.659,162.473l80.513-34.179C389.426,69.336,337.531,24.117,273.895,6.846L250.6,90.21  C288.463,100.487,319.341,127.393,334.659,162.473z"
   id="path6" />
<path
   d="M432.75,212.685c0-3.021-0.08-6.022-0.205-9.012l-87.549,3.65c0.074,1.779,0.122,3.565,0.122,5.362  c0,40.063-18.806,75.788-48.176,99.068l54.841,67.433C401.145,340.059,432.75,280.018,432.75,212.685z"
   id="path8" />
<path
   d="M216.375,339.706c-25.486,0-49.242-7.309-69.235-19.915l-47.127,72.903c33.602,21.188,73.527,33.471,116.362,33.471  c23.707,0,46.518-3.774,67.864-10.726l-27.485-82.115C244.053,337.46,230.48,339.706,216.375,339.706z"
   id="path10" />
<path
   d="M87.632,212.685c0-9.957,1.164-19.646,3.36-28.943L5.647,164.042C1.956,179.667,0,195.95,0,212.685  c0,50.596,17.853,97.073,47.666,133.658l68.327-54.132C98.254,270.443,87.632,242.79,87.632,212.685z"
   id="path12" />
</svg>
