<svg width="300" height="164" viewBox="0 0 300 164" fill="none" xmlns="http://www.w3.org/2000/svg">
<path d="M161.77 5.43713e-09C161.37 0.000100192 160.983 0.137081 160.671 0.388154C160.36 0.639226 160.145 0.989253 160.06 1.38L157.81 11.86C157.592 12.806 157.071 13.6547 156.325 14.2759C155.579 14.8972 154.65 15.2569 153.68 15.3H143.45C142.441 15.3 141.474 14.9 140.759 14.1876C140.045 13.4753 139.643 12.5087 139.64 11.5V9C139.64 7.11 141.88 6.19 143.85 7.12C145.21 7.76 146.33 8.32 147.62 8.99C148.62 9.49 149.62 8.16 150.32 7.49C150.525 7.27765 150.645 6.99787 150.658 6.70324C150.67 6.40861 150.575 6.11941 150.39 5.89L147.58 0.77C147.42 0.532859 147.204 0.338654 146.951 0.204409C146.698 0.0701646 146.416 -2.25552e-05 146.13 5.43713e-09L0 5.43713e-09V164H300V5.43713e-09L161.77 5.43713e-09Z" fill="black"/>
</svg>
