<svg width="512" height="512" viewBox="0 0 512 512" fill="none" xmlns="http://www.w3.org/2000/svg">
<path fill-rule="evenodd" clip-rule="evenodd" d="M433.968 207.526C434 225.608 430.468 243.518 423.57 260.232C416.674 276.946 406.548 292.136 393.776 304.934C381.001 317.729 365.83 327.88 349.127 334.809C332.427 341.735 314.523 345.3 296.442 345.3C278.359 345.3 260.456 341.735 243.755 334.809C227.054 327.88 211.881 317.729 199.107 304.934C186.334 292.136 176.209 276.946 169.312 260.232C162.415 243.518 158.882 225.608 158.915 207.526C158.915 189.466 162.473 171.582 169.384 154.897C176.295 138.211 186.425 123.051 199.195 110.28C211.966 97.5098 227.127 87.3803 243.811 80.4689C260.498 73.5576 278.38 70 296.442 70C332.915 70 367.897 84.4891 393.687 110.28C419.478 136.072 433.968 171.052 433.968 207.526Z" fill="url(#paint0_radial_1_9)"/>
<path fill-rule="evenodd" clip-rule="evenodd" d="M359.246 207.527C359.246 224.207 352.639 240.207 340.868 252.025C329.096 263.842 313.122 270.514 296.442 270.58C279.763 270.514 263.788 263.842 252.017 252.025C240.246 240.207 233.636 224.207 233.636 207.527C233.636 190.87 240.253 174.895 252.031 163.116C263.809 151.338 279.784 144.722 296.442 144.722C313.099 144.722 329.073 151.338 340.851 163.116C352.63 174.895 359.246 190.87 359.246 207.527Z" fill="url(#paint1_radial_1_9)"/>
<path fill-rule="evenodd" clip-rule="evenodd" d="M366.195 155.396C366.195 160.465 364.182 165.327 360.596 168.912C357.012 172.496 352.15 174.51 347.081 174.51C342.013 174.51 337.149 172.496 333.565 168.912C329.981 165.327 327.965 160.465 327.965 155.396C328.03 150.346 330.064 145.522 333.634 141.951C337.207 138.38 342.031 136.346 347.081 136.281C352.132 136.346 356.954 138.38 360.526 141.951C364.096 145.522 366.13 150.346 366.195 155.396Z" fill="white"/>
<path fill-rule="evenodd" clip-rule="evenodd" d="M402.189 328.171L435.951 325.937C461.788 322.274 486.906 314.655 510.423 303.349L503.225 296.397C498.475 291.394 492.941 287.202 486.841 283.985C480.634 281.75 471.947 278.524 464.001 276.538C450.845 273.062 437.689 269.338 425.029 265.118C421.056 265.118 413.858 252.706 413.36 249.231C411.87 240.542 410.879 226.641 409.885 222.421C406.704 214.388 402.799 206.66 398.219 199.334C394.742 203.058 380.841 216.215 379.102 218.449C375.26 226.338 372.425 234.678 370.664 243.273C366.302 253.023 364.182 263.627 364.457 274.304C364.457 286.964 367.187 296.894 358.995 307.568C353.884 316.018 345.843 322.29 336.406 325.192C330.16 328.32 323.581 330.736 316.794 332.393C303.029 334.101 289.104 334.101 275.339 332.393C265.378 331.141 256.029 326.901 248.528 320.228L268.883 312.781C265.657 309.306 263.423 307.319 261.685 305.085C255.126 293.868 250.037 281.854 246.541 269.338C232.216 267.568 217.761 267.07 203.348 267.849C194.361 259.204 186.518 249.443 180.013 238.804C171.755 220.865 161.691 203.814 149.976 187.915C142.494 178.884 134.183 170.573 125.152 163.091C118.697 157.133 111.002 152.416 104.051 146.955C95.278 141.555 85.277 138.471 74.9863 137.993C64.6958 137.515 54.4527 139.659 45.2174 144.224C39.756 146.21 39.5077 154.154 41.2455 154.651C42.9832 155.147 47.6992 154.65 52.4159 157.629C57.1326 160.608 56.1402 168.552 56.1402 174.758C56.1435 177.637 56.6476 180.492 57.6295 183.198C61.3175 195.083 61.3175 207.806 57.6295 219.69C56.9529 227.977 54.4972 236.021 50.4303 243.273C47.6366 241.129 44.9831 238.807 42.4864 236.323C39.5075 233.344 24.861 211.498 21.3856 207.774C17.9102 204.05 16.9174 201.816 16.9174 200.327C16.9174 198.838 19.1516 190.646 16.9174 189.653C14.6833 188.66 7.23596 194.617 5.25003 196.851C2.2767 200.279 0.762512 204.734 1.03033 209.264C2.87489 219.386 6.2216 229.175 10.9599 238.308C15.9247 248.983 26.1024 268.842 32.3083 280.51C33.6548 288.356 35.6481 296.078 38.2668 303.595C47.6103 324.101 59.721 343.229 74.2613 360.444C68.9423 366.816 64.0495 373.535 59.6151 380.551C65.0765 385.515 82.9497 391.971 91.1417 398.425C92.6961 392.648 93.7755 386.751 94.369 380.798C103.306 389.488 112.491 397.927 121.18 405.623C130.152 411.048 139.435 415.937 148.983 420.269C173.556 430.718 199.451 437.737 225.938 441.123L247.039 442.364C265.911 443.134 284.657 438.94 301.404 430.199C315.831 423.203 329.341 414.448 341.619 404.134C345.185 401.006 348.583 397.692 351.797 394.205C354.775 399.418 358.748 405.623 360.982 409.845C371.381 403.645 381.409 396.849 391.018 389.488C393.252 387.999 405.417 375.089 407.155 373.353C405.247 371.722 403.166 370.307 400.949 369.131C392.366 367.204 384.036 364.288 376.124 360.444C381.397 352.543 386.045 344.243 390.027 335.619C390.318 334.322 390.864 333.094 391.639 332.011C392.412 330.929 393.397 330.015 394.532 329.321C395.666 328.625 396.929 328.167 398.244 327.969C399.559 327.771 400.902 327.841 402.189 328.171Z" fill="url(#paint2_linear_1_9)"/>
<path fill-rule="evenodd" clip-rule="evenodd" d="M109.019 194.122C108.867 195.551 108.428 196.935 107.728 198.191C107.028 199.446 106.082 200.547 104.946 201.429C103.81 202.309 102.508 202.952 101.118 203.317C99.7273 203.682 98.2778 203.763 96.8556 203.555C90.6495 203.555 87.4227 195.611 87.9192 190.398C88.0995 189.185 88.5208 188.02 89.1587 186.972C89.7963 185.925 90.6379 185.015 91.6328 184.298C92.6277 183.581 93.7562 183.07 94.9517 182.796C96.1472 182.522 97.3853 182.49 98.5934 182.703C100.028 182.766 101.436 183.112 102.737 183.721C104.038 184.33 105.206 185.189 106.175 186.25C107.143 187.31 107.893 188.551 108.381 189.902C108.869 191.253 109.086 192.687 109.019 194.122Z" fill="white"/>
<defs>
<radialGradient id="paint0_radial_1_9" cx="0" cy="0" r="1" gradientUnits="userSpaceOnUse" gradientTransform="translate(321.47 183.417) scale(137.909 137.909)">
<stop offset="0.56" stop-color="#FF6200"/>
<stop offset="0.76" stop-color="#FE7808"/>
<stop offset="1" stop-color="#FD9814"/>
</radialGradient>
<radialGradient id="paint1_radial_1_9" cx="0" cy="0" r="1" gradientUnits="userSpaceOnUse" gradientTransform="translate(321.47 183.418) scale(63.0039 63.0039)">
<stop stop-color="#E30E00"/>
<stop offset="0.29" stop-color="#EC1B00"/>
<stop offset="1" stop-color="#FF3700"/>
</radialGradient>
<linearGradient id="paint2_linear_1_9" x1="2.27153" y1="290.687" x2="510.672" y2="290.687" gradientUnits="userSpaceOnUse">
<stop stop-color="#3B4D52"/>
<stop offset="0.4" stop-color="#353746"/>
<stop offset="1" stop-color="#2A1030"/>
</linearGradient>
</defs>
</svg>
