<svg width="1024" height="1024" viewBox="0 0 1024 1024" fill="none" xmlns="http://www.w3.org/2000/svg">
<g clip-path="url(#clip0_1_34)">
<path d="M878 442H1001V991H878V442Z" fill="white"/>
<rect x="260" y="831" width="123" height="160" fill="white"/>
<rect x="54" y="869" width="123" height="122" fill="white"/>
<rect x="672" y="585" width="123" height="406" fill="white"/>
<rect x="466" y="747" width="123" height="244" fill="white"/>
<rect x="26" y="973.323" width="1024" height="51.1201" fill="white"/>
<path d="M682.937 1.89797L990.245 41.5904L953.847 351.49L902.156 284.786L148.044 825.438L123.756 794.095L232.25 710.02L209.207 680.285L100.713 764.36L74.5563 730.606L183.05 646.531L160.63 617.599L52.1361 701.675L26.6021 668.725L742.102 78.2456L682.937 1.89797Z" fill="white"/>
</g>
<defs>
<clipPath id="clip0_1_34">
<rect width="1024" height="1024" fill="white"/>
</clipPath>
</defs>
</svg>
