<?xml version="1.0" encoding="UTF-8" standalone="no"?>
<svg
   version="1.1"
   id="レイヤー_7"
   x="0px"
   y="0px"
   width="432.256px"
   height="432.255px"
   viewBox="0 0 432.256 432.255"
   enable-background="new 0 0 432.256 432.255"
   xml:space="preserve"
   sodipodi:docname="FePL_kcaUAA7pCt01.svg"
   inkscape:version="1.1.2 (b8e25be833, 2022-02-05)"
   xmlns:inkscape="http://www.inkscape.org/namespaces/inkscape"
   xmlns:sodipodi="http://sodipodi.sourceforge.net/DTD/sodipodi-0.dtd"
   xmlns="http://www.w3.org/2000/svg"
   xmlns:svg="http://www.w3.org/2000/svg"><defs
   id="defs859" /><sodipodi:namedview
   id="namedview857"
   pagecolor="#ffffff"
   bordercolor="#111111"
   borderopacity="1"
   inkscape:pageshadow="0"
   inkscape:pageopacity="0"
   inkscape:pagecheckerboard="1"
   showgrid="false"
   inkscape:zoom="1.5176227"
   inkscape:cx="216.1275"
   inkscape:cy="216.1275"
   inkscape:window-width="1432"
   inkscape:window-height="907"
   inkscape:window-x="81"
   inkscape:window-y="61"
   inkscape:window-maximized="0"
   inkscape:current-layer="レイヤー_7" />

<rect
   fill="none"
   width="432.25601"
   height="432.255"
   id="rect852"
   x="0"
   y="0" /><path
   fill="#FFFFFF"
   d="M24.389,219.495c0-61.388,25.851-113.663,68.666-148.545l7.898,9.885  c-40.099,32.475-62.909,80.731-62.909,135.911c0,0.232,24.168,0.752,24.168,0c0-47.325,19.818-89.369,54.069-117.384l10.303,12.603  c-30.702,25.325-49.27,64.142-49.27,107.027c0,0.266,23.959,0.553,23.959,0c0-63.601,51.258-118.66,115.719-118.66  c34.77,0,65.52,15.898,86.207,40.508l-22.894,27.01l142.5,0.667l-27.792-136L367.81,64.612  c-38.195-38.328-91.015-62.12-150.174-62.12C98.608,2.493,2.118,99.505,2.118,219.267L24.389,219.495z M430.138,217.411  l-21.587-0.053h-0.006h-0.008c0,0.132,0.005,0.264,0.005,0.397c0,58.674-26.939,111.135-69.271,146.021l-8.09-9.896  c39.019-32.482,63.812-81.074,63.812-135.386c0-0.391-0.013-0.779-0.015-1.17l-25.166-0.062v0  c-0.082,46.747-21.456,88.561-55.058,116.524l-9.095-11.125c29.367-25.314,48.057-62.595,48.057-104.169  c0-0.425-0.012-0.846-0.016-1.27l-23.295,0.256c-0.007,0.338-0.006,0.675-0.016,1.014c-1.75,62.272-50.75,116.152-113.396,116.152  c-35.718,0-67.682-16.449-89.091-41.934l22.387-26.677l-142.26-3.399l29.07,138.28l27.877-33.219  c38.606,38.3,92.172,62.063,152.66,62.063c118.568,0,211.785-95.464,212.502-212.281l-21.582-0.123L430.138,217.411z"
   id="path854" />
</svg>
