<svg fill="none" height="12" viewBox="0 0 30 12" width="30" xmlns="http://www.w3.org/2000/svg"><path d="m5.35397 9.4308c.11872 1.6028 2.22182 2.7561 4.68953 2.5441 2.4678-.212 4.3674-1.6367 4.2402-3.23948-.1272-1.60276-2.2134-2.75608-4.68113-2.54407-2.46775.21201-4.36732 1.63669-4.2486 3.23945zm2.12854-.15264c-.05088-.62754.95826-1.22116 2.25574-1.31444 1.29745-.09328 2.37445.33073 2.42535.95827.0509.62753-.9667 1.21271-2.25575 1.31441-1.28899.1018-2.38294-.33919-2.42534-.95824z" fill="#fff"/><path d="m1.07303 5.7763 4.6279-1.10252-1.07304-4.504151-4.62789787 1.102521z" fill="#fff"/><path d="m6.92357 9.76971.6682-.15919-2.28955-9.61051427-.6682.15918727z" fill="#fff"/><g fill="#ff4b1f"><path d="m13.8936 4.74971c-.1282-.13674-.1995-.31714-.1995-.50457s.0713-.36783.1995-.50458c.0537-.07711.1227-.14238.2027-.19176.0799-.04939.1692-.08184.2622-.09536.093-.01351.1877-.0078.2785.01679.0907.02459.1754.06753.2488.12617.1546.13449.2508.32388.2683.52808.0174.20419-.0454.40714-.175.56587-.1453.13548-.3336.21564-.532.22649s-.3943-.0483-.5535-.16713z"/><path d="m17.6164 3.978c-.0153.08744.0033.17744.0522.25155s.1243.12671.2107.14703c.0453.01569.0935.02081.1411.01495.0475-.00585.0931-.02251.1332-.04871.0401-.02619.0737-.06123.0982-.10242s.0392-.08743.043-.13519c0-.20353-.1017-.48338-.3307-.47489-.0902.00596-.1753.04451-.2392.10847-.064.06395-.1025.14896-.1085.23921z"/><path d="m14.0717 9.87176c.0998.09058.2298.14074.3646.14074s.2648-.05016.3647-.14074c.0533-.04959.0946-.11057.1211-.1784.0264-.06782.0371-.14074.0314-.2133s-.0277-.14289-.0644-.20576c-.0367-.06286-.0871-.11662-.1475-.15728-.0605-.05771-.1322-.10238-.2107-.13124-.0785-.02885-.162-.04128-.2455-.03651s-.1651.02664-.2398.06424c-.0747.03761-.1409.09016-.1944.1544-.0496.1248-.0548.26288-.0146.39104.0401.12816.1231.23862.2351.31281z"/><path d="m20.7456 8.41316c-1.0006-.4749-1.2296-1.19572-.9837-1.83174.458-1.05154.3138-2.22182-.7717-2.1879-.4579 0-.7123.46642-.5258 1.02611.2714.84803-.7801.58514-.848-.1696.0049-.27044-.0945-.53237-.2777-.73137-.1832-.19899-.4361-.31974-.706-.33714-.4155 0-.848.33073-.6784 1.00915.0848.31377.5343.50881.195.78866-.3392.27985-.6021-.49186-1.3229-.50882-.106-.00472-.2117.0155-.3085.05905s-.182.1092-.2488.19169c-.0669.08248-.1134.17949-.1359.28323s-.0203.21131.0063.31406c.1781.48337.5936.53425.9922.56817s.5004.7293-.0509.57666c-.5512-.15265-1.2042-.31377-1.1363.55121 0 .33921.4664.57666 1.2127.39009.2628-.06784.4324-.10176.619.15265s0 .39857-.3138.84802c-.0714.08301-.1202.18305-.1416.29044s-.0147.21849.0194.32252c.0341.1041.0945.1976.1754.2714.0808.0739.1794.1256.2861.1502.1206.0524.2518.076.3831.0689.1313-.007.2592-.0445.3735-.1095s.212-.1557.2853-.2649c.0732-.1092.1201-.23397.1368-.36441.1272-.44945.441-.78018.6615-.49185s-.4156.72082-.3392 1.11936c.0432.1094.1129.2063.2027.2822.0899.0759.1971.1283.3121.1527.1151.0243.2344.0198.3472-.0131.1129-.033.2159-.0934.2997-.1758.6785-.4919.2205-1.01767.6361-1.69609.4155-.67842 1.1618-.22897 1.4755-.21201.3138.01696.4495-.19504.1696-.32224z"/></g><path d="m23.9427 10.5247c.0678-.0107.1311-.0409.1822-.0868.0512-.0459.0879-.1057.1058-.172s.0163-.1364-.0047-.2018c-.021-.06546-.0605-.12341-.1137-.16689.2343-.04357.4568-.13604.653-.27137.2419-.16233.4342-.38852.5554-.65347.1213-.26495.1668-.5583.1315-.84753.2538.14131.5418.20976.8321.19779s.5717-.1039.813-.26563c.197-.13427.3644-.30743.4919-.50881.0214.06551.0608.12363.1139.16762.053.04399.1175.07205.1858.08093.0683.00887.1378-.0018.2003-.03078s.1156-.07509.153-.13297c.1696-.22897 0-.44945.2629-1.00915.1817.05457.3449.15805.4717.29913.1269.14108.2125.31433.2475.50079.035.18647.0181.37897-.0489.55647-.0671.17749-.1816.33313-.3311.4499-.1794.14842-.3903.25386-.6167.30824-.2263.05438-.4621.05628-.6893.00553.1488.0674.2808.16703.3864.2917.1056.12466.1822.27123.2242.42912-.5173.39009-1.0346.68688-1.6961.10176.2884.84802-.1781 1.21272-.7293 1.55192-.132-.0997-.24-.2275-.3163-.3742s-.1189-.3086-.1246-.4739c-.038.2298-.1281.4479-.2633.6375s-.312.3457-.5169.4565c-.1632.1106-.3548.172-.5519.1766s-.3913-.0476-.5595-.1505-.3032-.252-.3888-.4296-.1183-.3761-.0941-.5717c.6106 0 .7632.212 1.0346.1356z" fill="#848484"/><path d="m22.5435 3.81687c1.8402-1.20419 4.0026-1.03458 4.7574.55122.2525.50955.361 1.07843.3137 1.64516l-.0932-.16112c-.1186-.17985-.273-.33335-.4534-.45094-.1805-.1176-.3833-.19676-.5957-.23256s-.43-.02747-.639.02447c-.2091.05193-.4052.14637-.5762.27742-.2313.13781-.4168.34097-.5329.5839-.1162.24294-.158.51481-.12.78142-.2351-.13549-.5054-.19741-.7759-.17775-.2706.01965-.5291.11996-.7421.28799-.1861.10961-.3475.25645-.4742.43133-.1267.17487-.2159.37403-.2621.58498s-.0483.42917-.0062.64098c.042.21181.1274.41266.2506.58997l.1103.14417c-.5458-.1628-1.0341-.47751-1.4077-.90739-1.2127-1.29747-.5597-3.33273 1.2466-4.61325z" fill="#848484"/><path d="m22.9675 8.77782c.1233.17889.2967.31735.4985.39799.2017.08065.4228.09987.6355.05526.2126-.0446.4073-.15105.5597-.30598.1523-.15492.2555-.3514.2965-.56477.0411-.21337.0181-.4341-.0659-.63448s-.2254-.37146-.4063-.49176c-.1809-.12029-.3934-.18444-.6107-.18438-.2172.00006-.4297.06432-.6105.18471-.2423.16669-.4093.42204-.4649.71086-.0555.28881.0049.58788.1681.83255zm.5681-1.4162c.0635-.05922.1391-.10401.2215-.1313s.1697-.03644.256-.02681.1695.0378.2438.08259c.0744.04478.1382.10512.1871.17688.0489.07175.0816.15323.0961.23884.0144.0856.0101.17332-.0125.25713-.0227.08381-.0632.16173-.1187.22842-.0556.06669-.125.12058-.2033.15795-.0646.04399-.1372.07483-.2138.09075-.0765.01592-.1554.01662-.2321.00205-.0768-.01457-.15-.04411-.2153-.08695-.0654-.04284-.1217-.09814-.1657-.16273-.0439-.06459-.0748-.13721-.0907-.21372s-.0166-.15541-.0021-.23218c.0146-.07678.0442-.14994.087-.2153.0428-.06535.0981-.12163.1627-.16562z" fill="#848484"/><path d="m25.1554 7.30226c.0776.12399.1792.23129.2988.31563.1195.08434.2547.14403.3975.1756.1429.03158.2906.03439.4346.00829s.2813-.08059.404-.16031c.2423-.16669.4093-.42204.4648-.71085.0555-.28882-.0048-.58789-.168-.83255-.0706-.13771-.1695-.259-.2901-.35598-.1206-.09699-.2603-.16749-.4099-.20692-.1497-.03944-.306-.04692-.4587-.02196-.1527.02495-.2985.08179-.4278.1668-.1293.08502-.2393.19631-.3228.32664-.0834.13033-.1385.27677-.1617.42979-.0231.15303-.0138.30921.0275.45838.0412.14918.1133.288.2118.40744zm.2968-1.23812c.1311-.09033.2916-.12745.4491-.10383s.3001.10621.3989.23104c.0777.14213.099.3083.0597.46544-.0393.15715-.1363.29373-.2717.38258-.0618.06839-.1385.12168-.2241.15576-.0856.03409-.1779.04806-.2698.04084-.0919-.00723-.1809-.03545-.2602-.08249-.0792-.04704-.1466-.11165-.197-.18885-.0503-.07721-.0823-.16493-.0934-.25643s-.001-.18432.0294-.27132c.0305-.087.0805-.16584.1462-.23047.0657-.06462.1454-.11329.2329-.14227z" fill="#848484"/></svg>