<svg width="46" height="38" viewBox="0 0 46 38" fill="none" xmlns="http://www.w3.org/2000/svg">
<path d="M22.8312 6L7 15.2323H11.4469L12.6889 32H32.6923L34.5321 15.2323H38.6625L22.8312 6ZM25.9153 24.3416C24.7107 24.3416 23.6402 23.7503 22.9565 22.838C22.2729 23.7503 21.2046 24.3416 19.9978 24.3416C17.9337 24.3416 16.2609 22.6182 16.2609 20.4948C16.2609 18.3713 17.9337 16.648 19.9978 16.648C21.2024 16.648 22.2729 17.2393 22.9565 18.1515C23.6402 17.2393 24.7085 16.648 25.9153 16.648C27.9794 16.648 29.6522 18.3713 29.6522 20.4948C29.6522 22.6182 27.9794 24.3416 25.9153 24.3416Z" fill="#959595"/>
<path d="M25.6977 17.0876C24.4051 17.0876 23.306 17.9251 22.873 19.1055C22.4378 17.9251 21.3365 17.0876 20.0462 17.0876C18.3755 17.0876 17.0237 18.49 17.0237 20.22C17.0237 21.95 18.3755 23.3524 20.0462 23.3524C21.3365 23.3524 22.4378 22.5149 22.873 21.3345C23.306 22.5149 24.4051 23.3524 25.6977 23.3524C27.3661 23.3524 28.7201 21.95 28.7201 20.22C28.7201 18.49 27.3661 17.0876 25.6977 17.0876ZM20.2726 20.7893C19.301 20.7893 18.514 20.0507 18.514 19.1407C18.514 18.2307 19.301 17.4921 20.2726 17.4921C21.2442 17.4921 22.0311 18.2307 22.0311 19.1407C22.0311 20.0507 21.2442 20.7893 20.2726 20.7893ZM25.3525 20.7893C24.381 20.7893 23.594 20.0507 23.594 19.1407C23.594 18.2307 24.381 17.4921 25.3525 17.4921C26.3241 17.4921 27.1111 18.2307 27.1111 19.1407C27.1111 20.0507 26.3219 20.7893 25.3525 20.7893Z" fill="#959595"/>
</svg>
