<svg width="150" height="161" viewBox="0 0 150 161" fill="none" xmlns="http://www.w3.org/2000/svg">
<g clip-path="url(#clip0_0_3)">
<path d="M108.84 65C109.29 53.63 123.06 57.38 123.98 43.79C124.32 38.72 118.72 34.29 113.73 35.27C107.97 36.4 103.81 41.97 101.73 47.45C99.73 52.67 91.35 55.27 86.11 52.58C79.29 49.07 78.61 41.91 79.88 37.69C81.3 32.94 85.07 18.27 82.46 7.69C81.27 2.88 76 -0.869996 71.13 0.180004C65.32 1.43 62.84 8.54 63.13 14.47C63.42 20.4 69.04 33.86 65.44 46.14C65.01 47.6 63.14 50.9 60.37 51.44C50.59 53.35 45.21 53.95 36.83 67.53C34.73 70.93 26.97 68.2 21.75 62.85C18.33 59.28 11.71 58.32 6 62.12C4.05563 63.3846 2.61643 65.2911 1.93303 67.5076C1.24964 69.7241 1.36534 72.1101 2.26 74.25C3.98 78.88 10.26 81.84 16.53 81.43C25.79 80.83 30 87 30 93.6C30 101.08 25.09 105.87 17.88 105.89C14.02 105.89 8.61 105.25 4.28 107.89C2.63508 108.851 1.35932 110.336 0.656118 112.106C-0.0470836 113.877 -0.137248 115.832 0.400001 117.66C2.25 123 7.4 125.22 13.53 122.23C18.91 119.61 27.03 114.08 31.9 114.95C36.45 115.76 38.67 119.63 38.53 123.86C38.41 127.46 41.14 131.08 48.02 128.86C52.75 127.37 56.27 131.86 56.92 135.86C57.65 140.43 56.22 141.97 53.18 146.72C49.62 152.29 51.64 157.26 55.03 158.6C56.8843 159.403 58.9383 159.626 60.9216 159.238C62.9049 158.851 64.7242 157.872 66.14 156.43C68.91 153.51 68.42 149.29 68.33 143.83C68.26 139.83 69.56 136.29 72.73 133.83C75.16 131.93 80.15 130.34 85.34 130.83C90.34 131.31 92.12 136.19 92.61 138.07C95.34 148.47 111.92 141.52 102.61 132.21C99.16 128.74 97.48 124.38 100.42 120.54C103.14 116.99 108.13 113.28 112.79 112.92C119 112.44 126.26 121.59 133.55 124.31C138.6 126.2 145.07 126.42 147.92 121.83C151.12 116.67 147.53 110.18 143.35 107.99C135.16 103.71 122.01 104.56 117.41 100.61C114.21 97.86 121.07 86.89 117.92 78.86C115.19 71.84 108.59 71.46 108.84 65Z" fill="black"/>
<path d="M18.95 141C16.44 137.05 20.56 130.27 25.83 131.23C30.21 132.03 33.78 137.85 30.99 141.62C30.2879 142.591 29.3538 143.372 28.2728 143.89C27.1918 144.408 25.9984 144.647 24.8014 144.585C23.6043 144.523 22.4417 144.163 21.4197 143.537C20.3976 142.911 19.5486 142.038 18.95 141V141Z" fill="black"/>
<path d="M27.34 41.17C32.43 41.09 34.68 47.46 32.23 51.61C29.78 55.76 21.64 55.3 20.5 49.76C20.2813 48.7333 20.2928 47.6708 20.5334 46.649C20.7741 45.6272 21.2381 44.6714 21.892 43.8501C22.5459 43.0289 23.3736 42.3627 24.3155 41.8993C25.2575 41.4359 26.2904 41.1868 27.34 41.17V41.17Z" fill="black"/>
<path d="M5.12 42.07C4.46 39.07 7.82 37 10.48 37.94C13.14 38.88 13.87 43.73 10.85 45.07C10.281 45.3161 9.66411 45.4319 9.04456 45.4089C8.42502 45.3859 7.81844 45.2248 7.26919 44.9372C6.71994 44.6496 6.24191 44.2429 5.87006 43.7469C5.49821 43.2508 5.24194 42.6779 5.12 42.07V42.07Z" fill="black"/>
<path d="M94.89 157.56C94.23 154.56 97.59 152.49 100.25 153.43C102.91 154.37 103.64 159.22 100.62 160.56C100.051 160.806 99.4341 160.922 98.8146 160.899C98.195 160.876 97.5884 160.715 97.0392 160.427C96.4899 160.14 96.0119 159.733 95.6401 159.237C95.2682 158.741 95.0119 158.168 94.89 157.56V157.56Z" fill="black"/>
<path d="M138 63C140.84 66.17 138.19 71 134.31 71.68C130.43 72.36 126.2 67 129 63.31C131.8 59.62 136.06 60.9 138 63Z" fill="black"/>
<path d="M36.61 150.24C38.83 152.72 36.76 156.49 33.73 157.02C30.7 157.55 27.44 153.34 29.58 150.46C29.9882 149.924 30.5108 149.486 31.1098 149.177C31.7088 148.868 32.3691 148.697 33.0426 148.676C33.7161 148.655 34.3858 148.785 35.003 149.055C35.6201 149.326 36.1691 149.73 36.61 150.24V150.24Z" fill="black"/>
<path d="M59.152 117.768L60.176 117.704C60.432 117.704 61.008 116.68 62.224 114.504L62.864 113.352C63.184 112.84 64.72 110.664 67.664 106.952L70.672 103.112C74.576 109 77.2 112.648 78.608 114.12C79.312 114.376 79.76 114.568 80.08 114.568H80.272C80.528 114.568 80.72 114.44 80.784 114.248C80.848 114.056 80.976 113.608 81.104 113.032L81.296 112.584C81.36 112.456 81.552 112.392 81.744 112.392C82.128 112.392 82.512 112.52 82.704 112.712C82.96 112.968 83.152 113.032 83.408 113.032C83.856 113.032 84.176 112.84 84.368 112.328C84.496 111.88 84.752 111.688 85.136 111.688H85.456C85.584 111.688 85.776 111.624 86.032 111.496L86.288 111.304L85.776 109.512L87.696 109.384C88.336 109.384 89.616 106.696 89.616 105.672C89.616 105.288 89.168 104.584 88.336 103.688C87.504 102.792 84.56 98.952 79.504 92.232C83.408 87.56 86.48 84.296 88.464 82.312L95.504 75.464L94.992 74.696C95.504 74.376 95.76 73.992 95.76 73.352L95.632 72.264L94.992 72.136L95.248 71.112H94.928C94.544 71.112 94.224 71.176 94.032 71.304C93.84 71.432 93.648 71.496 93.456 71.496C93.072 71.368 92.56 70.024 92.56 69.64L92.688 68.936L91.792 68.424L91.664 67.976C91.6 67.656 91.28 67.272 90.576 66.824L90.384 66.76L88.08 68.552C87.568 69 86.928 69.64 86.096 70.536C85.264 71.432 84.304 72.392 83.216 73.288C82.064 74.248 78.864 77.704 73.488 83.656C71.504 80.84 70.16 78.728 69.392 77.384C67.92 74.824 64.656 70.472 63.888 69.704L63.696 69.64C63.568 69.64 63.44 69.768 63.312 69.96C63.248 70.216 63.12 70.408 62.992 70.6L62.8 70.728C62.608 70.728 62.352 70.536 62.096 70.216C61.968 71.112 61.712 71.688 61.328 71.88L61.072 71.944C60.816 71.944 60.624 71.816 60.368 71.688C60.048 71.496 59.856 71.368 59.792 71.368C59.536 71.368 58.64 72.264 58.512 72.712C58.384 73.224 57.488 73.928 56.976 73.928C56.848 73.928 56.848 73.992 56.848 74.12C56.848 74.504 57.488 77 57.936 77.512L58.256 77.896C60.432 83.656 62.608 88.776 64.784 93.256C58.384 100.104 54.672 104.584 53.392 107.336C53.776 108.424 53.904 109.192 53.904 109.64C53.776 110.216 53.52 110.792 53.264 111.304L54.16 111.688C54.288 111.688 54.672 112.456 54.672 112.968L54.544 113.992C54.544 114.12 54.608 114.184 54.672 114.248L55.184 114.12L55.568 113.992C55.632 113.992 55.696 114.056 55.696 114.12L55.568 114.952C55.568 115.08 55.632 115.208 55.824 115.272C56.144 115.272 56.464 115.144 56.72 114.952C57.04 114.696 57.296 114.632 57.488 114.632C57.616 114.632 57.616 114.696 57.616 114.888C57.616 115.08 57.552 115.464 57.36 116.04L58.512 117.576C58.576 117.704 58.832 117.768 59.152 117.768Z" fill="#FF7500"/>
</g>
<defs>
<clipPath id="clip0_0_3">
<rect width="149.2" height="160.94" fill="white"/>
</clipPath>
</defs>
</svg>
