<svg width="150" height="161" viewBox="0 0 150 161" fill="none" xmlns="http://www.w3.org/2000/svg">
<g clip-path="url(#clip0_0_3)">
<path d="M108.84 65C109.29 53.63 123.06 57.38 123.98 43.79C124.32 38.72 118.72 34.29 113.73 35.27C107.97 36.4 103.81 41.97 101.73 47.45C99.73 52.67 91.35 55.27 86.11 52.58C79.29 49.07 78.61 41.91 79.88 37.69C81.3 32.94 85.07 18.27 82.46 7.69C81.27 2.88 76 -0.869996 71.13 0.180004C65.32 1.43 62.84 8.54 63.13 14.47C63.42 20.4 69.04 33.86 65.44 46.14C65.01 47.6 63.14 50.9 60.37 51.44C50.59 53.35 45.21 53.95 36.83 67.53C34.73 70.93 26.97 68.2 21.75 62.85C18.33 59.28 11.71 58.32 6 62.12C4.05563 63.3846 2.61643 65.2911 1.93303 67.5076C1.24964 69.7241 1.36534 72.1101 2.26 74.25C3.98 78.88 10.26 81.84 16.53 81.43C25.79 80.83 30 87 30 93.6C30 101.08 25.09 105.87 17.88 105.89C14.02 105.89 8.61 105.25 4.28 107.89C2.63508 108.851 1.35932 110.336 0.656118 112.106C-0.0470836 113.877 -0.137248 115.832 0.400001 117.66C2.25 123 7.4 125.22 13.53 122.23C18.91 119.61 27.03 114.08 31.9 114.95C36.45 115.76 38.67 119.63 38.53 123.86C38.41 127.46 41.14 131.08 48.02 128.86C52.75 127.37 56.27 131.86 56.92 135.86C57.65 140.43 56.22 141.97 53.18 146.72C49.62 152.29 51.64 157.26 55.03 158.6C56.8843 159.403 58.9383 159.626 60.9216 159.238C62.9049 158.851 64.7242 157.872 66.14 156.43C68.91 153.51 68.42 149.29 68.33 143.83C68.26 139.83 69.56 136.29 72.73 133.83C75.16 131.93 80.15 130.34 85.34 130.83C90.34 131.31 92.12 136.19 92.61 138.07C95.34 148.47 111.92 141.52 102.61 132.21C99.16 128.74 97.48 124.38 100.42 120.54C103.14 116.99 108.13 113.28 112.79 112.92C119 112.44 126.26 121.59 133.55 124.31C138.6 126.2 145.07 126.42 147.92 121.83C151.12 116.67 147.53 110.18 143.35 107.99C135.16 103.71 122.01 104.56 117.41 100.61C114.21 97.86 121.07 86.89 117.92 78.86C115.19 71.84 108.59 71.46 108.84 65Z" fill="black"/>
<path d="M18.95 141C16.44 137.05 20.56 130.27 25.83 131.23C30.21 132.03 33.78 137.85 30.99 141.62C30.2879 142.591 29.3538 143.372 28.2728 143.89C27.1918 144.408 25.9984 144.647 24.8014 144.585C23.6043 144.523 22.4417 144.163 21.4197 143.537C20.3976 142.911 19.5486 142.038 18.95 141V141Z" fill="black"/>
<path d="M27.34 41.17C32.43 41.09 34.68 47.46 32.23 51.61C29.78 55.76 21.64 55.3 20.5 49.76C20.2813 48.7333 20.2928 47.6708 20.5334 46.649C20.7741 45.6272 21.2381 44.6714 21.892 43.8501C22.5459 43.0289 23.3736 42.3627 24.3155 41.8993C25.2575 41.4359 26.2904 41.1868 27.34 41.17V41.17Z" fill="black"/>
<path d="M5.12 42.07C4.46 39.07 7.82 37 10.48 37.94C13.14 38.88 13.87 43.73 10.85 45.07C10.281 45.3161 9.66411 45.4319 9.04456 45.4089C8.42502 45.3859 7.81844 45.2248 7.26919 44.9372C6.71994 44.6496 6.24191 44.2429 5.87006 43.7469C5.49821 43.2508 5.24194 42.6779 5.12 42.07V42.07Z" fill="black"/>
<path d="M94.89 157.56C94.23 154.56 97.59 152.49 100.25 153.43C102.91 154.37 103.64 159.22 100.62 160.56C100.051 160.806 99.4341 160.922 98.8146 160.899C98.195 160.876 97.5884 160.715 97.0392 160.427C96.4899 160.14 96.0119 159.733 95.6401 159.237C95.2682 158.741 95.0119 158.168 94.89 157.56V157.56Z" fill="black"/>
<path d="M138 63C140.84 66.17 138.19 71 134.31 71.68C130.43 72.36 126.2 67 129 63.31C131.8 59.62 136.06 60.9 138 63Z" fill="black"/>
<path d="M36.61 150.24C38.83 152.72 36.76 156.49 33.73 157.02C30.7 157.55 27.44 153.34 29.58 150.46C29.9882 149.924 30.5108 149.486 31.1098 149.177C31.7088 148.868 32.3691 148.697 33.0426 148.676C33.7161 148.655 34.3858 148.785 35.003 149.055C35.6201 149.326 36.1691 149.73 36.61 150.24V150.24Z" fill="black"/>
<path d="M66.2801 98.576C66.3441 90.416 66.4721 81.648 66.6641 72.272C68.9361 72.304 71.3681 72.368 73.9601 72.464C73.3521 85.136 72.7601 98.24 72.1841 111.776C70.3281 111.84 68.2161 111.904 65.8481 111.968C62.5841 104.064 59.7681 97.04 57.4001 90.896C57.7841 97.488 58.0881 104.48 58.3121 111.872C55.9121 111.808 53.3521 111.76 50.6321 111.728C50.4401 100.048 50.2961 86.944 50.2001 72.416C51.8961 72.416 54.1201 72.368 56.8721 72.272C60.1361 82.032 63.2721 90.8 66.2801 98.576ZM92.223 80.24C89.695 80.208 87.311 80.272 85.071 80.432C85.263 88.848 85.391 97.2 85.455 105.488C88.527 105.552 90.783 105.6 92.223 105.632C92.255 104.096 92.287 102.768 92.319 101.648C90.111 101.744 88.655 101.824 87.951 101.888L88.047 95.984L99.375 96.608C99.119 100.448 98.895 103.52 98.703 105.824C96.911 107.68 94.863 109.648 92.559 111.728C89.647 111.76 87.295 111.824 85.503 111.92C83.295 110.32 81.215 108.432 79.263 106.256C78.559 98.16 77.839 89.536 77.103 80.384C79.695 77.696 82.207 75.12 84.639 72.656C87.583 72.592 90.863 72.544 94.479 72.512C96.111 74.88 97.951 77.232 99.999 79.568C99.935 81.744 99.823 83.872 99.663 85.952C97.135 85.92 94.511 85.92 91.791 85.952C91.919 84.128 92.063 82.224 92.223 80.24Z" fill="#FF7500"/>
</g>
<defs>
<clipPath id="clip0_0_3">
<rect width="149.2" height="160.94" fill="white"/>
</clipPath>
</defs>
</svg>
